<?xml version="1.0" standalone="no"?>
<!DOCTYPE svg PUBLIC "-//W3C//DTD SVG 1.1//EN" "http://www.w3.org/Graphics/SVG/1.1/DTD/svg11.dtd" >
<svg>
<metadata>
Created by FontForge 20090622 at Wed Jan  8 02:59:41 2020
 By deploy user
Copyright (c) 2014 by Graviton. All rights reserved.
</metadata>
<defs>
<font id="SVN-Cintra" horiz-adv-x="590" >
  <font-face 
    font-family="SVN-Cintra"
    font-weight="400"
    font-stretch="normal"
    units-per-em="1000"
    panose-1="0 0 0 0 0 0 0 0 0 0"
    ascent="800"
    descent="-200"
    x-height="720"
    cap-height="720"
    bbox="-42 -300 1510 1070"
    underline-thickness="50"
    underline-position="-50"
    unicode-range="U+0020-U+FB99"
  />
<missing-glyph horiz-adv-x="740" 
d="M137 593q97 97 233 97t233 -97t97 -233t-97 -233t-233 -97t-233 97t-97 233t97 233zM547 240l-120 120l120 120q14 14 0 28l-29 29q-14 14 -28 0l-120 -120l-120 120q-14 14 -29 0l-28 -29q-14 -14 0 -28l120 -120l-120 -120q-14 -14 0 -29l28 -28q15 -14 29 0l120 120
l120 -120q14 -14 28 0l29 28q14 15 0 29z" />
    <glyph glyph-name="graviton" unicode="&#x6b3;" horiz-adv-x="505" arabic-form="medial" 
d="M201 222v113q0 10 10 10h77v-133h-77q-10 0 -10 10zM300 522q-20 -20 -48 -20t-48 20t-20 49t20 49t48 20t48 -20q21 -20 21 -49t-21 -49zM102 402q62 63 150 63t150 -63q63 -62 63 -150t-63 -150q-62 -62 -150 -62t-150 62t-62 150t62 150zM324 158v217q0 3 -3 3h-110
q-19 0 -33 -13.5t-14 -32.5v-107q0 -19 14 -33t33 -14h77v-23q0 -10 -10 -10h-70q-4 0 -4 -3v-27q0 -3 4 -3h70q19 0 32.5 13.5t13.5 32.5z" />
    <glyph glyph-name=".notdef" horiz-adv-x="740" 
d="M137 593q97 97 233 97t233 -97t97 -233t-97 -233t-233 -97t-233 97t-97 233t97 233zM547 240l-120 120l120 120q14 14 0 28l-29 29q-14 14 -28 0l-120 -120l-120 120q-14 14 -29 0l-28 -29q-14 -14 0 -28l120 -120l-120 -120q-14 -14 0 -29l28 -28q15 -14 29 0l120 120
l120 -120q14 -14 28 0l29 28q14 15 0 29z" />
    <glyph glyph-name=".null" horiz-adv-x="0" 
 />
    <glyph glyph-name="nonmarkingreturn" horiz-adv-x="333" 
 />
    <glyph glyph-name="space" unicode=" " horiz-adv-x="300" 
 />
    <glyph glyph-name="exclam" unicode="!" horiz-adv-x="280" 
d="M200 220h-120q-7 0 -10 0.5t-6.5 5.5t-3.5 14v460q0 9 3.5 14t6.5 5.5t10 0.5h120q7 0 10 -0.5t6.5 -5.5t3.5 -14v-460q0 -9 -3.5 -14t-6.5 -5.5t-10 -0.5zM76 144q26 26 64 26t64 -26t26 -64t-26 -64t-64 -26t-64 26t-26 64t26 64z" />
    <glyph glyph-name="quotedbl" unicode="&#x22;" horiz-adv-x="500" 
d="M80 720h120q7 0 10 -0.5t6.5 -5.5t3.5 -14v-200q0 -9 -3.5 -14t-6.5 -5.5t-10 -0.5h-120q-7 0 -10 0.5t-6.5 5.5t-3.5 14v200q0 9 3.5 14t6.5 5.5t10 0.5zM300 720h120q7 0 10 -0.5t6.5 -5.5t3.5 -14v-200q0 -9 -3.5 -14t-6.5 -5.5t-10 -0.5h-120q-7 0 -10 0.5t-6.5 5.5
t-3.5 14v200q0 9 3.5 14t6.5 5.5t10 0.5z" />
    <glyph glyph-name="numbersign" unicode="#" horiz-adv-x="580" 
d="M520 440h-60v-160h60q7 0 10 -0.5t6.5 -5.5t3.5 -14v-60q0 -9 -3.5 -14t-6.5 -5.5t-10 -0.5h-60v-80q0 -9 -3.5 -14t-6.5 -5.5t-10 -0.5h-80q-7 0 -10 0.5t-6.5 5.5t-3.5 14v80h-100v-80q0 -9 -3.5 -14t-6.5 -5.5t-10 -0.5h-80q-7 0 -10 0.5t-6.5 5.5t-3.5 14v80h-60
q-7 0 -10 0.5t-6.5 5.5t-3.5 14v60q0 9 3.5 14t6.5 5.5t10 0.5h60v160h-60q-7 0 -10 0.5t-6.5 5.5t-3.5 14v60q0 9 3.5 14t6.5 5.5t10 0.5h60v80q0 9 3.5 14t6.5 5.5t10 0.5h80q7 0 10 -0.5t6.5 -5.5t3.5 -14v-80h100v80q0 9 3.5 14t6.5 5.5t10 0.5h80q7 0 10 -0.5t6.5 -5.5
t3.5 -14v-80h60q7 0 10 -0.5t6.5 -5.5t3.5 -14v-60q0 -9 -3.5 -14t-6.5 -5.5t-10 -0.5zM240 280h100v160h-100v-160z" />
    <glyph glyph-name="dollar" unicode="$" horiz-adv-x="580" 
d="M510 470h-120q-7 0 -10 0.5t-6.5 5.5t-3.5 14v70q0 9 -3.5 14t-6.5 5.5t-10 0.5h-120q-7 0 -10 -0.5t-6.5 -5.5t-3.5 -14v-80q0 -12 1 -17t5 -9.5t14 -6.5l120 -30q48 -12 69 -18q64 -18 82 -37q34 -41 29 -122v-120q0 -63 -33 -94q-13 -12 -42 -18q-25 -5 -47 -7
q-13 -1 -58 -1v-100q0 -9 -3.5 -14t-6.5 -5.5t-10 -0.5h-80q-7 0 -10 0.5t-6.5 5.5t-3.5 14v100q-45 0 -58 1q-23 2 -48 7q-39 8 -54.5 32.5t-19.5 79.5v110q0 9 3.5 14t6.5 5.5t10 0.5h120q7 0 10 -0.5t6.5 -5.5t3.5 -14v-70q0 -9 3.5 -14t6.5 -5.5t10 -0.5h120q7 0 10 0.5
t6.5 5.5t3.5 14v80q0 12 -1 17t-5 9.5t-14 6.5l-120 30l-70 18q-64 18 -81 37q-34 41 -29 122v120q0 63 33 94q14 12 41 18q25 5 48 7q13 1 58 1v100q0 9 3.5 14t6.5 5.5t10 0.5h80q7 0 10 -0.5t6.5 -5.5t3.5 -14v-100q45 0 58 -1q22 -2 47 -7q29 -6 42 -18q33 -31 33 -94
v-110q0 -9 -3.5 -14t-6.5 -5.5t-10 -0.5z" />
    <glyph glyph-name="percent" unicode="%" horiz-adv-x="1140" 
d="M710 720h85q12 0 14 -2.5t-2 -17.5l-340 -680q-7 -14 -13 -17t-24 -3h-85q-12 0 -14 2.5t2 17.5l340 680q7 14 13 17t24 3zM410 630v-300q0 -47 -26 -71q-10 -10 -31 -14q-29 -5 -83 -5h-80q-54 0 -83 5q-29 7 -41 25.5t-16 59.5v300q0 46 25 71q10 9 32 13q25 6 83 6h80
q58 0 83 -6q29 -5 41 -24t16 -60zM290 360v240q0 9 -3.5 14t-6.5 5.5t-10 0.5h-80q-7 0 -10 -0.5t-6.5 -5.5t-3.5 -14v-240q0 -9 3.5 -14t6.5 -5.5t10 -0.5h80q7 0 10 0.5t6.5 5.5t3.5 14zM870 480h80q58 0 83 -6q29 -5 41 -23.5t16 -60.5v-300q0 -47 -26 -71
q-10 -10 -31 -14q-29 -5 -83 -5h-80q-54 0 -83 5q-29 7 -41 25.5t-16 59.5v300q0 46 25 71q10 9 32 13q25 6 83 6zM970 120v240q0 9 -3.5 14t-6.5 5.5t-10 0.5h-80q-7 0 -10 -0.5t-6.5 -5.5t-3.5 -14v-240q0 -9 3.5 -14t6.5 -5.5t10 -0.5h80q7 0 10 0.5t6.5 5.5t3.5 14z" />
    <glyph glyph-name="ampersand" unicode="&#x26;" horiz-adv-x="580" 
d="M230 430h320q7 0 10 -0.5t6.5 -5.5t3.5 -14v-100q0 -9 -3.5 -14t-6.5 -5.5t-10 -0.5h-40v-170q0 -63 -33 -94q-13 -12 -42 -18q-25 -5 -47 -7q-13 -1 -58 -1h-100q-45 0 -58 1q-23 2 -48 7q-39 8 -54.5 32.5t-19.5 79.5v110q0 40 5 61q10 43 75 59v20q-43 11 -63 33
q-8 9 -12 25q-5 23 -5 62v110q0 63 33 94q14 12 41 18q25 5 48 7q13 1 58 1h80q45 0 58 -1q22 -2 47 -7q39 -8 55 -32.5t20 -79.5v-90q0 -9 -3.5 -14t-6.5 -5.5t-10 -0.5h-120q-7 0 -10 0.5t-6.5 5.5t-3.5 14v50q0 9 -3.5 14t-6.5 5.5t-10 0.5h-80q-7 0 -10 -0.5t-6.5 -5.5
t-3.5 -14v-110q0 -9 3.5 -14t6.5 -5.5t10 -0.5zM350 160v130h-120q-7 0 -10 -0.5t-6.5 -5.5t-3.5 -14v-110q0 -9 3.5 -14t6.5 -5.5t10 -0.5h100q7 0 10 0.5t6.5 5.5t3.5 14z" />
    <glyph glyph-name="quotesingle" unicode="'" horiz-adv-x="280" 
d="M220 700v-200q0 -9 -3.5 -14t-6.5 -5.5t-10 -0.5h-120q-7 0 -10 0.5t-6.5 5.5t-3.5 14v200q0 9 3.5 14t6.5 5.5t10 0.5h120q7 0 10 -0.5t6.5 -5.5t3.5 -14z" />
    <glyph glyph-name="parenleft" unicode="(" horiz-adv-x="400" 
d="M210 560v-400q0 -9 3.5 -14t6.5 -5.5t10 -0.5h120q7 0 10 -0.5t6.5 -5.5t3.5 -14v-100q0 -9 -3.5 -14t-6.5 -5.5t-10 -0.5h-120q-45 0 -58 1q-23 2 -48 7q-39 8 -54.5 32.5t-19.5 79.5v480q0 63 33 94q14 12 41 18q25 5 48 7q13 1 58 1h120q7 0 10 -0.5t6.5 -5.5t3.5 -14
v-100q0 -9 -3.5 -14t-6.5 -5.5t-10 -0.5h-120q-7 0 -10 -0.5t-6.5 -5.5t-3.5 -14z" />
    <glyph glyph-name="parenright" unicode=")" horiz-adv-x="400" 
d="M50 720h120q45 0 58 -1q22 -2 47 -7q29 -6 42 -18q33 -31 33 -94v-480q0 -63 -33 -94q-13 -12 -42 -18q-25 -5 -47 -7q-13 -1 -58 -1h-120q-7 0 -10 0.5t-6.5 5.5t-3.5 14v100q0 9 3.5 14t6.5 5.5t10 0.5h120q7 0 10 0.5t6.5 5.5t3.5 14v400q0 9 -3.5 14t-6.5 5.5
t-10 0.5h-120q-7 0 -10 0.5t-6.5 5.5t-3.5 14v100q0 9 3.5 14t6.5 5.5t10 0.5z" />
    <glyph glyph-name="asterisk" unicode="*" horiz-adv-x="545" 
d="M403 480l100 -58q17 -11 7 -27l-40 -70q-11 -17 -27 -7l-100 58v-116q0 -9 -3.5 -14t-6.5 -5.5t-10 -0.5h-80q-7 0 -10 0.5t-6.5 5.5t-3.5 14v116l-101 -58q-16 -10 -27 7l-40 70q-10 16 7 27l101 58l-101 58q-17 11 -7 27l40 70q11 17 27 7l101 -58v116q0 9 3.5 14
t6.5 5.5t10 0.5h80q7 0 10 -0.5t6.5 -5.5t3.5 -14v-116l100 58q16 10 27 -7l40 -70q10 -16 -7 -27z" />
    <glyph glyph-name="plus" unicode="+" horiz-adv-x="560" 
d="M360 430h140q7 0 10 -0.5t6.5 -5.5t3.5 -14v-100q0 -9 -3.5 -14t-6.5 -5.5t-10 -0.5h-140v-150q0 -9 -3.5 -14t-6.5 -5.5t-10 -0.5h-120q-7 0 -10 0.5t-6.5 5.5t-3.5 14v150h-140q-7 0 -10 0.5t-6.5 5.5t-3.5 14v100q0 9 3.5 14t6.5 5.5t10 0.5h140v150q0 9 3.5 14
t6.5 5.5t10 0.5h120q7 0 10 -0.5t6.5 -5.5t3.5 -14v-150z" />
    <glyph glyph-name="comma" unicode="," horiz-adv-x="261" 
d="M83 160h129q7 0 11 -0.5t8.5 -5t-0.5 -14.5l-67 -200q-5 -13 -10.5 -16.5t-19.5 -3.5h-91h-10t-7 2t-3.5 6t0.5 12l33 200q2 13 7.5 16.5t19.5 3.5z" />
    <glyph glyph-name="hyphen" unicode="-" horiz-adv-x="400" 
d="M60 430h280q7 0 10 -0.5t6.5 -5.5t3.5 -14v-100q0 -9 -3.5 -14t-6.5 -5.5t-10 -0.5h-280q-7 0 -10 0.5t-6.5 5.5t-3.5 14v100q0 9 3.5 14t6.5 5.5t10 0.5z" />
    <glyph glyph-name="period" unicode="." horiz-adv-x="260" 
d="M66 144q26 26 64 26t64 -26t26 -64t-26 -64t-64 -26t-64 26t-26 64t26 64z" />
    <glyph glyph-name="slash" unicode="/" horiz-adv-x="439" 
d="M282 720h120q29 0 19 -20l-227 -680q-4 -14 -9.5 -17t-20.5 -3h-120q-8 0 -11 0.5t-8 5t1 14.5l226 680q5 13 10.5 16.5t19.5 3.5z" />
    <glyph glyph-name="zero" unicode="0" horiz-adv-x="560" 
d="M230 720h100q45 0 58 -1q22 -2 47 -7q39 -8 55 -32.5t20 -79.5v-480q0 -63 -33 -94q-13 -12 -42 -18q-25 -5 -47 -7q-13 -1 -58 -1h-100q-45 0 -58 1q-23 2 -48 7q-39 8 -54.5 32.5t-19.5 79.5v480q0 63 33 94q14 12 41 18q25 5 48 7q13 1 58 1zM350 160v400q0 9 -3.5 14
t-6.5 5.5t-10 0.5h-100q-7 0 -10 -0.5t-6.5 -5.5t-3.5 -14v-400q0 -9 3.5 -14t6.5 -5.5t10 -0.5h100q7 0 10 0.5t6.5 5.5t3.5 14z" />
    <glyph glyph-name="one" unicode="1" horiz-adv-x="360" 
d="M40 720h240q7 0 10 -0.5t6.5 -5.5t3.5 -14v-680q0 -9 -3.5 -14t-6.5 -5.5t-10 -0.5h-120q-7 0 -10 0.5t-6.5 5.5t-3.5 14v560h-100q-7 0 -10 0.5t-6.5 5.5t-3.5 14v100q0 9 3.5 14t6.5 5.5t10 0.5z" />
    <glyph glyph-name="two" unicode="2" horiz-adv-x="565" 
d="M335 280l-100 -25q-13 -3 -16.5 -9.5t-3.5 -25.5v-80h280q7 0 10 -0.5t6.5 -5.5t3.5 -14v-100q0 -9 -3.5 -14t-6.5 -5.5t-10 -0.5h-420q-7 0 -10 0.5t-6.5 5.5t-3.5 14v200q-4 87 29 123q11 11 34 21q26 11 47 17q17 5 70 19l100 25q14 3 17 9.5t3 25.5v100q0 9 -3.5 14
t-6.5 5.5t-10 0.5h-100q-7 0 -10 -0.5t-6.5 -5.5t-3.5 -14v-70q0 -9 -3.5 -14t-6.5 -5.5t-10 -0.5h-120q-7 0 -10 0.5t-6.5 5.5t-3.5 14v110q0 63 33 94q14 12 41 18q25 5 48 7q13 1 58 1h100q45 0 58 -1q22 -2 47 -7q39 -8 55 -32.5t20 -79.5v-140q4 -87 -30 -124
q-10 -10 -33 -20q-24 -10 -48 -18z" />
    <glyph glyph-name="three" unicode="3" horiz-adv-x="560" 
d="M510 600v-110q0 -39 -5 -62q-10 -42 -75 -58v-20q43 -11 63 -33q7 -9 12 -26q5 -21 5 -61v-110q0 -63 -33 -94q-13 -12 -42 -18q-25 -5 -47 -7q-13 -1 -58 -1h-100q-45 0 -58 1q-23 2 -48 7q-39 8 -54.5 32.5t-19.5 79.5v110q0 9 3.5 14t6.5 5.5t10 0.5h120q7 0 10 -0.5
t6.5 -5.5t3.5 -14v-70q0 -9 3.5 -14t6.5 -5.5t10 -0.5h100q7 0 10 0.5t6.5 5.5t3.5 14v110q0 9 -3.5 14t-6.5 5.5t-10 0.5h-120q-7 0 -10 0.5t-6.5 5.5t-3.5 14v100q0 9 3.5 14t6.5 5.5t10 0.5h120q7 0 10 0.5t6.5 5.5t3.5 14v110q0 9 -3.5 14t-6.5 5.5t-10 0.5h-100
q-7 0 -10 -0.5t-6.5 -5.5t-3.5 -14v-70q0 -9 -3.5 -14t-6.5 -5.5t-10 -0.5h-120q-7 0 -10 0.5t-6.5 5.5t-3.5 14v110q0 63 33 94q14 12 41 18q25 5 48 7q13 1 58 1h100q45 0 58 -1q22 -2 47 -7q39 -8 55 -32.5t20 -79.5z" />
    <glyph glyph-name="four" unicode="4" horiz-adv-x="580" 
d="M380 540h120q7 0 10 -0.5t6.5 -5.5t3.5 -14v-500q0 -9 -3.5 -14t-6.5 -5.5t-10 -0.5h-120q-7 0 -10 0.5t-6.5 5.5t-3.5 14v110h-320q-7 0 -10 0.5t-6.5 5.5t-3.5 14v140q0 36 11 60l175 350q7 14 13 17t24 3h130q12 0 13.5 -2.5t-1.5 -17.5l-205 -410v-20h180v250
q0 9 3.5 14t6.5 5.5t10 0.5z" />
    <glyph glyph-name="five" unicode="5" horiz-adv-x="560" 
d="M215 460h120q45 0 58 -1q22 -2 47 -7q39 -8 55 -32.5t20 -79.5v-220q0 -63 -33 -94q-14 -12 -42 -18q-25 -5 -47 -7q-13 -1 -58 -1h-100q-45 0 -58 1q-23 2 -48 7q-39 8 -54.5 32.5t-19.5 79.5v110q0 9 3.5 14t6.5 5.5t10 0.5h120q7 0 10 -0.5t6.5 -5.5t3.5 -14v-70
q0 -9 3.5 -14t6.5 -5.5t10 -0.5h100q7 0 10 0.5t6.5 5.5t3.5 14v140q0 9 -3.5 14t-6.5 5.5t-10 0.5h-260q-7 0 -10 0.5t-6.5 5.5t-3.5 14v360q0 9 3.5 14t6.5 5.5t10 0.5h410q7 0 10 -0.5t6.5 -5.5t3.5 -14v-100q0 -9 -3.5 -14t-6.5 -5.5t-10 -0.5h-270v-120z" />
    <glyph glyph-name="six" unicode="6" horiz-adv-x="560" 
d="M490 480h-120q-7 0 -10 0.5t-6.5 5.5t-3.5 14v60q0 9 -3.5 14t-6.5 5.5t-10 0.5h-100q-7 0 -10 -0.5t-6.5 -5.5t-3.5 -14v-130h120q45 0 58 -1q22 -2 47 -7q39 -8 55 -32.5t20 -79.5v-190q0 -63 -33 -94q-13 -12 -42 -18q-25 -5 -47 -7q-13 -1 -58 -1h-100q-45 0 -58 1
q-23 2 -48 7q-39 8 -54.5 32.5t-19.5 79.5v480q0 63 33 94q14 12 41 18q25 5 48 7q13 1 58 1h100q45 0 58 -1q22 -2 47 -7q39 -8 55 -32.5t20 -79.5v-100q0 -9 -3.5 -14t-6.5 -5.5t-10 -0.5zM330 290h-120v-130q0 -9 3.5 -14t6.5 -5.5t10 -0.5h100q7 0 10 0.5t6.5 5.5
t3.5 14v110q0 9 -3.5 14t-6.5 5.5t-10 0.5z" />
    <glyph glyph-name="seven" unicode="7" horiz-adv-x="500" 
d="M30 720h420q7 0 10 -0.5t6.5 -5.5t3.5 -14v-140q0 -31 -8 -50l-204 -490q-8 -20 -28 -20h-130q-8 0 -10.5 0.5t-7 5t2.5 14.5l225 540v20h-280q-7 0 -10 0.5t-6.5 5.5t-3.5 14v100q0 9 3.5 14t6.5 5.5t10 0.5z" />
    <glyph glyph-name="eight" unicode="8" horiz-adv-x="560" 
d="M510 600v-110q0 -39 -5 -62q-10 -42 -75 -58v-20q43 -11 63 -33q7 -9 12 -26q5 -21 5 -61v-110q0 -63 -33 -94q-13 -12 -42 -18q-25 -5 -47 -7q-13 -1 -58 -1h-100q-45 0 -58 1q-23 2 -48 7q-39 8 -54.5 32.5t-19.5 79.5v110q0 40 5 61q10 43 75 59v20q-43 11 -63 33
q-8 9 -12 25q-5 23 -5 62v110q0 63 33 94q14 12 41 18q25 5 48 7q13 1 58 1h100q45 0 58 -1q22 -2 47 -7q39 -8 55 -32.5t20 -79.5zM350 160v110q0 9 -3.5 14t-6.5 5.5t-10 0.5h-100q-7 0 -10 -0.5t-6.5 -5.5t-3.5 -14v-110q0 -9 3.5 -14t6.5 -5.5t10 -0.5h100q7 0 10 0.5
t6.5 5.5t3.5 14zM350 450v110q0 9 -3.5 14t-6.5 5.5t-10 0.5h-100q-7 0 -10 -0.5t-6.5 -5.5t-3.5 -14v-110q0 -9 3.5 -14t6.5 -5.5t10 -0.5h100q7 0 10 0.5t6.5 5.5t3.5 14z" />
    <glyph glyph-name="nine" unicode="9" horiz-adv-x="560" 
d="M230 720h100q45 0 58 -1q22 -2 47 -7q39 -8 55 -32.5t20 -79.5v-480q0 -63 -33 -94q-13 -12 -42 -18q-25 -5 -47 -7q-13 -1 -58 -1h-100q-45 0 -58 1q-23 2 -48 7q-39 8 -54.5 32.5t-19.5 79.5v100q0 9 3.5 14t6.5 5.5t10 0.5h120q7 0 10 -0.5t6.5 -5.5t3.5 -14v-60
q0 -9 3.5 -14t6.5 -5.5t10 -0.5h100q7 0 10 0.5t6.5 5.5t3.5 14v130h-120q-45 0 -58 1q-23 2 -48 7q-39 8 -54.5 32.5t-19.5 79.5v190q0 63 33 94q14 12 41 18q25 5 48 7q13 1 58 1zM230 430h120v130q0 9 -3.5 14t-6.5 5.5t-10 0.5h-100q-7 0 -10 -0.5t-6.5 -5.5t-3.5 -14
v-110q0 -9 3.5 -14t6.5 -5.5t10 -0.5z" />
    <glyph glyph-name="colon" unicode=":" horiz-adv-x="260" 
d="M66 144q26 26 64 26t64 -26t26 -64t-26 -64t-64 -26t-64 26t-26 64t26 64zM194 396q-26 -26 -64 -26t-64 26t-26 64t26 64t64 26t64 -26t26 -64t-26 -64z" />
    <glyph glyph-name="semicolon" unicode=";" horiz-adv-x="261" 
d="M83 160h129q7 0 11 -0.5t8.5 -5t-0.5 -14.5l-67 -200q-5 -13 -10.5 -16.5t-19.5 -3.5h-91h-10t-7 2t-3.5 6t0.5 12l33 200q2 13 7.5 16.5t19.5 3.5zM196 396q-26 -26 -64 -26t-64 26t-26 64t26 64t64 26t64 -26t26 -64t-26 -64z" />
    <glyph glyph-name="less" unicode="&#x3c;" horiz-adv-x="560" 
d="M60 471l440 147q10 5 14.5 0.5t5 -8.5t0.5 -11v-99v-8t-1 -6.5t-3 -6.5t-6 -4.5t-10 -4.5l-300 -100v-20l300 -100q13 -5 16.5 -10.5t3.5 -19.5v-99q0 -7 -0.5 -11t-5 -8.5t-14.5 0.5l-440 147q-13 5 -16.5 10.5t-3.5 19.5v162v8t1 6.5t3 6.5t6 4.5t10 4.5z" />
    <glyph glyph-name="equal" unicode="=" horiz-adv-x="560" 
d="M60 530h440q7 0 10 -0.5t6.5 -5.5t3.5 -14v-100q0 -9 -3.5 -14t-6.5 -5.5t-10 -0.5h-440q-7 0 -10 0.5t-6.5 5.5t-3.5 14v100q0 9 3.5 14t6.5 5.5t10 0.5zM60 330h440q7 0 10 -0.5t6.5 -5.5t3.5 -14v-100q0 -9 -3.5 -14t-6.5 -5.5t-10 -0.5h-440q-7 0 -10 0.5t-6.5 5.5
t-3.5 14v100q0 9 3.5 14t6.5 5.5t10 0.5z" />
    <glyph glyph-name="greater" unicode="&#x3e;" horiz-adv-x="560" 
d="M60 618l440 -147q13 -5 16.5 -10.5t3.5 -19.5v-162v-8t-1 -6.5t-3 -6.5t-6 -4.5t-10 -4.5l-440 -147q-10 -5 -14.5 -0.5t-5 8.5t-0.5 11v99v8t1 6.5t3 6.5t6 4.5t10 4.5l300 100v20l-300 100q-13 5 -16.5 10.5t-3.5 19.5v99q0 7 0.5 11t5 8.5t14.5 -0.5z" />
    <glyph glyph-name="question" unicode="?" horiz-adv-x="520" 
d="M200 720h100q45 0 58 -1q22 -2 47 -7q39 -8 55 -32.5t20 -79.5v-190q0 -63 -33 -94q-13 -12 -42 -18q-25 -5 -47 -7q-13 -1 -58 -1v-50q0 -9 -3.5 -14t-6.5 -5.5t-10 -0.5h-100q-7 0 -10 0.5t-6.5 5.5t-3.5 14v150q0 9 3.5 14t6.5 5.5t10 0.5h120q7 0 10 0.5t6.5 5.5
t3.5 14v130q0 9 -3.5 14t-6.5 5.5t-10 0.5h-100q-7 0 -10 -0.5t-6.5 -5.5t-3.5 -14v-70q0 -9 -3.5 -14t-6.5 -5.5t-10 -0.5h-120q-7 0 -10 0.5t-6.5 5.5t-3.5 14v110q0 63 33 94q14 12 41 18q25 5 48 7q13 1 58 1zM166 144q26 26 64 26t64 -26t26 -64t-26 -64t-64 -26
t-64 26t-26 64t26 64z" />
    <glyph glyph-name="at" unicode="@" horiz-adv-x="820" 
d="M350 240v240q0 9 3.5 14t6.5 5.5t10 0.5h100v-280h-100q-7 0 -10 0.5t-6.5 5.5t-3.5 14zM148 621q109 109 262 109t261 -109q109 -108 109 -261t-109 -262q-108 -108 -261 -108q-152 0 -262 108q-108 110 -108 262q0 153 108 261zM590 140v440q0 9 -3.5 14t-6.5 5.5
t-10 0.5h-200q-58 0 -83 -6q-29 -5 -41 -23.5t-16 -60.5v-300q0 -46 25 -71q12 -10 32 -14q29 -5 83 -5h200q7 0 10 0.5t6.5 5.5t3.5 14z" />
    <glyph glyph-name="A" unicode="A" horiz-adv-x="573" 
d="M440 700l114 -680q2 -13 -2.5 -16.5t-18.5 -3.5h-115q-10 0 -13.5 0.5t-7.5 5t-5 14.5l-22 130h-163l-22 -130q-2 -14 -7 -17t-20 -3h-115h-10t-7 2t-3.5 6t0.5 12l113 680q2 13 7.5 16.5t19.5 3.5h251q10 0 13.5 -0.5t7.5 -5t5 -14.5zM278 580l-48 -290h117l-49 290h-20
z" />
    <glyph glyph-name="B" unicode="B" 
d="M540 600v-110q0 -39 -5 -62q-10 -42 -75 -58v-20q43 -11 63 -33q7 -9 12 -26q5 -21 5 -61v-110q0 -63 -33 -94q-13 -12 -42 -18q-25 -5 -47 -7q-13 -1 -58 -1h-280q-7 0 -10 0.5t-6.5 5.5t-3.5 14v680q0 9 3.5 14t6.5 5.5t10 0.5h280q45 0 58 -1q22 -2 47 -7
q29 -6 42 -18q33 -31 33 -94zM380 160v110q0 9 -3.5 14t-6.5 5.5t-10 0.5h-140v-150h140q7 0 10 0.5t6.5 5.5t3.5 14zM380 450v110q0 9 -3.5 14t-6.5 5.5t-10 0.5h-140v-150h140q7 0 10 0.5t6.5 5.5t3.5 14z" />
    <glyph glyph-name="C" unicode="C" horiz-adv-x="580" 
d="M230 720h120q45 0 58 -1q22 -2 47 -7q29 -6 42 -18q33 -31 33 -94v-140q0 -9 -3.5 -14t-6.5 -5.5t-10 -0.5h-120q-7 0 -10 0.5t-6.5 5.5t-3.5 14v100q0 9 -3.5 14t-6.5 5.5t-10 0.5h-120q-7 0 -10 -0.5t-6.5 -5.5t-3.5 -14v-400q0 -9 3.5 -14t6.5 -5.5t10 -0.5h120
q7 0 10 0.5t6.5 5.5t3.5 14v100q0 9 3.5 14t6.5 5.5t10 0.5h120q7 0 10 -0.5t6.5 -5.5t3.5 -14v-140q0 -63 -33 -94q-13 -12 -42 -18q-25 -5 -47 -7q-13 -1 -58 -1h-120q-45 0 -58 1q-23 2 -48 7q-39 8 -54.5 32.5t-19.5 79.5v480q0 63 33 94q14 12 41 18q25 5 48 7
q13 1 58 1z" />
    <glyph glyph-name="D" unicode="D" 
d="M80 720h280q45 0 58 -1q22 -2 47 -7q29 -6 42 -18q33 -31 33 -94v-480q0 -63 -33 -94q-13 -12 -42 -18q-25 -5 -47 -7q-13 -1 -58 -1h-280q-7 0 -10 0.5t-6.5 5.5t-3.5 14v680q0 9 3.5 14t6.5 5.5t10 0.5zM380 160v400q0 9 -3.5 14t-6.5 5.5t-10 0.5h-140v-440h140
q7 0 10 0.5t6.5 5.5t3.5 14z" />
    <glyph glyph-name="E" unicode="E" horiz-adv-x="550" 
d="M480 580h-260v-150h250q7 0 10 -0.5t6.5 -5.5t3.5 -14v-100q0 -9 -3.5 -14t-6.5 -5.5t-10 -0.5h-250v-150h260q7 0 10 -0.5t6.5 -5.5t3.5 -14v-100q0 -9 -3.5 -14t-6.5 -5.5t-10 -0.5h-400q-7 0 -10 0.5t-6.5 5.5t-3.5 14v680q0 9 3.5 14t6.5 5.5t10 0.5h400q7 0 10 -0.5
t6.5 -5.5t3.5 -14v-100q0 -9 -3.5 -14t-6.5 -5.5t-10 -0.5z" />
    <glyph glyph-name="F" unicode="F" horiz-adv-x="530" 
d="M80 720h400q7 0 10 -0.5t6.5 -5.5t3.5 -14v-100q0 -9 -3.5 -14t-6.5 -5.5t-10 -0.5h-260v-150h250q7 0 10 -0.5t6.5 -5.5t3.5 -14v-100q0 -9 -3.5 -14t-6.5 -5.5t-10 -0.5h-250v-270q0 -9 -3.5 -14t-6.5 -5.5t-10 -0.5h-120q-7 0 -10 0.5t-6.5 5.5t-3.5 14v680
q0 9 3.5 14t6.5 5.5t10 0.5z" />
    <glyph glyph-name="G" unicode="G" horiz-adv-x="580" 
d="M510 470h-120q-7 0 -10 0.5t-6.5 5.5t-3.5 14v70q0 9 -3.5 14t-6.5 5.5t-10 0.5h-120q-7 0 -10 -0.5t-6.5 -5.5t-3.5 -14v-400q0 -9 3.5 -14t6.5 -5.5t10 -0.5h120q7 0 10 0.5t6.5 5.5t3.5 14v110h-80q-7 0 -10 0.5t-6.5 5.5t-3.5 14v100q0 9 3.5 14t6.5 5.5t10 0.5h220
q7 0 10 -0.5t6.5 -5.5t3.5 -14v-270q0 -63 -33 -94q-13 -12 -42 -18q-25 -5 -47 -7q-13 -1 -58 -1h-120q-45 0 -58 1q-23 2 -48 7q-39 8 -54.5 32.5t-19.5 79.5v480q0 63 33 94q14 12 41 18q25 5 48 7q13 1 58 1h120q45 0 58 -1q22 -2 47 -7q29 -6 42 -18q33 -31 33 -94
v-110q0 -9 -3.5 -14t-6.5 -5.5t-10 -0.5z" />
    <glyph glyph-name="H" unicode="H" horiz-adv-x="600" 
d="M400 720h120q7 0 10 -0.5t6.5 -5.5t3.5 -14v-680q0 -9 -3.5 -14t-6.5 -5.5t-10 -0.5h-120q-7 0 -10 0.5t-6.5 5.5t-3.5 14v270h-160v-270q0 -9 -3.5 -14t-6.5 -5.5t-10 -0.5h-120q-7 0 -10 0.5t-6.5 5.5t-3.5 14v680q0 9 3.5 14t6.5 5.5t10 0.5h120q7 0 10 -0.5t6.5 -5.5
t3.5 -14v-270h160v270q0 9 3.5 14t6.5 5.5t10 0.5z" />
    <glyph glyph-name="I" unicode="I" horiz-adv-x="280" 
d="M220 700v-680q0 -9 -3.5 -14t-6.5 -5.5t-10 -0.5h-120q-7 0 -10 0.5t-6.5 5.5t-3.5 14v680q0 9 3.5 14t6.5 5.5t10 0.5h120q7 0 10 -0.5t6.5 -5.5t3.5 -14z" />
    <glyph glyph-name="J" unicode="J" horiz-adv-x="565" 
d="M370 720h120q7 0 10 -0.5t6.5 -5.5t3.5 -14v-580q0 -63 -33 -94q-13 -12 -42 -18q-25 -5 -47 -7q-13 -1 -58 -1h-120q-45 0 -58 1q-23 2 -48 7q-39 8 -54.5 32.5t-19.5 79.5v260q0 9 3.5 14t6.5 5.5t10 0.5h120q7 0 10 -0.5t6.5 -5.5t3.5 -14v-220q0 -9 3.5 -14t6.5 -5.5
t10 -0.5h120q7 0 10 0.5t6.5 5.5t3.5 14v540q0 9 3.5 14t6.5 5.5t10 0.5z" />
    <glyph glyph-name="K" unicode="K" horiz-adv-x="591" 
d="M455 360l114 -340q5 -10 0.5 -14.5t-8.5 -5t-11 -0.5h-120h-8t-6.5 1t-6.5 3t-4.5 6t-4.5 10l-90 270h-90v-270q0 -9 -3.5 -14t-6.5 -5.5t-10 -0.5h-120q-7 0 -10 0.5t-6.5 5.5t-3.5 14v680q0 9 3.5 14t6.5 5.5t10 0.5h120q7 0 10 -0.5t6.5 -5.5t3.5 -14v-270h90l90 270
q5 13 10.5 16.5t19.5 3.5h120q7 0 11 -0.5t8.5 -5t-0.5 -14.5z" />
    <glyph glyph-name="L" unicode="L" horiz-adv-x="510" 
d="M480 0h-400q-7 0 -10 0.5t-6.5 5.5t-3.5 14v680q0 9 3.5 14t6.5 5.5t10 0.5h120q7 0 10 -0.5t6.5 -5.5t3.5 -14v-560h260q7 0 10 -0.5t6.5 -5.5t3.5 -14v-100q0 -9 -3.5 -14t-6.5 -5.5t-10 -0.5z" />
    <glyph glyph-name="M" unicode="M" horiz-adv-x="780" 
d="M470 720h230q7 0 10 -0.5t6.5 -5.5t3.5 -14v-680q0 -9 -3.5 -14t-6.5 -5.5t-10 -0.5h-120q-7 0 -10 0.5t-6.5 5.5t-3.5 14v560h-20l-38 -460q-1 -14 -7 -17t-25 -3h-160q-13 0 -17.5 0.5t-9 5t-5.5 14.5l-38 460h-20v-560q0 -9 -3.5 -14t-6.5 -5.5t-10 -0.5h-120
q-7 0 -10 0.5t-6.5 5.5t-3.5 14v680q0 9 3.5 14t6.5 5.5t10 0.5h230q13 0 17.5 -0.5t9 -5t5.5 -14.5l38 -460h20l38 460q1 14 7 17t25 3z" />
    <glyph glyph-name="N" unicode="N" horiz-adv-x="660" 
d="M460 720h120q7 0 10 -0.5t6.5 -5.5t3.5 -14v-680q0 -9 -3.5 -14t-6.5 -5.5t-10 -0.5h-245q-19 0 -23 8q-1 5 -2 12l-70 560h-20v-560q0 -9 -3.5 -14t-6.5 -5.5t-10 -0.5h-120q-7 0 -10 0.5t-6.5 5.5t-3.5 14v680q0 9 3.5 14t6.5 5.5t10 0.5h245q19 0 23 -8q1 -5 2 -12
l70 -560h20v560q0 9 3.5 14t6.5 5.5t10 0.5z" />
    <glyph glyph-name="O" unicode="O" horiz-adv-x="580" 
d="M230 720h120q45 0 58 -1q22 -2 47 -7q29 -6 42 -18q33 -31 33 -94v-480q0 -63 -33 -94q-13 -12 -42 -18q-25 -5 -47 -7q-13 -1 -58 -1h-120q-45 0 -58 1q-23 2 -48 7q-39 8 -54.5 32.5t-19.5 79.5v480q0 63 33 94q14 12 41 18q25 5 48 7q13 1 58 1zM370 160v400
q0 9 -3.5 14t-6.5 5.5t-10 0.5h-120q-7 0 -10 -0.5t-6.5 -5.5t-3.5 -14v-400q0 -9 3.5 -14t6.5 -5.5t10 -0.5h120q7 0 10 0.5t6.5 5.5t3.5 14z" />
    <glyph glyph-name="P" unicode="P" horiz-adv-x="580" 
d="M80 720h280q45 0 58 -1q22 -2 47 -7q29 -6 42 -18q33 -31 33 -94v-250q0 -63 -33 -94q-13 -12 -42 -18q-25 -5 -47 -7q-13 -1 -58 -1h-140v-210q0 -9 -3.5 -14t-6.5 -5.5t-10 -0.5h-120q-7 0 -10 0.5t-6.5 5.5t-3.5 14v680q0 9 3.5 14t6.5 5.5t10 0.5zM380 390v170
q0 9 -3.5 14t-6.5 5.5t-10 0.5h-140v-210h140q7 0 10 0.5t6.5 5.5t3.5 14z" />
    <glyph glyph-name="Q" unicode="Q" horiz-adv-x="580" 
d="M230 720h120q45 0 58 -1q22 -2 47 -7q29 -6 42 -18q33 -31 33 -94v-480q0 -63 -33 -94q-13 -12 -42 -18q-25 -5 -47 -7q-13 -1 -58 -1v-100q0 -9 -3.5 -14t-6.5 -5.5t-10 -0.5h-80q-7 0 -10 0.5t-6.5 5.5t-3.5 14v100q-45 0 -58 1q-23 2 -48 7q-39 8 -54.5 32.5
t-19.5 79.5v480q0 63 33 94q14 12 41 18q25 5 48 7q13 1 58 1zM370 160v400q0 9 -3.5 14t-6.5 5.5t-10 0.5h-120q-7 0 -10 -0.5t-6.5 -5.5t-3.5 -14v-400q0 -9 3.5 -14t6.5 -5.5t10 -0.5h120q7 0 10 0.5t6.5 5.5t3.5 14z" />
    <glyph glyph-name="R" unicode="R" horiz-adv-x="595" 
d="M475 240l73 -220q6 -10 1 -14.5t-8 -5t-11 -0.5h-120q-10 0 -14 0.5t-8.5 5t-7.5 14.5l-70 210h-90v-210q0 -9 -3.5 -14t-6.5 -5.5t-10 -0.5h-120q-7 0 -10 0.5t-6.5 5.5t-3.5 14v680q0 9 3.5 14t6.5 5.5t10 0.5h280q45 0 58 -1q22 -2 47 -7q29 -6 42 -18q33 -31 33 -94
v-250q0 -89 -65 -110zM380 390v170q0 9 -3.5 14t-6.5 5.5t-10 0.5h-140v-210h140q7 0 10 0.5t6.5 5.5t3.5 14z" />
    <glyph glyph-name="S" unicode="S" horiz-adv-x="580" 
d="M510 470h-120q-7 0 -10 0.5t-6.5 5.5t-3.5 14v70q0 9 -3.5 14t-6.5 5.5t-10 0.5h-120q-7 0 -10 -0.5t-6.5 -5.5t-3.5 -14v-80q0 -12 1 -17t5 -9.5t14 -6.5l120 -30q48 -12 69 -18q64 -18 82 -37q34 -41 29 -122v-120q0 -63 -33 -94q-13 -12 -42 -18q-25 -5 -47 -7
q-13 -1 -58 -1h-120q-45 0 -58 1q-23 2 -48 7q-39 8 -54.5 32.5t-19.5 79.5v110q0 9 3.5 14t6.5 5.5t10 0.5h120q7 0 10 -0.5t6.5 -5.5t3.5 -14v-70q0 -9 3.5 -14t6.5 -5.5t10 -0.5h120q7 0 10 0.5t6.5 5.5t3.5 14v80q0 12 -1 17t-5 9.5t-14 6.5l-120 30l-70 18
q-64 18 -81 37q-34 41 -29 122v120q0 63 33 94q14 12 41 18q25 5 48 7q13 1 58 1h120q45 0 58 -1q22 -2 47 -7q29 -6 42 -18q33 -31 33 -94v-110q0 -9 -3.5 -14t-6.5 -5.5t-10 -0.5z" />
    <glyph glyph-name="T" unicode="T" horiz-adv-x="500" 
d="M30 720h440q7 0 10 -0.5t6.5 -5.5t3.5 -14v-100q0 -9 -3.5 -14t-6.5 -5.5t-10 -0.5h-140v-560q0 -9 -3.5 -14t-6.5 -5.5t-10 -0.5h-120q-7 0 -10 0.5t-6.5 5.5t-3.5 14v560h-140q-7 0 -10 0.5t-6.5 5.5t-3.5 14v100q0 9 3.5 14t6.5 5.5t10 0.5z" />
    <glyph glyph-name="U" unicode="U" 
d="M395 720h120q7 0 10 -0.5t6.5 -5.5t3.5 -14v-580q0 -63 -33 -94q-14 -12 -42 -18q-25 -5 -47 -7q-13 -1 -58 -1h-120q-45 0 -58 1q-23 2 -48 7q-39 8 -54.5 32.5t-19.5 79.5v580q0 9 3.5 14t6.5 5.5t10 0.5h120q7 0 10 -0.5t6.5 -5.5t3.5 -14v-540q0 -9 3.5 -14t6.5 -5.5
t10 -0.5h120q7 0 10 0.5t6.5 5.5t3.5 14v540q0 9 3.5 14t6.5 5.5t10 0.5z" />
    <glyph glyph-name="V" unicode="V" horiz-adv-x="573" 
d="M419 720h115q18 0 20 -7q2 -4 1 -13l-114 -680q-2 -13 -7 -16.5t-19 -3.5h-251q-10 0 -14 0.5t-8 5t-5 14.5l-113 680q-3 13 1.5 16.5t18.5 3.5h115q10 0 14 -0.5t8 -5t5 -14.5l93 -560h20l94 560q2 13 7 16.5t19 3.5z" />
    <glyph glyph-name="W" unicode="W" horiz-adv-x="925" 
d="M758 720h115q10 0 13.5 -0.5t6.5 -5t2 -14.5l-68 -680q-1 -13 -5.5 -16.5t-18.5 -3.5h-249q-10 0 -13.5 0.5t-6.5 5t-4 14.5l-56 560h-20l-56 -560q-1 -13 -5.5 -16.5t-18.5 -3.5h-250q-10 0 -13.5 0.5t-6.5 5t-4 14.5l-68 680q-1 13 3.5 16.5t18.5 3.5h115
q10 0 13.5 -0.5t6.5 -5t4 -14.5l56 -560h20l56 560q1 13 5.5 16.5t18.5 3.5h229q10 0 13.5 -0.5t6.5 -5t4 -14.5l56 -560h20l56 560q1 13 5.5 16.5t18.5 3.5z" />
    <glyph glyph-name="X" unicode="X" horiz-adv-x="581" 
d="M563 700l-113 -340l113 -340q10 -20 -19 -20h-120h-8t-6.5 1t-6.5 3t-4.5 6t-4.5 10l-90 270h-20l-90 -270q-4 -14 -9.5 -17t-20.5 -3h-120q-8 0 -11 0.5t-8 5t1 14.5l113 340l-113 340q-6 10 -1 14.5t8 5t11 0.5h120q10 0 14 -0.5t8.5 -5t7.5 -14.5l90 -270h20l90 270
q5 13 10.5 16.5t19.5 3.5h120q29 0 19 -20z" />
    <glyph glyph-name="Y" unicode="Y" horiz-adv-x="605" 
d="M457 720h120h9t8.5 -2t5 -6t-1.5 -12l-211 -526v-154q0 -9 -3.5 -14t-6.5 -5.5t-10 -0.5h-120q-7 0 -10 0.5t-6.5 5.5t-3.5 14v154l-210 526q0 8 -1.5 12t4.5 6t8.5 2h8.5h120q24 0 32 -20l108 -270h20l108 270q8 20 32 20z" />
    <glyph glyph-name="Z" unicode="Z" horiz-adv-x="560" 
d="M502 490l-302 -330v-20h300q7 0 10 -0.5t6.5 -5.5t3.5 -14v-100q0 -9 -3.5 -14t-6.5 -5.5t-10 -0.5h-440q-7 0 -10 0.5t-6.5 5.5t-3.5 14v160q0 30 18 50l302 330v20h-300q-7 0 -10 0.5t-6.5 5.5t-3.5 14v100q0 9 3.5 14t6.5 5.5t10 0.5h440q7 0 10 -0.5t6.5 -5.5
t3.5 -14v-160q0 -30 -18 -50z" />
    <glyph glyph-name="bracketleft" unicode="[" horiz-adv-x="410" 
d="M360 580h-140v-440h140q7 0 10 -0.5t6.5 -5.5t3.5 -14v-100q0 -9 -3.5 -14t-6.5 -5.5t-10 -0.5h-280q-7 0 -10 0.5t-6.5 5.5t-3.5 14v680q0 9 3.5 14t6.5 5.5t10 0.5h280q7 0 10 -0.5t6.5 -5.5t3.5 -14v-100q0 -9 -3.5 -14t-6.5 -5.5t-10 -0.5z" />
    <glyph glyph-name="backslash" unicode="\" horiz-adv-x="439" 
d="M44 720h120q10 0 14 -0.5t8.5 -5t7.5 -14.5l227 -680q10 -20 -19 -20h-120h-8t-6.5 1t-6.5 3t-4.5 6t-4.5 10l-226 680q-6 10 -1 14.5t8 5t11 0.5z" />
    <glyph glyph-name="bracketright" unicode="]" horiz-adv-x="410" 
d="M190 580h-140q-7 0 -10 0.5t-6.5 5.5t-3.5 14v100q0 9 3.5 14t6.5 5.5t10 0.5h280q7 0 10 -0.5t6.5 -5.5t3.5 -14v-680q0 -9 -3.5 -14t-6.5 -5.5t-10 -0.5h-280q-7 0 -10 0.5t-6.5 5.5t-3.5 14v100q0 9 3.5 14t6.5 5.5t10 0.5h140v440z" />
    <glyph glyph-name="asciicircum" unicode="^" horiz-adv-x="475" 
d="M351 700l106 -320q6 -10 1 -14.5t-8 -5t-11 -0.5h-78h-8t-6.5 1t-6.5 3t-4.5 6t-4.5 10l-80 240h-20l-80 -240q-3 -13 -9.5 -16.5t-20.5 -3.5h-77q-8 0 -11 0.5t-8 5t1 14.5l106 320q5 13 10.5 16.5t19.5 3.5h159h8t6.5 -1t6.5 -3t4.5 -6t4.5 -10z" />
    <glyph glyph-name="underscore" unicode="_" horiz-adv-x="580" 
d="M60 100h460q7 0 10 -0.5t6.5 -5.5t3.5 -14v-60q0 -9 -3.5 -14t-6.5 -5.5t-10 -0.5h-460q-7 0 -10 0.5t-6.5 5.5t-3.5 14v60q0 9 3.5 14t6.5 5.5t10 0.5z" />
    <glyph glyph-name="grave" unicode="`" horiz-adv-x="287" 
d="M59 1000h105q10 0 14 -0.5t8.5 -5t7.5 -14.5l54 -160q5 -10 0.5 -14.5t-8.5 -5t-11 -0.5h-65q-12 0 -17 1t-10 5t-10 14l-80 160q-4 15 -1.5 17.5t13.5 2.5z" />
    <glyph glyph-name="a" unicode="a" 
d="M235 720h120q45 0 58 -1q22 -2 47 -7q28 -6 42 -18q33 -31 33 -94v-580q0 -9 -3.5 -14t-6.5 -5.5t-10 -0.5h-120q-7 0 -10 0.5t-6.5 5.5t-3.5 14v210h-160v-210q0 -9 -3.5 -14t-6.5 -5.5t-10 -0.5h-120q-7 0 -10 0.5t-6.5 5.5t-3.5 14v580q0 63 33 94q14 12 41 18
q25 5 48 7q13 1 58 1zM215 370h160v190q0 9 -3.5 14t-6.5 5.5t-10 0.5h-120q-7 0 -10 -0.5t-6.5 -5.5t-3.5 -14v-190z" />
    <glyph glyph-name="b" unicode="b" 
d="M540 600v-110q0 -39 -5 -62q-10 -42 -75 -58v-20q43 -11 63 -33q7 -9 12 -26q5 -21 5 -61v-110q0 -63 -33 -94q-13 -12 -42 -18q-25 -5 -47 -7q-13 -1 -58 -1h-280q-7 0 -10 0.5t-6.5 5.5t-3.5 14v680q0 9 3.5 14t6.5 5.5t10 0.5h280q45 0 58 -1q22 -2 47 -7
q29 -6 42 -18q33 -31 33 -94zM380 160v110q0 9 -3.5 14t-6.5 5.5t-10 0.5h-140v-150h140q7 0 10 0.5t6.5 5.5t3.5 14zM380 450v110q0 9 -3.5 14t-6.5 5.5t-10 0.5h-140v-150h140q7 0 10 0.5t6.5 5.5t3.5 14z" />
    <glyph glyph-name="c" unicode="c" horiz-adv-x="580" 
d="M230 720h120q45 0 58 -1q22 -2 47 -7q29 -6 42 -18q33 -31 33 -94v-140q0 -9 -3.5 -14t-6.5 -5.5t-10 -0.5h-120q-7 0 -10 0.5t-6.5 5.5t-3.5 14v100q0 9 -3.5 14t-6.5 5.5t-10 0.5h-120q-7 0 -10 -0.5t-6.5 -5.5t-3.5 -14v-400q0 -9 3.5 -14t6.5 -5.5t10 -0.5h120
q7 0 10 0.5t6.5 5.5t3.5 14v100q0 9 3.5 14t6.5 5.5t10 0.5h120q7 0 10 -0.5t6.5 -5.5t3.5 -14v-140q0 -63 -33 -94q-13 -12 -42 -18q-25 -5 -47 -7q-13 -1 -58 -1h-120q-45 0 -58 1q-23 2 -48 7q-39 8 -54.5 32.5t-19.5 79.5v480q0 63 33 94q14 12 41 18q25 5 48 7
q13 1 58 1z" />
    <glyph glyph-name="d" unicode="d" 
d="M80 720h280q45 0 58 -1q22 -2 47 -7q29 -6 42 -18q33 -31 33 -94v-480q0 -63 -33 -94q-13 -12 -42 -18q-25 -5 -47 -7q-13 -1 -58 -1h-280q-7 0 -10 0.5t-6.5 5.5t-3.5 14v680q0 9 3.5 14t6.5 5.5t10 0.5zM380 160v400q0 9 -3.5 14t-6.5 5.5t-10 0.5h-140v-440h140
q7 0 10 0.5t6.5 5.5t3.5 14z" />
    <glyph glyph-name="e" unicode="e" horiz-adv-x="540" 
d="M470 580h-240q-7 0 -10 -0.5t-6.5 -5.5t-3.5 -14v-130h250q7 0 10 -0.5t6.5 -5.5t3.5 -14v-100q0 -9 -3.5 -14t-6.5 -5.5t-10 -0.5h-250v-130q0 -9 3.5 -14t6.5 -5.5t10 -0.5h240q7 0 10 -0.5t6.5 -5.5t3.5 -14v-100q0 -9 -3.5 -14t-6.5 -5.5t-10 -0.5h-240q-45 0 -58 1
q-23 2 -48 7q-39 8 -54.5 32.5t-19.5 79.5v480q0 63 33 94q14 12 41 18q25 5 48 7q13 1 58 1h240q7 0 10 -0.5t6.5 -5.5t3.5 -14v-100q0 -9 -3.5 -14t-6.5 -5.5t-10 -0.5z" />
    <glyph glyph-name="f" unicode="f" horiz-adv-x="525" 
d="M235 720h240q7 0 10 -0.5t6.5 -5.5t3.5 -14v-100q0 -9 -3.5 -14t-6.5 -5.5t-10 -0.5h-240q-7 0 -10 -0.5t-6.5 -5.5t-3.5 -14v-130h250q7 0 10 -0.5t6.5 -5.5t3.5 -14v-100q0 -9 -3.5 -14t-6.5 -5.5t-10 -0.5h-250v-270q0 -9 -3.5 -14t-6.5 -5.5t-10 -0.5h-120
q-7 0 -10 0.5t-6.5 5.5t-3.5 14v580q0 63 33 94q14 12 41 18q25 5 48 7q13 1 58 1z" />
    <glyph glyph-name="g" unicode="g" horiz-adv-x="580" 
d="M510 470h-120q-7 0 -10 0.5t-6.5 5.5t-3.5 14v70q0 9 -3.5 14t-6.5 5.5t-10 0.5h-120q-7 0 -10 -0.5t-6.5 -5.5t-3.5 -14v-400q0 -9 3.5 -14t6.5 -5.5t10 -0.5h120q7 0 10 0.5t6.5 5.5t3.5 14v110h-80q-7 0 -10 0.5t-6.5 5.5t-3.5 14v100q0 9 3.5 14t6.5 5.5t10 0.5h220
q7 0 10 -0.5t6.5 -5.5t3.5 -14v-270q0 -63 -33 -94q-13 -12 -42 -18q-25 -5 -47 -7q-13 -1 -58 -1h-120q-45 0 -58 1q-23 2 -48 7q-39 8 -54.5 32.5t-19.5 79.5v480q0 63 33 94q14 12 41 18q25 5 48 7q13 1 58 1h120q45 0 58 -1q22 -2 47 -7q29 -6 42 -18q33 -31 33 -94
v-110q0 -9 -3.5 -14t-6.5 -5.5t-10 -0.5z" />
    <glyph glyph-name="h" unicode="h" horiz-adv-x="600" 
d="M400 720h120q7 0 10 -0.5t6.5 -5.5t3.5 -14v-680q0 -9 -3.5 -14t-6.5 -5.5t-10 -0.5h-120q-7 0 -10 0.5t-6.5 5.5t-3.5 14v270h-160v-270q0 -9 -3.5 -14t-6.5 -5.5t-10 -0.5h-120q-7 0 -10 0.5t-6.5 5.5t-3.5 14v680q0 9 3.5 14t6.5 5.5t10 0.5h120q7 0 10 -0.5t6.5 -5.5
t3.5 -14v-270h160v270q0 9 3.5 14t6.5 5.5t10 0.5z" />
    <glyph glyph-name="i" unicode="i" horiz-adv-x="280" 
d="M220 700v-680q0 -9 -3.5 -14t-6.5 -5.5t-10 -0.5h-120q-7 0 -10 0.5t-6.5 5.5t-3.5 14v680q0 9 3.5 14t6.5 5.5t10 0.5h120q7 0 10 -0.5t6.5 -5.5t3.5 -14z" />
    <glyph glyph-name="j" unicode="j" horiz-adv-x="505" 
d="M270 0h-240q-7 0 -10 0.5t-6.5 5.5t-3.5 14v100q0 9 3.5 14t6.5 5.5t10 0.5h240q7 0 10 0.5t6.5 5.5t3.5 14v540q0 9 3.5 14t6.5 5.5t10 0.5h120q7 0 10 -0.5t6.5 -5.5t3.5 -14v-580q0 -63 -33 -94q-13 -12 -42 -18q-25 -5 -47 -7q-13 -1 -58 -1z" />
    <glyph glyph-name="k" unicode="k" horiz-adv-x="600" 
d="M540 700v-210q0 -39 -5 -62q-10 -42 -75 -58v-20q43 -11 63 -33q7 -9 12 -26q5 -21 5 -61v-210q0 -9 -3.5 -14t-6.5 -5.5t-10 -0.5h-120q-7 0 -10 0.5t-6.5 5.5t-3.5 14v250q0 9 -3.5 14t-6.5 5.5t-10 0.5h-140v-270q0 -9 -3.5 -14t-6.5 -5.5t-10 -0.5h-120q-7 0 -10 0.5
t-6.5 5.5t-3.5 14v680q0 9 3.5 14t6.5 5.5t10 0.5h120q7 0 10 -0.5t6.5 -5.5t3.5 -14v-270h140q7 0 10 0.5t6.5 5.5t3.5 14v250q0 9 3.5 14t6.5 5.5t10 0.5h120q7 0 10 -0.5t6.5 -5.5t3.5 -14z" />
    <glyph glyph-name="l" unicode="l" horiz-adv-x="505" 
d="M475 0h-240q-45 0 -58 1q-23 2 -48 7q-39 8 -54.5 32.5t-19.5 79.5v580q0 9 3.5 14t6.5 5.5t10 0.5h120q7 0 10 -0.5t6.5 -5.5t3.5 -14v-540q0 -9 3.5 -14t6.5 -5.5t10 -0.5h240q7 0 10 -0.5t6.5 -5.5t3.5 -14v-100q0 -9 -3.5 -14t-6.5 -5.5t-10 -0.5z" />
    <glyph glyph-name="m" unicode="m" horiz-adv-x="830" 
d="M545 720h50q45 0 58 -1q22 -2 47 -7q39 -8 54.5 -32t20.5 -80v-580q0 -9 -3.5 -14t-6.5 -5.5t-10 -0.5h-120q-7 0 -10 0.5t-6.5 5.5t-3.5 14v540q0 9 -3.5 14t-6.5 5.5t-10 0.5h-80q-7 0 -10 -0.5t-6.5 -5.5t-3.5 -14v-540q0 -9 -3.5 -14t-6.5 -5.5t-10 -0.5h-120
q-7 0 -10 0.5t-6.5 5.5t-3.5 14v540q0 9 -3.5 14t-6.5 5.5t-10 0.5h-80q-7 0 -10 -0.5t-6.5 -5.5t-3.5 -14v-540q0 -9 -3.5 -14t-6.5 -5.5t-10 -0.5h-120q-7 0 -10 0.5t-6.5 5.5t-3.5 14v580q0 63 33 94q14 12 41 18q25 5 48 7q13 1 58 1h50q40 0 61 -5q43 -10 59 -75h20
q11 43 33 63q9 8 25 12q23 5 62 5z" />
    <glyph glyph-name="n" unicode="n" 
d="M515 0h-120q-7 0 -10 0.5t-6.5 5.5t-3.5 14v540q0 9 -3.5 14t-6.5 5.5t-10 0.5h-120q-7 0 -10 -0.5t-6.5 -5.5t-3.5 -14v-540q0 -9 -3.5 -14t-6.5 -5.5t-10 -0.5h-120q-7 0 -10 0.5t-6.5 5.5t-3.5 14v580q0 63 33 94q14 12 41 18q25 5 48 7q13 1 58 1h120q45 0 58 -1
q22 -2 47 -7q28 -6 42 -18q33 -31 33 -94v-580q0 -9 -3.5 -14t-6.5 -5.5t-10 -0.5z" />
    <glyph glyph-name="o" unicode="o" horiz-adv-x="580" 
d="M230 720h120q45 0 58 -1q22 -2 47 -7q29 -6 42 -18q33 -31 33 -94v-480q0 -63 -33 -94q-13 -12 -42 -18q-25 -5 -47 -7q-13 -1 -58 -1h-120q-45 0 -58 1q-23 2 -48 7q-39 8 -54.5 32.5t-19.5 79.5v480q0 63 33 94q14 12 41 18q25 5 48 7q13 1 58 1zM370 160v400
q0 9 -3.5 14t-6.5 5.5t-10 0.5h-120q-7 0 -10 -0.5t-6.5 -5.5t-3.5 -14v-400q0 -9 3.5 -14t6.5 -5.5t10 -0.5h120q7 0 10 0.5t6.5 5.5t3.5 14z" />
    <glyph glyph-name="p" unicode="p" horiz-adv-x="580" 
d="M80 720h280q45 0 58 -1q22 -2 47 -7q29 -6 42 -18q33 -31 33 -94v-250q0 -63 -33 -94q-13 -12 -42 -18q-25 -5 -47 -7q-13 -1 -58 -1h-140v-210q0 -9 -3.5 -14t-6.5 -5.5t-10 -0.5h-120q-7 0 -10 0.5t-6.5 5.5t-3.5 14v680q0 9 3.5 14t6.5 5.5t10 0.5zM380 390v170
q0 9 -3.5 14t-6.5 5.5t-10 0.5h-140v-210h140q7 0 10 0.5t6.5 5.5t3.5 14z" />
    <glyph glyph-name="q" unicode="q" horiz-adv-x="580" 
d="M230 720h120q45 0 58 -1q22 -2 47 -7q29 -6 42 -18q33 -31 33 -94v-480q0 -63 -33 -94q-13 -12 -42 -18q-25 -5 -47 -7q-13 -1 -58 -1v-100q0 -9 -3.5 -14t-6.5 -5.5t-10 -0.5h-80q-7 0 -10 0.5t-6.5 5.5t-3.5 14v100q-45 0 -58 1q-23 2 -48 7q-39 8 -54.5 32.5
t-19.5 79.5v480q0 63 33 94q14 12 41 18q25 5 48 7q13 1 58 1zM370 160v400q0 9 -3.5 14t-6.5 5.5t-10 0.5h-120q-7 0 -10 -0.5t-6.5 -5.5t-3.5 -14v-400q0 -9 3.5 -14t6.5 -5.5t10 -0.5h120q7 0 10 0.5t6.5 5.5t3.5 14z" />
    <glyph glyph-name="r" unicode="r" horiz-adv-x="595" 
d="M540 600v-170q0 -39 -5 -62q-10 -42 -75 -58v-20q43 -11 63 -33q7 -9 12 -26q5 -21 5 -61v-150q0 -9 -3.5 -14t-6.5 -5.5t-10 -0.5h-120q-7 0 -10 0.5t-6.5 5.5t-3.5 14v190q0 9 -3.5 14t-6.5 5.5t-10 0.5h-140v-210q0 -9 -3.5 -14t-6.5 -5.5t-10 -0.5h-120q-7 0 -10 0.5
t-6.5 5.5t-3.5 14v680q0 9 3.5 14t6.5 5.5t10 0.5h280q45 0 58 -1q22 -2 47 -7q29 -6 42 -18q33 -31 33 -94zM380 390v170q0 9 -3.5 14t-6.5 5.5t-10 0.5h-140v-210h140q7 0 10 0.5t6.5 5.5t3.5 14z" />
    <glyph glyph-name="s" unicode="s" horiz-adv-x="580" 
d="M510 470h-120q-7 0 -10 0.5t-6.5 5.5t-3.5 14v70q0 9 -3.5 14t-6.5 5.5t-10 0.5h-120q-7 0 -10 -0.5t-6.5 -5.5t-3.5 -14v-80q0 -12 1 -17t5 -9.5t14 -6.5l120 -30q48 -12 69 -18q64 -18 82 -37q34 -41 29 -122v-120q0 -63 -33 -94q-13 -12 -42 -18q-25 -5 -47 -7
q-13 -1 -58 -1h-120q-45 0 -58 1q-23 2 -48 7q-39 8 -54.5 32.5t-19.5 79.5v110q0 9 3.5 14t6.5 5.5t10 0.5h120q7 0 10 -0.5t6.5 -5.5t3.5 -14v-70q0 -9 3.5 -14t6.5 -5.5t10 -0.5h120q7 0 10 0.5t6.5 5.5t3.5 14v80q0 12 -1 17t-5 9.5t-14 6.5l-120 30l-70 18
q-64 18 -81 37q-34 41 -29 122v120q0 63 33 94q14 12 41 18q25 5 48 7q13 1 58 1h120q45 0 58 -1q22 -2 47 -7q29 -6 42 -18q33 -31 33 -94v-110q0 -9 -3.5 -14t-6.5 -5.5t-10 -0.5z" />
    <glyph glyph-name="t" unicode="t" horiz-adv-x="500" 
d="M30 720h440q7 0 10 -0.5t6.5 -5.5t3.5 -14v-100q0 -9 -3.5 -14t-6.5 -5.5t-10 -0.5h-140v-560q0 -9 -3.5 -14t-6.5 -5.5t-10 -0.5h-120q-7 0 -10 0.5t-6.5 5.5t-3.5 14v560h-140q-7 0 -10 0.5t-6.5 5.5t-3.5 14v100q0 9 3.5 14t6.5 5.5t10 0.5z" />
    <glyph glyph-name="u" unicode="u" 
d="M395 720h120q7 0 10 -0.5t6.5 -5.5t3.5 -14v-580q0 -63 -33 -94q-14 -12 -42 -18q-25 -5 -47 -7q-13 -1 -58 -1h-120q-45 0 -58 1q-23 2 -48 7q-39 8 -54.5 32.5t-19.5 79.5v580q0 9 3.5 14t6.5 5.5t10 0.5h120q7 0 10 -0.5t6.5 -5.5t3.5 -14v-540q0 -9 3.5 -14t6.5 -5.5
t10 -0.5h120q7 0 10 0.5t6.5 5.5t3.5 14v540q0 9 3.5 14t6.5 5.5t10 0.5z" />
    <glyph glyph-name="v" unicode="v" horiz-adv-x="573" 
d="M419 720h115q18 0 20 -7q2 -4 1 -13l-114 -680q-2 -13 -7 -16.5t-19 -3.5h-251q-10 0 -14 0.5t-8 5t-5 14.5l-113 680q-3 13 1.5 16.5t18.5 3.5h115q10 0 14 -0.5t8 -5t5 -14.5l93 -560h20l94 560q2 13 7 16.5t19 3.5z" />
    <glyph glyph-name="w" unicode="w" horiz-adv-x="830" 
d="M595 0h-50q-39 0 -62 5q-42 10 -58 75h-20q-11 -43 -33 -63q-9 -7 -26 -12q-21 -5 -61 -5h-50q-45 0 -58 1q-23 2 -48 7q-39 8 -54.5 32.5t-19.5 79.5v580q0 9 3.5 14t6.5 5.5t10 0.5h120q7 0 10 -0.5t6.5 -5.5t3.5 -14v-540q0 -9 3.5 -14t6.5 -5.5t10 -0.5h80
q7 0 10 0.5t6.5 5.5t3.5 14v540q0 9 3.5 14t6.5 5.5t10 0.5h120q7 0 10 -0.5t6.5 -5.5t3.5 -14v-540q0 -9 3.5 -14t6.5 -5.5t10 -0.5h80q7 0 10 0.5t6.5 5.5t3.5 14v540q0 9 3.5 14t6.5 5.5t10 0.5h120q7 0 10 -0.5t6.5 -5.5t3.5 -14v-580q0 -63 -33 -94q-14 -12 -42 -18
q-25 -5 -47 -7q-13 -1 -58 -1z" />
    <glyph glyph-name="x" unicode="x" horiz-adv-x="600" 
d="M540 700v-210q0 -39 -5 -62q-10 -42 -75 -58v-20q43 -11 63 -33q7 -9 12 -26q5 -21 5 -61v-210q0 -9 -3.5 -14t-6.5 -5.5t-10 -0.5h-120q-7 0 -10 0.5t-6.5 5.5t-3.5 14v250q0 9 -3.5 14t-6.5 5.5t-10 0.5h-120q-7 0 -10 -0.5t-6.5 -5.5t-3.5 -14v-250q0 -9 -3.5 -14
t-6.5 -5.5t-10 -0.5h-120q-7 0 -10 0.5t-6.5 5.5t-3.5 14v210q0 40 5 61q10 43 75 59v20q-43 11 -63 33q-8 9 -12 25q-5 23 -5 62v210q0 9 3.5 14t6.5 5.5t10 0.5h120q7 0 10 -0.5t6.5 -5.5t3.5 -14v-250q0 -9 3.5 -14t6.5 -5.5t10 -0.5h120q7 0 10 0.5t6.5 5.5t3.5 14v250
q0 9 3.5 14t6.5 5.5t10 0.5h120q7 0 10 -0.5t6.5 -5.5t3.5 -14z" />
    <glyph glyph-name="y" unicode="y" horiz-adv-x="570" 
d="M385 720h120q7 0 10 -0.5t6.5 -5.5t3.5 -14v-350q0 -63 -33 -94q-12 -12 -37 -18q-22 -5 -42 -7q-11 -1 -48 -1v-210q0 -9 -3.5 -14t-6.5 -5.5t-10 -0.5h-120q-7 0 -10 0.5t-6.5 5.5t-3.5 14v210q-38 0 -49 1q-18 2 -41 7q-35 8 -50.5 33t-19.5 79v350q0 9 3.5 14
t6.5 5.5t10 0.5h120q7 0 10 -0.5t6.5 -5.5t3.5 -14v-310q0 -9 3.5 -14t6.5 -5.5t10 -0.5h120q7 0 10 0.5t6.5 5.5t3.5 14v310q0 9 3.5 14t6.5 5.5t10 0.5z" />
    <glyph glyph-name="z" unicode="z" horiz-adv-x="560" 
d="M502 490l-302 -330v-20h300q7 0 10 -0.5t6.5 -5.5t3.5 -14v-100q0 -9 -3.5 -14t-6.5 -5.5t-10 -0.5h-440q-7 0 -10 0.5t-6.5 5.5t-3.5 14v160q0 30 18 50l302 330v20h-300q-7 0 -10 0.5t-6.5 5.5t-3.5 14v100q0 9 3.5 14t6.5 5.5t10 0.5h440q7 0 10 -0.5t6.5 -5.5
t3.5 -14v-160q0 -30 -18 -50z" />
    <glyph glyph-name="braceleft" unicode="{" horiz-adv-x="470" 
d="M280 560v-70q0 -39 -5 -62q-10 -42 -75 -58v-20q43 -11 63 -33q7 -9 12 -26q5 -21 5 -61v-70q0 -9 3.5 -14t6.5 -5.5t10 -0.5h120q7 0 10 -0.5t6.5 -5.5t3.5 -14v-100q0 -9 -3.5 -14t-6.5 -5.5t-10 -0.5h-120q-45 0 -58 1q-23 2 -48 7q-39 8 -54.5 32.5t-19.5 79.5v150
q0 9 -3.5 14t-6.5 5.5t-10 0.5h-60q-7 0 -10 0.5t-6.5 5.5t-3.5 14v100q0 9 3.5 14t6.5 5.5t10 0.5h60q7 0 10 0.5t6.5 5.5t3.5 14v150q0 63 33 94q14 12 41 18q25 5 48 7q13 1 58 1h120q7 0 10 -0.5t6.5 -5.5t3.5 -14v-100q0 -9 -3.5 -14t-6.5 -5.5t-10 -0.5h-120
q-7 0 -10 -0.5t-6.5 -5.5t-3.5 -14z" />
    <glyph glyph-name="bar" unicode="|" horiz-adv-x="240" 
d="M180 700v-680q0 -9 -3.5 -14t-6.5 -5.5t-10 -0.5h-80q-7 0 -10 0.5t-6.5 5.5t-3.5 14v680q0 9 3.5 14t6.5 5.5t10 0.5h80q7 0 10 -0.5t6.5 -5.5t3.5 -14z" />
    <glyph glyph-name="braceright" unicode="}" horiz-adv-x="470" 
d="M190 490v70q0 9 -3.5 14t-6.5 5.5t-10 0.5h-120q-7 0 -10 0.5t-6.5 5.5t-3.5 14v100q0 9 3.5 14t6.5 5.5t10 0.5h120q45 0 58 -1q22 -2 47 -7q29 -6 42 -18q33 -31 33 -94v-150q0 -9 3.5 -14t6.5 -5.5t10 -0.5h60q7 0 10 -0.5t6.5 -5.5t3.5 -14v-100q0 -9 -3.5 -14
t-6.5 -5.5t-10 -0.5h-60q-7 0 -10 -0.5t-6.5 -5.5t-3.5 -14v-150q0 -63 -33 -94q-13 -12 -42 -18q-25 -5 -47 -7q-13 -1 -58 -1h-120q-7 0 -10 0.5t-6.5 5.5t-3.5 14v100q0 9 3.5 14t6.5 5.5t10 0.5h120q7 0 10 0.5t6.5 5.5t3.5 14v70q0 40 5 61q10 43 75 59v20
q-43 11 -63 33q-8 9 -12 25q-5 23 -5 62z" />
    <glyph glyph-name="asciitilde" unicode="~" horiz-adv-x="560" 
d="M380 520h120q7 0 10 -0.5t6.5 -5.5t3.5 -14v-90q0 -63 -33 -94q-13 -12 -42 -18q-25 -5 -47 -7q-13 -1 -58 -1h-120q-7 0 -10 -0.5t-6.5 -5.5t-3.5 -14v-50q0 -9 -3.5 -14t-6.5 -5.5t-10 -0.5h-120q-7 0 -10 0.5t-6.5 5.5t-3.5 14v90q0 63 33 94q14 12 41 18q25 5 48 7
q13 1 58 1h120q7 0 10 0.5t6.5 5.5t3.5 14v50q0 9 3.5 14t6.5 5.5t10 0.5z" />
    <glyph glyph-name="uni00A0" unicode="&#xa0;" horiz-adv-x="300" 
 />
    <glyph glyph-name="exclamdown" unicode="&#xa1;" horiz-adv-x="280" 
d="M80 340h120q7 0 10 -0.5t6.5 -5.5t3.5 -14v-460q0 -9 -3.5 -14t-6.5 -5.5t-10 -0.5h-120q-7 0 -10 0.5t-6.5 5.5t-3.5 14v460q0 9 3.5 14t6.5 5.5t10 0.5zM204 416q-26 -26 -64 -26t-64 26t-26 64t26 64t64 26t64 -26t26 -64t-26 -64z" />
    <glyph glyph-name="cent" unicode="&#xa2;" horiz-adv-x="580" 
d="M510 440h-120q-7 0 -10 0.5t-6.5 5.5t-3.5 14v100q0 9 -3.5 14t-6.5 5.5t-10 0.5h-120q-7 0 -10 -0.5t-6.5 -5.5t-3.5 -14v-400q0 -9 3.5 -14t6.5 -5.5t10 -0.5h120q7 0 10 0.5t6.5 5.5t3.5 14v100q0 9 3.5 14t6.5 5.5t10 0.5h120q7 0 10 -0.5t6.5 -5.5t3.5 -14v-140
q0 -63 -33 -94q-13 -12 -42 -18q-25 -5 -47 -7q-13 -1 -58 -1v-100q0 -9 -3.5 -14t-6.5 -5.5t-10 -0.5h-80q-7 0 -10 0.5t-6.5 5.5t-3.5 14v100q-45 0 -58 1q-23 2 -48 7q-39 8 -54.5 32.5t-19.5 79.5v480q0 63 33 94q14 12 41 18q25 5 48 7q13 1 58 1v100q0 9 3.5 14
t6.5 5.5t10 0.5h80q7 0 10 -0.5t6.5 -5.5t3.5 -14v-100q45 0 58 -1q22 -2 47 -7q29 -6 42 -18q33 -31 33 -94v-140q0 -9 -3.5 -14t-6.5 -5.5t-10 -0.5z" />
    <glyph glyph-name="sterling" unicode="&#xa3;" 
d="M530 470h-120q-7 0 -10 0.5t-6.5 5.5t-3.5 14v70q0 9 -3.5 14t-6.5 5.5t-10 0.5h-100q-7 0 -10 -0.5t-6.5 -5.5t-3.5 -14v-170h80q7 0 10 -0.5t6.5 -5.5t3.5 -14v-60q0 -9 -3.5 -14t-6.5 -5.5t-10 -0.5h-80v-150h280q7 0 10 -0.5t6.5 -5.5t3.5 -14v-100q0 -9 -3.5 -14
t-6.5 -5.5t-10 -0.5h-480q-7 0 -10 0.5t-6.5 5.5t-3.5 14v100q0 9 3.5 14t6.5 5.5t10 0.5h40v150h-40q-7 0 -10 0.5t-6.5 5.5t-3.5 14v60q0 9 3.5 14t6.5 5.5t10 0.5h40v210q0 63 33 94q14 12 41 18q25 5 48 7q13 1 58 1h100q45 0 58 -1q22 -2 47 -7q29 -6 42 -18
q33 -31 33 -94v-110q0 -9 -3.5 -14t-6.5 -5.5t-10 -0.5z" />
    <glyph glyph-name="currency" unicode="&#xa4;" horiz-adv-x="664" 
d="M572 643l57 -57q14 -14 0 -28l-69 -69q36 -59 36 -129t-36 -129l69 -69q14 -14 0 -28l-57 -57q-14 -14 -28 0l-69 69q-59 -36 -129 -36t-129 36l-69 -69q-14 -14 -28 0l-57 57q-14 14 0 28l69 69q-36 59 -36 129t36 129l-69 69q-14 14 0 28l57 57q14 14 28 0l69 -69
q59 36 129 36t129 -36l69 69q14 14 28 0zM247 261q41 -41 99 -41t99 41t41 99t-41 99t-99 41t-99 -41t-41 -99t41 -99z" />
    <glyph glyph-name="yen" unicode="&#xa5;" horiz-adv-x="605" 
d="M87 290h440q7 0 10 -0.5t6.5 -5.5t3.5 -14v-60q0 -9 -3.5 -14t-6.5 -5.5t-10 -0.5h-140v-170q0 -9 -3.5 -14t-6.5 -5.5t-10 -0.5h-120q-7 0 -10 0.5t-6.5 5.5t-3.5 14v170h-140q-7 0 -10 0.5t-6.5 5.5t-3.5 14v60q0 9 3.5 14t6.5 5.5t10 0.5zM457 720h120h9t8.5 -2t5 -6
t-1.5 -12l-108 -270h37q7 0 10 -0.5t6.5 -5.5t3.5 -14v-60q0 -9 -3.5 -14t-6.5 -5.5t-10 -0.5h-440q-7 0 -10 0.5t-6.5 5.5t-3.5 14v60q0 9 3.5 14t6.5 5.5t10 0.5h38l-108 270q0 8 -1.5 12t4.5 6t8.5 2h8.5h120q24 0 32 -20l108 -270h20l108 270q8 20 32 20z" />
    <glyph glyph-name="brokenbar" unicode="&#xa6;" horiz-adv-x="240" 
d="M80 280h80q7 0 10 -0.5t6.5 -5.5t3.5 -14v-240q0 -9 -3.5 -14t-6.5 -5.5t-10 -0.5h-80q-7 0 -10 0.5t-6.5 5.5t-3.5 14v240q0 9 3.5 14t6.5 5.5t10 0.5zM80 720h80q7 0 10 -0.5t6.5 -5.5t3.5 -14v-240q0 -9 -3.5 -14t-6.5 -5.5t-10 -0.5h-80q-7 0 -10 0.5t-6.5 5.5
t-3.5 14v240q0 9 3.5 14t6.5 5.5t10 0.5z" />
    <glyph glyph-name="section" unicode="&#xa7;" horiz-adv-x="580" 
d="M510 510h-120q-7 0 -10 0.5t-6.5 5.5t-3.5 14v30q0 9 -3.5 14t-6.5 5.5t-10 0.5h-120q-7 0 -10 -0.5t-6.5 -5.5t-3.5 -14v-30q0 -12 1 -17t5 -9.5t14 -6.5l120 -30q48 -12 69 -18q64 -18 82 -37q34 -41 29 -122v-30q0 -9 -3.5 -14t-6.5 -5.5t-10 -0.5h-120q-7 0 -10 0.5
t-6.5 5.5t-3.5 14v30q0 12 -1 17t-5 9.5t-14 6.5l-120 30l-70 18q-64 18 -81 37q-34 41 -29 122v70q0 63 33 94q14 12 41 18q25 5 48 7q13 1 58 1h120q45 0 58 -1q22 -2 47 -7q29 -6 42 -18q33 -31 33 -94v-70q0 -9 -3.5 -14t-6.5 -5.5t-10 -0.5zM230 237l120 -30
q48 -12 69 -18q64 -18 82 -37q34 -41 29 -122v-70q0 -63 -33 -94q-13 -12 -42 -18q-25 -5 -47 -7q-13 -1 -58 -1h-120q-45 0 -58 1q-23 2 -48 7q-39 8 -54.5 32.5t-19.5 79.5v70q0 9 3.5 14t6.5 5.5t10 0.5h120q7 0 10 -0.5t6.5 -5.5t3.5 -14v-30q0 -9 3.5 -14t6.5 -5.5
t10 -0.5h120q7 0 10 0.5t6.5 5.5t3.5 14v30q0 12 -1 17t-5 9.5t-14 6.5l-120 30l-70 18q-64 18 -81 37q-34 41 -29 122v30q0 9 3.5 14t6.5 5.5t10 0.5h120q7 0 10 -0.5t6.5 -5.5t3.5 -14v-30q0 -12 1 -17t5 -9.5t14 -6.5z" />
    <glyph glyph-name="dieresis" unicode="&#xa8;" horiz-adv-x="400" 
d="M60 909q21 21 50 21t49 -21q21 -20 21 -49t-21 -50q-20 -20 -49 -20t-50 20q-20 21 -20 50t20 49zM240 909q21 21 50 21t49 -21q21 -20 21 -49t-21 -50q-20 -20 -49 -20t-50 20q-20 21 -20 50t20 49z" />
    <glyph glyph-name="copyright" unicode="&#xa9;" horiz-adv-x="820" 
d="M148 621q109 109 262 109t261 -109q109 -108 109 -261t-109 -262q-108 -108 -261 -108q-152 0 -262 108q-108 110 -108 262q0 153 108 261zM590 430v80q0 47 -26 71q-8 9 -31 13q-25 6 -83 6h-80q-58 0 -83 -6q-29 -5 -41 -23.5t-16 -60.5v-300q0 -46 25 -71
q12 -10 32 -14q29 -5 83 -5h80q54 0 83 5q29 7 41 25.5t16 59.5v80q0 9 -3.5 14t-6.5 5.5t-10 0.5h-80q-7 0 -10 -0.5t-6.5 -5.5t-3.5 -14v-50q0 -9 -3.5 -14t-6.5 -5.5t-10 -0.5h-80q-7 0 -10 0.5t-6.5 5.5t-3.5 14v240q0 9 3.5 14t6.5 5.5t10 0.5h80q7 0 10 -0.5t6.5 -5.5
t3.5 -14v-50q0 -9 3.5 -14t6.5 -5.5t10 -0.5h80q7 0 10 0.5t6.5 5.5t3.5 14z" />
    <glyph glyph-name="ordfeminine" unicode="&#xaa;" horiz-adv-x="470" 
d="M190 720h200q7 0 10 -0.5t6.5 -5.5t3.5 -14v-440q0 -9 -3.5 -14t-6.5 -5.5t-10 -0.5h-200q-54 0 -83 5q-29 7 -41 25.5t-16 59.5v300q0 46 25 71q10 9 32 13q25 6 83 6zM190 340h100v280h-100q-7 0 -10 -0.5t-6.5 -5.5t-3.5 -14v-240q0 -9 3.5 -14t6.5 -5.5t10 -0.5z" />
    <glyph glyph-name="guillemotleft" unicode="&#xab;" horiz-adv-x="614" 
d="M324 580l-110 -220l110 -220q8 -10 4.5 -14.5t-6.5 -5t-10 -0.5h-130q-12 0 -17 1t-10 5t-10 14l-90 180q-15 30 -15 40t15 40l90 180q7 14 13 17t24 3h130q7 0 10 -0.5t6.5 -5t-4.5 -14.5zM570 580l-110 -220l110 -220q8 -10 4.5 -14.5t-6.5 -5t-10 -0.5h-130
q-12 0 -17 1t-10 5t-10 14l-90 180q-15 30 -15 40t15 40l90 180q7 14 13 17t24 3h130q7 0 10 -0.5t6.5 -5t-4.5 -14.5z" />
    <glyph glyph-name="logicalnot" unicode="&#xac;" horiz-adv-x="560" 
d="M60 480h440q7 0 10 -0.5t6.5 -5.5t3.5 -14v-240q0 -9 -3.5 -14t-6.5 -5.5t-10 -0.5h-120q-7 0 -10 0.5t-6.5 5.5t-3.5 14v120h-300q-7 0 -10 0.5t-6.5 5.5t-3.5 14v100q0 9 3.5 14t6.5 5.5t10 0.5z" />
    <glyph glyph-name="uni00AD" unicode="&#xad;" horiz-adv-x="400" 
d="M60 430h280q7 0 10 -0.5t6.5 -5.5t3.5 -14v-100q0 -9 -3.5 -14t-6.5 -5.5t-10 -0.5h-280q-7 0 -10 0.5t-6.5 5.5t-3.5 14v100q0 9 3.5 14t6.5 5.5t10 0.5z" />
    <glyph glyph-name="registered" unicode="&#xae;" horiz-adv-x="820" 
d="M350 500h100q7 0 10 -0.5t6.5 -5.5t3.5 -14v-90q0 -9 -3.5 -14t-6.5 -5.5t-10 -0.5h-100v130zM148 621q109 109 262 109t261 -109q109 -108 109 -261t-109 -262q-108 -108 -261 -108q-152 0 -262 108q-108 110 -108 262q0 153 108 261zM590 420v90q0 47 -26 71
q-8 9 -31 13q-25 6 -83 6h-200q-7 0 -10 -0.5t-6.5 -5.5t-3.5 -14v-440q0 -9 3.5 -14t6.5 -5.5t10 -0.5h80q7 0 10 0.5t6.5 5.5t3.5 14v130h100q7 0 10 -0.5t6.5 -5.5t3.5 -14v-110q0 -9 3.5 -14t6.5 -5.5t10 -0.5h80q7 0 10 0.5t6.5 5.5t3.5 14v80q0 36 -7 53
q-10 27 -53 37v20q42 10 53 36q7 19 7 54z" />
    <glyph glyph-name="overscore" unicode="&#xaf;" horiz-adv-x="420" 
d="M60 900h300q7 0 10 -0.5t6.5 -5.5t3.5 -14v-60q0 -9 -3.5 -14t-6.5 -5.5t-10 -0.5h-300q-7 0 -10 0.5t-6.5 5.5t-3.5 14v60q0 9 3.5 14t6.5 5.5t10 0.5z" />
    <glyph glyph-name="degree" unicode="&#xb0;" horiz-adv-x="580" 
d="M113 657q73 73 177 73t177 -73t73 -177t-73 -177t-177 -73t-177 73t-73 177t73 177zM191 381q41 -41 99 -41t99 41t41 99t-41 99t-99 41t-99 -41t-41 -99t41 -99z" />
    <glyph glyph-name="plusminus" unicode="&#xb1;" horiz-adv-x="560" 
d="M360 520h140q7 0 10 -0.5t6.5 -5.5t3.5 -14v-100q0 -9 -3.5 -14t-6.5 -5.5t-10 -0.5h-140v-100q0 -9 -3.5 -14t-6.5 -5.5t-10 -0.5h-120q-7 0 -10 0.5t-6.5 5.5t-3.5 14v100h-140q-7 0 -10 0.5t-6.5 5.5t-3.5 14v100q0 9 3.5 14t6.5 5.5t10 0.5h140v100q0 9 3.5 14
t6.5 5.5t10 0.5h120q7 0 10 -0.5t6.5 -5.5t3.5 -14v-100zM60 220h440q7 0 10 -0.5t6.5 -5.5t3.5 -14v-100q0 -9 -3.5 -14t-6.5 -5.5t-10 -0.5h-440q-7 0 -10 0.5t-6.5 5.5t-3.5 14v100q0 9 3.5 14t6.5 5.5t10 0.5z" />
    <glyph glyph-name="twosuperior" unicode="&#xb2;" horiz-adv-x="465" 
d="M275 428l-80 -20q-14 -4 -17 -8t-3 -20v-40h220q7 0 10 -0.5t6.5 -5.5t3.5 -14v-60q0 -9 -3.5 -14t-6.5 -5.5t-10 -0.5h-320q-7 0 -10 0.5t-6.5 5.5t-3.5 14v119q0 65 24 88q22 21 116 44l80 20q14 4 17 8.5t3 20.5v40q0 9 -3.5 14t-6.5 5.5t-10 0.5h-80q-7 0 -10 -0.5
t-6.5 -5.5t-3.5 -14v-30q0 -9 -3.5 -14t-6.5 -5.5t-10 -0.5h-80q-7 0 -10 0.5t-6.5 5.5t-3.5 14v60q0 46 25 71q10 9 32 13q25 6 83 6h80q58 0 83 -6q29 -5 41 -24t16 -60v-70q0 -66 -24 -88q-25 -22 -116 -44z" />
    <glyph glyph-name="threesuperior" unicode="&#xb3;" horiz-adv-x="460" 
d="M410 630v-50q0 -35 -7 -54q-11 -26 -53 -36v-20q43 -10 53 -37q7 -17 7 -53v-50q0 -47 -26 -71q-10 -10 -31 -14q-29 -5 -83 -5h-80q-54 0 -83 5q-29 7 -41 25.5t-16 59.5v60q0 9 3.5 14t6.5 5.5t10 0.5h80q7 0 10 -0.5t6.5 -5.5t3.5 -14v-30q0 -9 3.5 -14t6.5 -5.5
t10 -0.5h80q7 0 10 0.5t6.5 5.5t3.5 14v50q0 9 -3.5 14t-6.5 5.5t-10 0.5h-80q-7 0 -10 0.5t-6.5 5.5t-3.5 14v60q0 9 3.5 14t6.5 5.5t10 0.5h80q7 0 10 0.5t6.5 5.5t3.5 14v50q0 9 -3.5 14t-6.5 5.5t-10 0.5h-80q-7 0 -10 -0.5t-6.5 -5.5t-3.5 -14v-30q0 -9 -3.5 -14
t-6.5 -5.5t-10 -0.5h-80q-7 0 -10 0.5t-6.5 5.5t-3.5 14v60q0 46 25 71q10 9 32 13q25 6 83 6h80q58 0 83 -6q29 -5 41 -24t16 -60z" />
    <glyph glyph-name="acute" unicode="&#xb4;" horiz-adv-x="286" 
d="M129 1000h105q7 0 10 -0.5t6.5 -5t-4.5 -14.5l-80 -160q-7 -14 -13 -17t-24 -3h-65q-8 0 -11 0.5t-8 5t1 14.5l53 160q5 13 10.5 16.5t19.5 3.5z" />
    <glyph glyph-name="mu" unicode="&#xb5;" horiz-adv-x="575" 
d="M380 540h120q7 0 10 -0.5t6.5 -5.5t3.5 -14v-400q0 -63 -33 -94q-13 -12 -42 -18q-25 -5 -47 -7q-13 -1 -58 -1h-120v-140q0 -9 -3.5 -14t-6.5 -5.5t-10 -0.5h-120q-7 0 -10 0.5t-6.5 5.5t-3.5 14v660q0 9 3.5 14t6.5 5.5t10 0.5h120q7 0 10 -0.5t6.5 -5.5t3.5 -14v-380
h120q7 0 10 0.5t6.5 5.5t3.5 14v360q0 9 3.5 14t6.5 5.5t10 0.5z" />
    <glyph glyph-name="paragraph" unicode="&#xb6;" horiz-adv-x="620" 
d="M460 720h80q7 0 10 -0.5t6.5 -5.5t3.5 -14v-840q0 -9 -3.5 -14t-6.5 -5.5t-10 -0.5h-80q-7 0 -10 0.5t-6.5 5.5t-3.5 14v840q0 9 3.5 14t6.5 5.5t10 0.5zM220 720h100q7 0 10 -0.5t6.5 -5.5t3.5 -14v-840q0 -9 -3.5 -14t-6.5 -5.5t-10 -0.5h-80q-7 0 -10 0.5t-6.5 5.5
t-3.5 14v340q-45 0 -58 1q-23 2 -48 7q-39 8 -54.5 32.5t-19.5 79.5v280q0 63 33 94q14 12 41 18q25 5 48 7q13 1 58 1z" />
    <glyph glyph-name="middot" unicode="&#xb7;" horiz-adv-x="260" 
d="M66 424q26 26 64 26t64 -26t26 -64t-26 -64t-64 -26t-64 26t-26 64t26 64z" />
    <glyph glyph-name="cedilla" unicode="&#xb8;" horiz-adv-x="400" 
d="M200 -40h20q54 0 83 -5q29 -7 41 -25.5t16 -59.5v-80q0 -47 -26 -71q-8 -9 -31 -13q-25 -6 -83 -6h-160q-7 0 -10 0.5t-6.5 5.5t-3.5 14v60q0 9 3.5 14t6.5 5.5t10 0.5h160q7 0 10 0.5t6.5 5.5t3.5 14v20q0 9 -3.5 14t-6.5 5.5t-10 0.5h-120q-7 0 -10 0.5t-6.5 5.5
t-3.5 14v100q0 9 3.5 14t6.5 5.5t10 0.5h80q7 0 10 -0.5t6.5 -5.5t3.5 -14v-20z" />
    <glyph glyph-name="onesuperior" unicode="&#xb9;" horiz-adv-x="280" 
d="M40 720h160q7 0 10 -0.5t6.5 -5.5t3.5 -14v-440q0 -9 -3.5 -14t-6.5 -5.5t-10 -0.5h-80q-7 0 -10 0.5t-6.5 5.5t-3.5 14v360h-60q-7 0 -10 0.5t-6.5 5.5t-3.5 14v60q0 9 3.5 14t6.5 5.5t10 0.5z" />
    <glyph glyph-name="ordmasculine" unicode="&#xba;" horiz-adv-x="460" 
d="M190 720h80q58 0 83 -6q29 -5 41 -24t16 -60v-300q0 -47 -26 -71q-10 -10 -31 -14q-29 -5 -83 -5h-80q-54 0 -83 5q-29 7 -41 25.5t-16 59.5v300q0 46 25 71q10 9 32 13q25 6 83 6zM290 360v240q0 9 -3.5 14t-6.5 5.5t-10 0.5h-80q-7 0 -10 -0.5t-6.5 -5.5t-3.5 -14v-240
q0 -9 3.5 -14t6.5 -5.5t10 -0.5h80q7 0 10 0.5t6.5 5.5t3.5 14z" />
    <glyph glyph-name="guillemotright" unicode="&#xbb;" horiz-adv-x="614" 
d="M293 140l110 220l-110 220q-8 10 -4.5 14.5t6.5 5t10 0.5h129q12 0 17 -1t10.5 -5t10.5 -14l90 -180q15 -30 15 -40t-15 -40l-90 -180q-6 -14 -13 -17t-25 -3h-129q-7 0 -10 0.5t-6.5 5t4.5 14.5zM47 140l110 220l-110 220q-4 15 -1.5 17.5t13.5 2.5h130q12 0 17 -1
t10 -5t10 -14l90 -180q15 -30 15 -40t-15 -40l-90 -180q-7 -14 -13 -17t-24 -3h-130q-11 0 -13.5 2.5t1.5 17.5z" />
    <glyph glyph-name="onequarter" unicode="&#xbc;" horiz-adv-x="960" 
d="M540 720h85q12 0 14 -2.5t-2 -17.5l-340 -680q-7 -14 -13 -17t-24 -3h-85q-12 0 -14 2.5t2 17.5l340 680q7 14 13 17t24 3zM800 360h80q7 0 10 -0.5t6.5 -5.5t3.5 -14v-320q0 -9 -3.5 -14t-6.5 -5.5t-10 -0.5h-80q-7 0 -10 0.5t-6.5 5.5t-3.5 14v70h-240q-7 0 -10 0.5
t-6.5 5.5t-3.5 14v100q0 34 16 60l114 190q8 13 14.5 16.5t20.5 3.5h85h9t7.5 -1t6.5 -3t0.5 -6t-3.5 -10l-150 -250v-20h140v150q0 9 3.5 14t6.5 5.5t10 0.5zM220 700v-440q0 -9 -3.5 -14t-6.5 -5.5t-10 -0.5h-80q-7 0 -10 0.5t-6.5 5.5t-3.5 14v360h-60q-7 0 -10 0.5
t-6.5 5.5t-3.5 14v60q0 9 3.5 14t6.5 5.5t10 0.5h160q7 0 10 -0.5t6.5 -5.5t3.5 -14z" />
    <glyph glyph-name="onehalf" unicode="&#xbd;" horiz-adv-x="970" 
d="M540 720h85q12 0 14 -2.5t-2 -17.5l-340 -680q-7 -14 -13 -17t-24 -3h-85q-12 0 -14 2.5t2 17.5l340 680q7 14 13 17t24 3zM780 188l-80 -20q-14 -4 -17 -8t-3 -20v-40h220q7 0 10 -0.5t6.5 -5.5t3.5 -14v-60q0 -9 -3.5 -14t-6.5 -5.5t-10 -0.5h-320q-7 0 -10 0.5
t-6.5 5.5t-3.5 14v119q0 65 24 88q22 21 116 44l80 20q14 4 17 8.5t3 20.5v40q0 9 -3.5 14t-6.5 5.5t-10 0.5h-80q-7 0 -10 -0.5t-6.5 -5.5t-3.5 -14v-30q0 -9 -3.5 -14t-6.5 -5.5t-10 -0.5h-80q-7 0 -10 0.5t-6.5 5.5t-3.5 14v60q0 46 25 71q10 9 32 13q25 6 83 6h80
q58 0 83 -6q29 -5 41 -23.5t16 -60.5v-70q0 -66 -24 -88q-25 -22 -116 -44zM220 700v-440q0 -9 -3.5 -14t-6.5 -5.5t-10 -0.5h-80q-7 0 -10 0.5t-6.5 5.5t-3.5 14v360h-60q-7 0 -10 0.5t-6.5 5.5t-3.5 14v60q0 9 3.5 14t6.5 5.5t10 0.5h160q7 0 10 -0.5t6.5 -5.5t3.5 -14z
" />
    <glyph glyph-name="threequarters" unicode="&#xbe;" horiz-adv-x="1130" 
d="M710 720h85q12 0 14 -2.5t-2 -17.5l-340 -680q-7 -14 -13 -17t-24 -3h-85q-12 0 -14 2.5t2 17.5l340 680q7 14 13 17t24 3zM410 380v-50q0 -47 -26 -71q-10 -10 -31 -14q-29 -5 -83 -5h-80q-54 0 -83 5q-29 7 -41 25.5t-16 59.5v60q0 9 3.5 14t6.5 5.5t10 0.5h80
q7 0 10 -0.5t6.5 -5.5t3.5 -14v-30q0 -9 3.5 -14t6.5 -5.5t10 -0.5h80q7 0 10 0.5t6.5 5.5t3.5 14v50q0 9 -3.5 14t-6.5 5.5t-10 0.5h-80q-7 0 -10 0.5t-6.5 5.5t-3.5 14v60q0 9 3.5 14t6.5 5.5t10 0.5h80q7 0 10 0.5t6.5 5.5t3.5 14v50q0 9 -3.5 14t-6.5 5.5t-10 0.5h-80
q-7 0 -10 -0.5t-6.5 -5.5t-3.5 -14v-30q0 -9 -3.5 -14t-6.5 -5.5t-10 -0.5h-80q-7 0 -10 0.5t-6.5 5.5t-3.5 14v60q0 46 25 71q10 9 32 13q25 6 83 6h80q58 0 83 -6q29 -5 41 -24t16 -60v-50q0 -35 -7 -54q-11 -26 -53 -36v-20q43 -10 53 -37q7 -17 7 -53zM970 360h80
q7 0 10 -0.5t6.5 -5.5t3.5 -14v-320q0 -9 -3.5 -14t-6.5 -5.5t-10 -0.5h-80q-7 0 -10 0.5t-6.5 5.5t-3.5 14v70h-240q-7 0 -10 0.5t-6.5 5.5t-3.5 14v100q0 34 16 60l114 190q8 13 14.5 16.5t20.5 3.5h85h9t7.5 -1t6.5 -3t0.5 -6t-3.5 -10l-150 -250v-20h140v150q0 9 3.5 14
t6.5 5.5t10 0.5z" />
    <glyph glyph-name="questiondown" unicode="&#xbf;" horiz-adv-x="520" 
d="M320 -160h-100q-45 0 -58 1q-23 2 -48 7q-39 8 -54.5 32.5t-19.5 79.5v190q0 63 33 94q14 12 41 18q25 5 48 7q13 1 58 1v50q0 9 3.5 14t6.5 5.5t10 0.5h100q7 0 10 -0.5t6.5 -5.5t3.5 -14v-150q0 -9 -3.5 -14t-6.5 -5.5t-10 -0.5h-120q-7 0 -10 -0.5t-6.5 -5.5t-3.5 -14
v-130q0 -9 3.5 -14t6.5 -5.5t10 -0.5h100q7 0 10 0.5t6.5 5.5t3.5 14v70q0 9 3.5 14t6.5 5.5t10 0.5h120q7 0 10 -0.5t6.5 -5.5t3.5 -14v-110q0 -63 -33 -94q-13 -12 -42 -18q-25 -5 -47 -7q-13 -1 -58 -1zM354 416q-26 -26 -64 -26t-64 26t-26 64t26 64t64 26t64 -26
t26 -64t-26 -64z" />
    <glyph glyph-name="Agrave" unicode="&#xc0;" horiz-adv-x="573" 
d="M23 20l113 680q2 13 7.5 16.5t19.5 3.5h251q10 0 13.5 -0.5t7.5 -5t5 -14.5l114 -680q2 -13 -2.5 -16.5t-18.5 -3.5h-115q-10 0 -13.5 0.5t-7.5 5t-5 14.5l-22 130h-163l-22 -130q-2 -14 -7 -17t-20 -3h-115h-10t-7 2t-3.5 6t0.5 12zM230 290h117l-49 290h-20zM341 759
h-46q-26 0 -33 13l-89 102q-9 14 8 14h88h4q18 0 24 -13l58 -103q4 -9 0 -11t-14 -2z" />
    <glyph glyph-name="Aacute" unicode="&#xc1;" horiz-adv-x="573" 
d="M440 700l114 -680q2 -13 -2.5 -16.5t-18.5 -3.5h-115q-10 0 -13.5 0.5t-7.5 5t-5 14.5l-22 130h-163l-22 -130q-2 -14 -7 -17t-20 -3h-115h-10t-7 2t-3.5 6t0.5 12l113 680q2 13 7.5 16.5t19.5 3.5h251q10 0 13.5 -0.5t7.5 -5t5 -14.5zM278 580l-48 -290h117l-49 290h-20
zM303 759h-46q-7 0 -9.5 0.5t-5.5 3.5t1 9l58 103q3 7 8 10t7 3h13h88q17 0 8 -14l-89 -102q-7 -13 -33 -13z" />
    <glyph glyph-name="Acircumflex" unicode="&#xc2;" horiz-adv-x="573" 
d="M440 700l114 -680q2 -13 -2.5 -16.5t-18.5 -3.5h-115q-10 0 -13.5 0.5t-7.5 5t-5 14.5l-22 130h-163l-22 -130q-2 -14 -7 -17t-20 -3h-115h-10t-7 2t-3.5 6t0.5 12l113 680q2 13 7.5 16.5t19.5 3.5h251q10 0 13.5 -0.5t7.5 -5t5 -14.5zM278 580l-48 -290h117l-49 290h-20
zM217 759h-65q-18 0 -10 15q77 110 82 112q6 2 18 2h88q10 0 13 -1q4 0 7 -3q2 -1 80 -110q8 -15 -10 -15h-65q-10 0 -17 4q-9 5 -53 51q-45 -49 -52 -52t-16 -3z" />
    <glyph glyph-name="Atilde" unicode="&#xc3;" horiz-adv-x="573" 
d="M440 700l114 -680q2 -13 -2.5 -16.5t-18.5 -3.5h-115q-10 0 -13.5 0.5t-7.5 5t-5 14.5l-22 130h-163l-22 -130q-2 -14 -7 -17t-20 -3h-115h-10t-7 2t-3.5 6t0.5 12l113 680q2 13 7.5 16.5t19.5 3.5h251q10 0 13.5 -0.5t7.5 -5t5 -14.5zM278 580l-48 -290h117l-49 290h-20
zM217 762l-51 19q-14 7 -9 19l14 41q16 48 56 43q17 -2 38 -10q2 -1 17 -6l42 -17q8 0 11 7q5 15 7 20q3 9 8.5 10.5t11.5 -1.5l52 -19q13 -8 8 -19q-9 -27 -13 -38q-12 -26 -25 -37t-33 -9q-18 2 -38 10q-10 4 -16 6l-42 17q-7 0 -11 -7q-5 -15 -7 -20q-3 -11 -20 -9z" />
    <glyph glyph-name="Adieresis" unicode="&#xc4;" horiz-adv-x="573" 
d="M440 700l114 -680q2 -13 -2.5 -16.5t-18.5 -3.5h-115q-10 0 -13.5 0.5t-7.5 5t-5 14.5l-22 130h-163l-22 -130q-2 -14 -7 -17t-20 -3h-115h-10t-7 2t-3.5 6t0.5 12l113 680q2 13 7.5 16.5t19.5 3.5h251q10 0 13.5 -0.5t7.5 -5t5 -14.5zM278 580l-48 -290h117l-49 290h-20
zM427 810q-20 -20 -49 -20t-50 20q-20 21 -20 50t20 49q21 21 50 21t49 -21q21 -20 21 -49t-21 -50zM247 810q-20 -20 -49 -20t-50 20q-20 21 -20 50t20 49q21 21 50 21t49 -21q21 -20 21 -49t-21 -50z" />
    <glyph glyph-name="Aring" unicode="&#xc5;" horiz-adv-x="573" 
d="M440 700l114 -680q2 -13 -2.5 -16.5t-18.5 -3.5h-115q-10 0 -13.5 0.5t-7.5 5t-5 14.5l-22 130h-163l-22 -130q-2 -14 -7 -17t-20 -3h-115h-10t-7 2t-3.5 6t0.5 12l113 680q2 13 7.5 16.5t19.5 3.5h251q10 0 13.5 -0.5t7.5 -5t5 -14.5zM278 580l-48 -290h117l-49 290h-20
zM387 831q-41 -41 -99 -41t-99 41t-41 99t41 99t99 41t99 -41t41 -99t-41 -99zM316 958q-16 18 -38.5 10t-28 -28t10.5 -38t38.5 -10t28 28t-10.5 38z" />
    <glyph glyph-name="AE" unicode="&#xc6;" horiz-adv-x="877" 
d="M811 580h-260v-150h250q7 0 10 -0.5t6.5 -5.5t3.5 -14v-100q0 -9 -3.5 -14t-6.5 -5.5t-10 -0.5h-250v-150h260q7 0 10 -0.5t6.5 -5.5t3.5 -14v-100q0 -9 -3.5 -14t-6.5 -5.5t-10 -0.5h-400q-7 0 -10 0.5t-6.5 5.5t-3.5 14v130h-163l-44 -130q-4 -14 -9.5 -17t-20.5 -3
h-120q-8 0 -11 0.5t-8 5t1 14.5l226 680q5 13 10.5 16.5t19.5 3.5h539q7 0 10 -0.5t6.5 -5.5t3.5 -14v-100q0 -9 -3.5 -14t-6.5 -5.5t-10 -0.5zM274 290h117v290h-20z" />
    <glyph glyph-name="Ccedilla" unicode="&#xc7;" horiz-adv-x="580" 
d="M510 440h-120q-7 0 -10 0.5t-6.5 5.5t-3.5 14v100q0 9 -3.5 14t-6.5 5.5t-10 0.5h-120q-7 0 -10 -0.5t-6.5 -5.5t-3.5 -14v-400q0 -9 3.5 -14t6.5 -5.5t10 -0.5h120q7 0 10 0.5t6.5 5.5t3.5 14v100q0 9 3.5 14t6.5 5.5t10 0.5h120q7 0 10 -0.5t6.5 -5.5t3.5 -14v-140
q0 -63 -33 -94q-13 -12 -42 -18q-25 -5 -47 -7q-13 -1 -58 -1h-40v-40h20q54 0 83 -5q29 -7 41 -25.5t16 -59.5v-80q0 -47 -26 -71q-8 -9 -31 -13q-25 -6 -83 -6h-160q-7 0 -10 0.5t-6.5 5.5t-3.5 14v60q0 9 3.5 14t6.5 5.5t10 0.5h160q7 0 10 0.5t6.5 5.5t3.5 14v20
q0 9 -3.5 14t-6.5 5.5t-10 0.5h-120q-7 0 -10 0.5t-6.5 5.5t-3.5 14v120q-70 1 -106 25q-34 22 -34 95v480q0 63 33 94q14 12 41 18q25 5 48 7q13 1 58 1h120q45 0 58 -1q22 -2 47 -7q29 -6 42 -18q33 -31 33 -94v-140q0 -9 -3.5 -14t-6.5 -5.5t-10 -0.5z" />
    <glyph glyph-name="Egrave" unicode="&#xc8;" horiz-adv-x="550" 
d="M480 580h-260v-150h250q7 0 10 -0.5t6.5 -5.5t3.5 -14v-100q0 -9 -3.5 -14t-6.5 -5.5t-10 -0.5h-250v-150h260q7 0 10 -0.5t6.5 -5.5t3.5 -14v-100q0 -9 -3.5 -14t-6.5 -5.5t-10 -0.5h-400q-7 0 -10 0.5t-6.5 5.5t-3.5 14v680q0 9 3.5 14t6.5 5.5t10 0.5h400q7 0 10 -0.5
t6.5 -5.5t3.5 -14v-100q0 -9 -3.5 -14t-6.5 -5.5t-10 -0.5zM345 759h-46q-26 0 -33 13l-89 102q-9 14 8 14h88h4q18 0 24 -13l58 -103q4 -9 0 -11t-14 -2z" />
    <glyph glyph-name="Eacute" unicode="&#xc9;" horiz-adv-x="550" 
d="M480 580h-260v-150h250q7 0 10 -0.5t6.5 -5.5t3.5 -14v-100q0 -9 -3.5 -14t-6.5 -5.5t-10 -0.5h-250v-150h260q7 0 10 -0.5t6.5 -5.5t3.5 -14v-100q0 -9 -3.5 -14t-6.5 -5.5t-10 -0.5h-400q-7 0 -10 0.5t-6.5 5.5t-3.5 14v680q0 9 3.5 14t6.5 5.5t10 0.5h400q7 0 10 -0.5
t6.5 -5.5t3.5 -14v-100q0 -9 -3.5 -14t-6.5 -5.5t-10 -0.5zM299 759h-46q-7 0 -9.5 0.5t-5.5 3.5t1 9l58 103q3 7 8 10t7 3h13h88q17 0 8 -14l-89 -102q-7 -13 -33 -13z" />
    <glyph glyph-name="Ecircumflex" unicode="&#xca;" horiz-adv-x="550" 
d="M480 580h-260v-150h250q7 0 10 -0.5t6.5 -5.5t3.5 -14v-100q0 -9 -3.5 -14t-6.5 -5.5t-10 -0.5h-250v-150h260q7 0 10 -0.5t6.5 -5.5t3.5 -14v-100q0 -9 -3.5 -14t-6.5 -5.5t-10 -0.5h-400q-7 0 -10 0.5t-6.5 5.5t-3.5 14v680q0 9 3.5 14t6.5 5.5t10 0.5h400q7 0 10 -0.5
t6.5 -5.5t3.5 -14v-100q0 -9 -3.5 -14t-6.5 -5.5t-10 -0.5zM209 759h-65q-18 0 -10 15q77 110 82 112q6 2 18 2h88q10 0 13 -1q4 0 7 -3q2 -1 80 -110q8 -15 -10 -15h-65q-10 0 -17 4q-9 5 -53 51q-45 -49 -52 -52t-16 -3z" />
    <glyph glyph-name="Edieresis" unicode="&#xcb;" horiz-adv-x="550" 
d="M480 580h-260v-150h250q7 0 10 -0.5t6.5 -5.5t3.5 -14v-100q0 -9 -3.5 -14t-6.5 -5.5t-10 -0.5h-250v-150h260q7 0 10 -0.5t6.5 -5.5t3.5 -14v-100q0 -9 -3.5 -14t-6.5 -5.5t-10 -0.5h-400q-7 0 -10 0.5t-6.5 5.5t-3.5 14v680q0 9 3.5 14t6.5 5.5t10 0.5h400q7 0 10 -0.5
t6.5 -5.5t3.5 -14v-100q0 -9 -3.5 -14t-6.5 -5.5t-10 -0.5zM419 810q-20 -20 -49 -20t-50 20q-20 21 -20 50t20 49q21 21 50 21t49 -21q21 -20 21 -49t-21 -50zM239 810q-20 -20 -49 -20t-50 20q-20 21 -20 50t20 49q21 21 50 21t49 -21q21 -20 21 -49t-21 -50z" />
    <glyph glyph-name="Igrave" unicode="&#xcc;" horiz-adv-x="280" 
d="M83 720h120q7 0 10 -0.5t6.5 -5.5t3.5 -14v-680q0 -9 -3.5 -14t-6.5 -5.5t-10 -0.5h-120q-7 0 -10 0.5t-6.5 5.5t-3.5 14v680q0 9 3.5 14t6.5 5.5t10 0.5zM189 759h-46q-26 0 -33 13l-89 102q-9 14 8 14h88h4q18 0 24 -13l58 -103q4 -9 0 -11t-14 -2z" />
    <glyph glyph-name="Iacute" unicode="&#xcd;" horiz-adv-x="280" 
d="M80 720h120q7 0 10 -0.5t6.5 -5.5t3.5 -14v-680q0 -9 -3.5 -14t-6.5 -5.5t-10 -0.5h-120q-7 0 -10 0.5t-6.5 5.5t-3.5 14v680q0 9 3.5 14t6.5 5.5t10 0.5zM156 759h-46q-7 0 -9.5 0.5t-5.5 3.5t1 9l58 103q3 7 8 10t7 3h13h88q17 0 8 -14l-89 -102q-7 -13 -33 -13z" />
    <glyph glyph-name="Icircumflex" unicode="&#xce;" horiz-adv-x="280" 
d="M84 720h120q7 0 10 -0.5t6.5 -5.5t3.5 -14v-680q0 -9 -3.5 -14t-6.5 -5.5t-10 -0.5h-120q-7 0 -10 0.5t-6.5 5.5t-3.5 14v680q0 9 3.5 14t6.5 5.5t10 0.5zM248 980l80 -160q8 -10 4.5 -14.5t-6.5 -5t-10 -0.5h-85q-12 0 -17 1t-10 5t-10 14l-40 80h-20l-40 -80
q-7 -14 -13 -17t-24 -3h-85q-12 0 -13.5 2.5t1.5 17.5l80 160q7 14 13 17t24 3h134q12 0 17 -1t10 -5t10 -14z" />
    <glyph glyph-name="Idieresis" unicode="&#xcf;" horiz-adv-x="280" 
d="M80 720h120q7 0 10 -0.5t6.5 -5.5t3.5 -14v-680q0 -9 -3.5 -14t-6.5 -5.5t-10 -0.5h-120q-7 0 -10 0.5t-6.5 5.5t-3.5 14v680q0 9 3.5 14t6.5 5.5t10 0.5zM180 909q21 21 50 21t49 -21q21 -20 21 -49t-21 -50q-20 -20 -49 -20t-50 20q-20 21 -20 50t20 49zM99 909
q21 -20 21 -49t-21 -50q-20 -20 -49 -20t-50 20q-20 21 -20 50t20 49q21 21 50 21t49 -21z" />
    <glyph glyph-name="Eth" unicode="&#xd0;" horiz-adv-x="610" 
d="M100 720h280q45 0 58 -1q22 -2 47 -7q29 -6 42 -18q33 -31 33 -94v-480q0 -63 -33 -94q-13 -12 -42 -18q-25 -5 -47 -7q-13 -1 -58 -1h-280q-7 0 -10 0.5t-6.5 5.5t-3.5 14v290h-40q-7 0 -10 0.5t-6.5 5.5t-3.5 14v60q0 9 3.5 14t6.5 5.5t10 0.5h40v290q0 9 3.5 14
t6.5 5.5t10 0.5zM400 160v400q0 9 -3.5 14t-6.5 5.5t-10 0.5h-140v-170h80q7 0 10 -0.5t6.5 -5.5t3.5 -14v-60q0 -9 -3.5 -14t-6.5 -5.5t-10 -0.5h-80v-170h140q7 0 10 0.5t6.5 5.5t3.5 14z" />
    <glyph glyph-name="Ntilde" unicode="&#xd1;" horiz-adv-x="660" 
d="M460 720h120q7 0 10 -0.5t6.5 -5.5t3.5 -14v-680q0 -9 -3.5 -14t-6.5 -5.5t-10 -0.5h-245q-19 0 -23 8q-1 5 -2 12l-70 560h-20v-560q0 -9 -3.5 -14t-6.5 -5.5t-10 -0.5h-120q-7 0 -10 0.5t-6.5 5.5t-3.5 14v680q0 9 3.5 14t6.5 5.5t10 0.5h245q19 0 23 -8q1 -5 2 -12
l70 -560h20v560q0 9 3.5 14t6.5 5.5t10 0.5zM260 800h-80q-7 0 -10 0.5t-6.5 5.5t-3.5 14v60q0 46 25 71q10 9 32 13q25 6 83 6h60q7 0 10 0.5t6.5 5.5t3.5 14v30q0 9 3.5 14t6.5 5.5t10 0.5h80q7 0 10 -0.5t6.5 -5.5t3.5 -14v-60q0 -47 -26 -71q-10 -10 -31 -14
q-29 -5 -83 -5h-60q-7 0 -10 -0.5t-6.5 -5.5t-3.5 -14v-30q0 -9 -3.5 -14t-6.5 -5.5t-10 -0.5z" />
    <glyph glyph-name="Ograve" unicode="&#xd2;" horiz-adv-x="580" 
d="M230 720h120q45 0 58 -1q22 -2 47 -7q29 -6 42 -18q33 -31 33 -94v-480q0 -63 -33 -94q-13 -12 -42 -18q-25 -5 -47 -7q-13 -1 -58 -1h-120q-45 0 -58 1q-23 2 -48 7q-39 8 -54.5 32.5t-19.5 79.5v480q0 63 33 94q14 12 41 18q25 5 48 7q13 1 58 1zM210 560v-400
q0 -9 3.5 -14t6.5 -5.5t10 -0.5h120q7 0 10 0.5t6.5 5.5t3.5 14v400q0 9 -3.5 14t-6.5 5.5t-10 0.5h-120q-7 0 -10 -0.5t-6.5 -5.5t-3.5 -14zM345 759h-46q-26 0 -33 13l-89 102q-9 14 8 14h88h4q18 0 24 -13l58 -103q4 -9 0 -11t-14 -2z" />
    <glyph glyph-name="Oacute" unicode="&#xd3;" horiz-adv-x="580" 
d="M230 720h120q45 0 58 -1q22 -2 47 -7q29 -6 42 -18q33 -31 33 -94v-480q0 -63 -33 -94q-13 -12 -42 -18q-25 -5 -47 -7q-13 -1 -58 -1h-120q-45 0 -58 1q-23 2 -48 7q-39 8 -54.5 32.5t-19.5 79.5v480q0 63 33 94q14 12 41 18q25 5 48 7q13 1 58 1zM370 160v400
q0 9 -3.5 14t-6.5 5.5t-10 0.5h-120q-7 0 -10 -0.5t-6.5 -5.5t-3.5 -14v-400q0 -9 3.5 -14t6.5 -5.5t10 -0.5h120q7 0 10 0.5t6.5 5.5t3.5 14zM310 759h-46q-7 0 -9.5 0.5t-5.5 3.5t1 9l58 103q3 7 8 10t7 3h13h88q17 0 8 -14l-89 -102q-7 -13 -33 -13z" />
    <glyph glyph-name="Ocircumflex" unicode="&#xd4;" horiz-adv-x="580" 
d="M230 720h120q45 0 58 -1q22 -2 47 -7q29 -6 42 -18q33 -31 33 -94v-480q0 -63 -33 -94q-13 -12 -42 -18q-25 -5 -47 -7q-13 -1 -58 -1h-120q-45 0 -58 1q-23 2 -48 7q-39 8 -54.5 32.5t-19.5 79.5v480q0 63 33 94q14 12 41 18q25 5 48 7q13 1 58 1zM370 160v400
q0 9 -3.5 14t-6.5 5.5t-10 0.5h-120q-7 0 -10 -0.5t-6.5 -5.5t-3.5 -14v-400q0 -9 3.5 -14t6.5 -5.5t10 -0.5h120q7 0 10 0.5t6.5 5.5t3.5 14zM219 759h-65q-18 0 -10 15q77 110 82 112q6 2 18 2h88q10 0 13 -1q4 0 7 -3q2 -1 80 -110q8 -15 -10 -15h-65q-10 0 -17 4
q-9 5 -53 51q-45 -49 -52 -52t-16 -3z" />
    <glyph glyph-name="Otilde" unicode="&#xd5;" horiz-adv-x="580" 
d="M230 720h120q45 0 58 -1q22 -2 47 -7q29 -6 42 -18q33 -31 33 -94v-480q0 -63 -33 -94q-13 -12 -42 -18q-25 -5 -47 -7q-13 -1 -58 -1h-120q-45 0 -58 1q-23 2 -48 7q-39 8 -54.5 32.5t-19.5 79.5v480q0 63 33 94q14 12 41 18q25 5 48 7q13 1 58 1zM370 160v400
q0 9 -3.5 14t-6.5 5.5t-10 0.5h-120q-7 0 -10 -0.5t-6.5 -5.5t-3.5 -14v-400q0 -9 3.5 -14t6.5 -5.5t10 -0.5h120q7 0 10 0.5t6.5 5.5t3.5 14zM216 762l-51 19q-14 7 -9 19l14 41q16 48 56 43q17 -2 38 -10q2 -1 17 -6l42 -17q7 0 11 7q5 15 7 20q3 9 8.5 10.5t11.5 -1.5
l52 -19q13 -8 8 -19q-9 -27 -13 -38q-12 -26 -25 -37t-33 -9q-18 2 -38 10q-10 4 -16 6l-42 17q-7 0 -11 -7q-5 -15 -7 -20q-3 -11 -20 -9z" />
    <glyph glyph-name="Odieresis" unicode="&#xd6;" horiz-adv-x="580" 
d="M429 810q-20 -20 -49 -20t-50 20q-20 21 -20 50t20 49q21 21 50 21t49 -21q21 -20 21 -49t-21 -50zM249 810q-20 -20 -49 -20t-50 20q-20 21 -20 50t20 49q21 21 50 21t49 -21q21 -20 21 -49t-21 -50zM230 720h120q45 0 58 -1q22 -2 47 -7q29 -6 42 -18q33 -31 33 -94
v-480q0 -63 -33 -94q-13 -12 -42 -18q-25 -5 -47 -7q-13 -1 -58 -1h-120q-45 0 -58 1q-23 2 -48 7q-39 8 -54.5 32.5t-19.5 79.5v480q0 63 33 94q14 12 41 18q25 5 48 7q13 1 58 1zM370 160v400q0 9 -3.5 14t-6.5 5.5t-10 0.5h-120q-7 0 -10 -0.5t-6.5 -5.5t-3.5 -14v-400
q0 -9 3.5 -14t6.5 -5.5t10 -0.5h120q7 0 10 0.5t6.5 5.5t3.5 14z" />
    <glyph glyph-name="multiply" unicode="&#xd7;" horiz-adv-x="584" 
d="M412 360l117 -117q14 -14 0 -28l-78 -78q-14 -14 -28 0l-117 117l-117 -117q-14 -14 -28 0l-78 78q-14 14 0 28l117 117l-117 117q-14 14 0 28l78 78q14 14 28 0l117 -117l117 117q14 14 28 0l78 -78q14 -14 0 -28z" />
    <glyph glyph-name="Oslash" unicode="&#xd8;" horiz-adv-x="580" 
d="M230 720h120q45 0 58 -1q22 -2 47 -7q29 -6 42 -18q33 -31 33 -94v-480q0 -63 -33 -94q-13 -12 -42 -18q-25 -5 -47 -7q-13 -1 -58 -1h-120q-45 0 -58 1q-23 2 -48 7q-39 8 -54.5 32.5t-19.5 79.5v480q0 63 33 94q14 12 41 18q25 5 48 7q13 1 58 1zM370 160v193
l-160 -106v-87q0 -9 3.5 -14t6.5 -5.5t10 -0.5h120q7 0 10 0.5t6.5 5.5t3.5 14zM210 367l160 106v87q0 9 -3.5 14t-6.5 5.5t-10 0.5h-120q-7 0 -10 -0.5t-6.5 -5.5t-3.5 -14v-193z" />
    <glyph glyph-name="Ugrave" unicode="&#xd9;" 
d="M395 720h120q7 0 10 -0.5t6.5 -5.5t3.5 -14v-580q0 -63 -33 -94q-14 -12 -42 -18q-25 -5 -47 -7q-13 -1 -58 -1h-120q-45 0 -58 1q-23 2 -48 7q-39 8 -54.5 32.5t-19.5 79.5v580q0 9 3.5 14t6.5 5.5t10 0.5h120q7 0 10 -0.5t6.5 -5.5t3.5 -14v-540q0 -9 3.5 -14t6.5 -5.5
t10 -0.5h120q7 0 10 0.5t6.5 5.5t3.5 14v540q0 9 3.5 14t6.5 5.5t10 0.5zM343 759h-46q-26 0 -33 13l-89 102q-9 14 8 14h88h4q18 0 24 -13l58 -103q4 -9 0 -11t-14 -2z" />
    <glyph glyph-name="Uacute" unicode="&#xda;" 
d="M75 720h120q7 0 10 -0.5t6.5 -5.5t3.5 -14v-540q0 -9 3.5 -14t6.5 -5.5t10 -0.5h120q7 0 10 0.5t6.5 5.5t3.5 14v540q0 9 3.5 14t6.5 5.5t10 0.5h120q7 0 10 -0.5t6.5 -5.5t3.5 -14v-580q0 -63 -33 -94q-14 -12 -42 -18q-25 -5 -47 -7q-13 -1 -58 -1h-120q-45 0 -58 1
q-23 2 -48 7q-39 8 -54.5 32.5t-19.5 79.5v580q0 9 3.5 14t6.5 5.5t10 0.5zM313 759h-46q-7 0 -9.5 0.5t-5.5 3.5t1 9l58 103q3 7 8 10t7 3h13h88q17 0 8 -14l-89 -102q-7 -13 -33 -13z" />
    <glyph glyph-name="Ucircumflex" unicode="&#xdb;" 
d="M395 720h120q7 0 10 -0.5t6.5 -5.5t3.5 -14v-580q0 -63 -33 -94q-14 -12 -42 -18q-25 -5 -47 -7q-13 -1 -58 -1h-120q-45 0 -58 1q-23 2 -48 7q-39 8 -54.5 32.5t-19.5 79.5v580q0 9 3.5 14t6.5 5.5t10 0.5h120q7 0 10 -0.5t6.5 -5.5t3.5 -14v-540q0 -9 3.5 -14t6.5 -5.5
t10 -0.5h120q7 0 10 0.5t6.5 5.5t3.5 14v540q0 9 3.5 14t6.5 5.5t10 0.5zM208 800h-85q-12 0 -14 2.5t2 17.5l80 160q7 14 13 17t24 3h134q12 0 17 -1t10 -5t10 -14l80 -160q4 -15 2 -17.5t-14 -2.5h-85q-12 0 -17 1t-10 5t-10 14l-40 80h-20l-40 -80q-7 -14 -13 -17t-24 -3
z" />
    <glyph glyph-name="Udieresis" unicode="&#xdc;" 
d="M395 720h120q7 0 10 -0.5t6.5 -5.5t3.5 -14v-580q0 -63 -33 -94q-14 -12 -42 -18q-25 -5 -47 -7q-13 -1 -58 -1h-120q-45 0 -58 1q-23 2 -48 7q-39 8 -54.5 32.5t-19.5 79.5v580q0 9 3.5 14t6.5 5.5t10 0.5h120q7 0 10 -0.5t6.5 -5.5t3.5 -14v-540q0 -9 3.5 -14t6.5 -5.5
t10 -0.5h120q7 0 10 0.5t6.5 5.5t3.5 14v540q0 9 3.5 14t6.5 5.5t10 0.5zM434 810q-20 -20 -49 -20t-50 20q-20 21 -20 50t20 49q21 21 50 21t49 -21q21 -20 21 -49t-21 -50zM254 810q-20 -20 -49 -20t-50 20q-20 21 -20 50t20 49q21 21 50 21t49 -21q21 -20 21 -49t-21 -50
z" />
    <glyph glyph-name="Yacute" unicode="&#xdd;" horiz-adv-x="605" 
d="M457 720h120h9t8.5 -2t5 -6t-1.5 -12l-211 -526v-154q0 -9 -3.5 -14t-6.5 -5.5t-10 -0.5h-120q-7 0 -10 0.5t-6.5 5.5t-3.5 14v154l-210 526q0 8 -1.5 12t4.5 6t8.5 2h8.5h120q24 0 32 -20l108 -270h20l108 270q8 20 32 20zM328 759h-46q-7 0 -9.5 0.5t-5.5 3.5t1 9
l58 103q3 7 8 10t7 3h13h88q17 0 8 -14l-89 -102q-7 -13 -33 -13z" />
    <glyph glyph-name="Thorn" unicode="&#xde;" horiz-adv-x="580" 
d="M220 600h140q45 0 58 -1q22 -2 47 -7q29 -6 42 -18q33 -31 33 -94v-240q0 -63 -33 -94q-13 -12 -42 -18q-25 -5 -47 -7q-13 -1 -58 -1h-140v-100q0 -9 -3.5 -14t-6.5 -5.5t-10 -0.5h-120q-7 0 -10 0.5t-6.5 5.5t-3.5 14v680q0 9 3.5 14t6.5 5.5t10 0.5h120q7 0 10 -0.5
t6.5 -5.5t3.5 -14v-100zM380 280v160q0 9 -3.5 14t-6.5 5.5t-10 0.5h-140v-200h140q7 0 10 0.5t6.5 5.5t3.5 14z" />
    <glyph glyph-name="germandbls" unicode="&#xdf;" horiz-adv-x="585" 
d="M535 600v-110q0 -39 -5 -62q-10 -42 -75 -58v-20q43 -11 63 -33q7 -9 12 -26q5 -21 5 -61v-110q0 -63 -33 -94q-14 -12 -42 -18q-25 -5 -47 -7q-13 -1 -58 -1h-80q-7 0 -10 0.5t-6.5 5.5t-3.5 14v100q0 9 3.5 14t6.5 5.5t10 0.5h80q7 0 10 0.5t6.5 5.5t3.5 14v110
q0 9 -3.5 14t-6.5 5.5t-10 0.5h-60q-7 0 -10 0.5t-6.5 5.5t-3.5 14v100q0 9 3.5 14t6.5 5.5t10 0.5h60q7 0 10 0.5t6.5 5.5t3.5 14v110q0 9 -3.5 14t-6.5 5.5t-10 0.5h-120q-7 0 -10 -0.5t-6.5 -5.5t-3.5 -14v-540q0 -9 -3.5 -14t-6.5 -5.5t-10 -0.5h-120q-7 0 -10 0.5
t-6.5 5.5t-3.5 14v580q0 63 33 94q14 12 41 18q25 5 48 7q13 1 58 1h120q45 0 58 -1q22 -2 47 -7q28 -6 42 -18q33 -31 33 -94z" />
    <glyph glyph-name="agrave" unicode="&#xe0;" 
d="M235 720h120q45 0 58 -1q22 -2 47 -7q28 -6 42 -18q33 -31 33 -94v-580q0 -9 -3.5 -14t-6.5 -5.5t-10 -0.5h-120q-7 0 -10 0.5t-6.5 5.5t-3.5 14v210h-160v-210q0 -9 -3.5 -14t-6.5 -5.5t-10 -0.5h-120q-7 0 -10 0.5t-6.5 5.5t-3.5 14v580q0 63 33 94q14 12 41 18
q25 5 48 7q13 1 58 1zM215 370h160v190q0 9 -3.5 14t-6.5 5.5t-10 0.5h-120q-7 0 -10 -0.5t-6.5 -5.5t-3.5 -14v-190zM344 759h-46q-26 0 -33 13l-89 102q-9 14 8 14h88h4q18 0 24 -13l58 -103q4 -9 0 -11t-14 -2z" />
    <glyph glyph-name="aacute" unicode="&#xe1;" 
d="M235 720h120q45 0 58 -1q22 -2 47 -7q28 -6 42 -18q33 -31 33 -94v-580q0 -9 -3.5 -14t-6.5 -5.5t-10 -0.5h-120q-7 0 -10 0.5t-6.5 5.5t-3.5 14v210h-160v-210q0 -9 -3.5 -14t-6.5 -5.5t-10 -0.5h-120q-7 0 -10 0.5t-6.5 5.5t-3.5 14v580q0 63 33 94q14 12 41 18
q25 5 48 7q13 1 58 1zM215 370h160v190q0 9 -3.5 14t-6.5 5.5t-10 0.5h-120q-7 0 -10 -0.5t-6.5 -5.5t-3.5 -14v-190zM314 759h-46q-7 0 -9.5 0.5t-5.5 3.5t1 9l58 103q3 7 8 10t7 3h13h88q17 0 8 -14l-89 -102q-7 -13 -33 -13z" />
    <glyph glyph-name="acircumflex" unicode="&#xe2;" 
d="M235 720h120q45 0 58 -1q22 -2 47 -7q28 -6 42 -18q33 -31 33 -94v-580q0 -9 -3.5 -14t-6.5 -5.5t-10 -0.5h-120q-7 0 -10 0.5t-6.5 5.5t-3.5 14v210h-160v-210q0 -9 -3.5 -14t-6.5 -5.5t-10 -0.5h-120q-7 0 -10 0.5t-6.5 5.5t-3.5 14v580q0 63 33 94q14 12 41 18
q25 5 48 7q13 1 58 1zM215 370h160v190q0 9 -3.5 14t-6.5 5.5t-10 0.5h-120q-7 0 -10 -0.5t-6.5 -5.5t-3.5 -14v-190zM225 759h-65q-18 0 -10 15q77 110 82 112q6 2 18 2h88q10 0 13 -1q4 0 7 -3q2 -1 80 -110q8 -15 -10 -15h-65q-10 0 -17 4q-9 5 -53 51q-45 -49 -52 -52
t-16 -3z" />
    <glyph glyph-name="atilde" unicode="&#xe3;" 
d="M235 720h120q45 0 58 -1q22 -2 47 -7q28 -6 42 -18q33 -31 33 -94v-580q0 -9 -3.5 -14t-6.5 -5.5t-10 -0.5h-120q-7 0 -10 0.5t-6.5 5.5t-3.5 14v210h-160v-210q0 -9 -3.5 -14t-6.5 -5.5t-10 -0.5h-120q-7 0 -10 0.5t-6.5 5.5t-3.5 14v580q0 63 33 94q14 12 41 18
q25 5 48 7q13 1 58 1zM215 370h160v190q0 9 -3.5 14t-6.5 5.5t-10 0.5h-120q-7 0 -10 -0.5t-6.5 -5.5t-3.5 -14v-190zM221 762l-51 19q-14 7 -9 19l14 41q16 48 56 43q17 -2 38 -10q2 -1 17 -6l42 -17q8 0 11 7q5 15 7 20q3 9 8.5 10.5t11.5 -1.5l52 -19q13 -8 8 -19
q-9 -27 -13 -38q-12 -26 -25 -37t-33 -9q-18 2 -38 10q-10 4 -16 6l-42 17q-7 0 -11 -7q-5 -15 -7 -20q-3 -11 -20 -9z" />
    <glyph glyph-name="adieresis" unicode="&#xe4;" 
d="M235 720h120q45 0 58 -1q22 -2 47 -7q28 -6 42 -18q33 -31 33 -94v-580q0 -9 -3.5 -14t-6.5 -5.5t-10 -0.5h-120q-7 0 -10 0.5t-6.5 5.5t-3.5 14v210h-160v-210q0 -9 -3.5 -14t-6.5 -5.5t-10 -0.5h-120q-7 0 -10 0.5t-6.5 5.5t-3.5 14v580q0 63 33 94q14 12 41 18
q25 5 48 7q13 1 58 1zM215 370h160v190q0 9 -3.5 14t-6.5 5.5t-10 0.5h-120q-7 0 -10 -0.5t-6.5 -5.5t-3.5 -14v-190zM434 810q-20 -20 -49 -20t-50 20q-20 21 -20 50t20 49q21 21 50 21t49 -21q21 -20 21 -49t-21 -50zM254 810q-20 -20 -49 -20t-50 20q-20 21 -20 50t20 49
q21 21 50 21t49 -21q21 -20 21 -49t-21 -50z" />
    <glyph glyph-name="aring" unicode="&#xe5;" 
d="M235 720h120q45 0 58 -1q22 -2 47 -7q28 -6 42 -18q33 -31 33 -94v-580q0 -9 -3.5 -14t-6.5 -5.5t-10 -0.5h-120q-7 0 -10 0.5t-6.5 5.5t-3.5 14v210h-160v-210q0 -9 -3.5 -14t-6.5 -5.5t-10 -0.5h-120q-7 0 -10 0.5t-6.5 5.5t-3.5 14v580q0 63 33 94q14 12 41 18
q25 5 48 7q13 1 58 1zM215 370h160v190q0 9 -3.5 14t-6.5 5.5t-10 0.5h-120q-7 0 -10 -0.5t-6.5 -5.5t-3.5 -14v-190zM394 831q-41 -41 -99 -41t-99 41t-41 99t41 99t99 41t99 -41t41 -99t-41 -99zM323 958q-11 12 -28 12t-29 -12q-11 -12 -11 -28t11 -28q12 -12 29 -12
t28 12q12 12 12 28t-12 28z" />
    <glyph glyph-name="ae" unicode="&#xe6;" horiz-adv-x="865" 
d="M795 580h-240q-7 0 -10 -0.5t-6.5 -5.5t-3.5 -14v-130h250q7 0 10 -0.5t6.5 -5.5t3.5 -14v-100q0 -9 -3.5 -14t-6.5 -5.5t-10 -0.5h-250v-130q0 -9 3.5 -14t6.5 -5.5t10 -0.5h240q7 0 10 -0.5t6.5 -5.5t3.5 -14v-100q0 -9 -3.5 -14t-6.5 -5.5t-10 -0.5h-240q-45 0 -58 1
q-23 2 -48 7q-39 8 -54.5 32.5t-19.5 79.5v110h-160v-210q0 -9 -3.5 -14t-6.5 -5.5t-10 -0.5h-120q-7 0 -10 0.5t-6.5 5.5t-3.5 14v580q0 63 33 94q14 12 41 18q25 5 48 7q13 1 58 1h90q40 0 61 -5q43 -10 59 -75h20q11 43 33 63q9 8 25 12q23 5 62 5h210q7 0 10 -0.5
t6.5 -5.5t3.5 -14v-100q0 -9 -3.5 -14t-6.5 -5.5t-10 -0.5zM215 370h160v190q0 9 -3.5 14t-6.5 5.5t-10 0.5h-120q-7 0 -10 -0.5t-6.5 -5.5t-3.5 -14v-190z" />
    <glyph glyph-name="ccedilla" unicode="&#xe7;" horiz-adv-x="580" 
d="M510 440h-120q-7 0 -10 0.5t-6.5 5.5t-3.5 14v100q0 9 -3.5 14t-6.5 5.5t-10 0.5h-120q-7 0 -10 -0.5t-6.5 -5.5t-3.5 -14v-400q0 -9 3.5 -14t6.5 -5.5t10 -0.5h120q7 0 10 0.5t6.5 5.5t3.5 14v100q0 9 3.5 14t6.5 5.5t10 0.5h120q7 0 10 -0.5t6.5 -5.5t3.5 -14v-140
q0 -63 -33 -94q-13 -12 -42 -18q-25 -5 -47 -7q-13 -1 -58 -1h-40v-40h20q54 0 83 -5q29 -7 41 -25.5t16 -59.5v-80q0 -47 -26 -71q-8 -9 -31 -13q-25 -6 -83 -6h-160q-7 0 -10 0.5t-6.5 5.5t-3.5 14v60q0 9 3.5 14t6.5 5.5t10 0.5h160q7 0 10 0.5t6.5 5.5t3.5 14v20
q0 9 -3.5 14t-6.5 5.5t-10 0.5h-120q-7 0 -10 0.5t-6.5 5.5t-3.5 14v120q-70 1 -106 25q-34 22 -34 95v480q0 63 33 94q14 12 41 18q25 5 48 7q13 1 58 1h120q45 0 58 -1q22 -2 47 -7q29 -6 42 -18q33 -31 33 -94v-140q0 -9 -3.5 -14t-6.5 -5.5t-10 -0.5z" />
    <glyph glyph-name="egrave" unicode="&#xe8;" horiz-adv-x="540" 
d="M470 580h-240q-7 0 -10 -0.5t-6.5 -5.5t-3.5 -14v-130h250q7 0 10 -0.5t6.5 -5.5t3.5 -14v-100q0 -9 -3.5 -14t-6.5 -5.5t-10 -0.5h-250v-130q0 -9 3.5 -14t6.5 -5.5t10 -0.5h240q7 0 10 -0.5t6.5 -5.5t3.5 -14v-100q0 -9 -3.5 -14t-6.5 -5.5t-10 -0.5h-240q-45 0 -58 1
q-23 2 -48 7q-39 8 -54.5 32.5t-19.5 79.5v480q0 63 33 94q14 12 41 18q25 5 48 7q13 1 58 1h240q7 0 10 -0.5t6.5 -5.5t3.5 -14v-100q0 -9 -3.5 -14t-6.5 -5.5t-10 -0.5zM345 759h-46q-26 0 -33 13l-89 102q-9 14 8 14h88h4q18 0 24 -13l58 -103q4 -9 0 -11t-14 -2z" />
    <glyph glyph-name="eacute" unicode="&#xe9;" horiz-adv-x="540" 
d="M470 580h-240q-7 0 -10 -0.5t-6.5 -5.5t-3.5 -14v-130h250q7 0 10 -0.5t6.5 -5.5t3.5 -14v-100q0 -9 -3.5 -14t-6.5 -5.5t-10 -0.5h-250v-130q0 -9 3.5 -14t6.5 -5.5t10 -0.5h240q7 0 10 -0.5t6.5 -5.5t3.5 -14v-100q0 -9 -3.5 -14t-6.5 -5.5t-10 -0.5h-240q-45 0 -58 1
q-23 2 -48 7q-39 8 -54.5 32.5t-19.5 79.5v480q0 63 33 94q14 12 41 18q25 5 48 7q13 1 58 1h240q7 0 10 -0.5t6.5 -5.5t3.5 -14v-100q0 -9 -3.5 -14t-6.5 -5.5t-10 -0.5zM299 759h-46q-7 0 -9.5 0.5t-5.5 3.5t1 9l58 103q3 7 8 10t7 3h13h88q17 0 8 -14l-89 -102
q-7 -13 -33 -13z" />
    <glyph glyph-name="ecircumflex" unicode="&#xea;" horiz-adv-x="540" 
d="M470 580h-240q-7 0 -10 -0.5t-6.5 -5.5t-3.5 -14v-130h250q7 0 10 -0.5t6.5 -5.5t3.5 -14v-100q0 -9 -3.5 -14t-6.5 -5.5t-10 -0.5h-250v-130q0 -9 3.5 -14t6.5 -5.5t10 -0.5h240q7 0 10 -0.5t6.5 -5.5t3.5 -14v-100q0 -9 -3.5 -14t-6.5 -5.5t-10 -0.5h-240q-45 0 -58 1
q-23 2 -48 7q-39 8 -54.5 32.5t-19.5 79.5v480q0 63 33 94q14 12 41 18q25 5 48 7q13 1 58 1h240q7 0 10 -0.5t6.5 -5.5t3.5 -14v-100q0 -9 -3.5 -14t-6.5 -5.5t-10 -0.5zM219 759h-65q-18 0 -10 15q77 110 82 112q6 2 18 2h88q10 0 13 -1q4 0 7 -3q2 -1 80 -110
q8 -15 -10 -15h-65q-10 0 -17 4q-9 5 -53 51q-45 -49 -52 -52t-16 -3z" />
    <glyph glyph-name="edieresis" unicode="&#xeb;" horiz-adv-x="540" 
d="M470 580h-240q-7 0 -10 -0.5t-6.5 -5.5t-3.5 -14v-130h250q7 0 10 -0.5t6.5 -5.5t3.5 -14v-100q0 -9 -3.5 -14t-6.5 -5.5t-10 -0.5h-250v-130q0 -9 3.5 -14t6.5 -5.5t10 -0.5h240q7 0 10 -0.5t6.5 -5.5t3.5 -14v-100q0 -9 -3.5 -14t-6.5 -5.5t-10 -0.5h-240q-45 0 -58 1
q-23 2 -48 7q-39 8 -54.5 32.5t-19.5 79.5v480q0 63 33 94q14 12 41 18q25 5 48 7q13 1 58 1h240q7 0 10 -0.5t6.5 -5.5t3.5 -14v-100q0 -9 -3.5 -14t-6.5 -5.5t-10 -0.5zM409 810q-20 -20 -49 -20t-50 20q-20 21 -20 50t20 49q21 21 50 21t49 -21q21 -20 21 -49t-21 -50z
M229 810q-20 -20 -49 -20t-50 20q-20 21 -20 50t20 49q21 21 50 21t49 -21q21 -20 21 -49t-21 -50z" />
    <glyph glyph-name="igrave" unicode="&#xec;" horiz-adv-x="280" 
d="M83 720h120q7 0 10 -0.5t6.5 -5.5t3.5 -14v-680q0 -9 -3.5 -14t-6.5 -5.5t-10 -0.5h-120q-7 0 -10 0.5t-6.5 5.5t-3.5 14v680q0 9 3.5 14t6.5 5.5t10 0.5zM185 759h-46q-26 0 -33 13l-89 102q-9 14 8 14h88h4q18 0 24 -13l58 -103q4 -9 0 -11t-14 -2z" />
    <glyph glyph-name="iacute" unicode="&#xed;" horiz-adv-x="280" 
d="M80 720h120q7 0 10 -0.5t6.5 -5.5t3.5 -14v-680q0 -9 -3.5 -14t-6.5 -5.5t-10 -0.5h-120q-7 0 -10 0.5t-6.5 5.5t-3.5 14v680q0 9 3.5 14t6.5 5.5t10 0.5zM155 759h-46q-7 0 -9.5 0.5t-5.5 3.5t1 9l58 103q3 7 8 10t7 3h13h88q17 0 8 -14l-89 -102q-7 -13 -33 -13z" />
    <glyph glyph-name="icircumflex" unicode="&#xee;" horiz-adv-x="280" 
d="M84 720h120q7 0 10 -0.5t6.5 -5.5t3.5 -14v-680q0 -9 -3.5 -14t-6.5 -5.5t-10 -0.5h-120q-7 0 -10 0.5t-6.5 5.5t-3.5 14v680q0 9 3.5 14t6.5 5.5t10 0.5zM248 980l80 -160q8 -10 4.5 -14.5t-6.5 -5t-10 -0.5h-85q-12 0 -17 1t-10 5t-10 14l-40 80h-20l-40 -80
q-7 -14 -13 -17t-24 -3h-85q-12 0 -13.5 2.5t1.5 17.5l80 160q7 14 13 17t24 3h134q12 0 17 -1t10 -5t10 -14z" />
    <glyph glyph-name="idieresis" unicode="&#xef;" horiz-adv-x="280" 
d="M80 720h120q7 0 10 -0.5t6.5 -5.5t3.5 -14v-680q0 -9 -3.5 -14t-6.5 -5.5t-10 -0.5h-120q-7 0 -10 0.5t-6.5 5.5t-3.5 14v680q0 9 3.5 14t6.5 5.5t10 0.5zM180 909q21 21 50 21t49 -21q21 -20 21 -49t-21 -50q-20 -20 -49 -20t-50 20q-20 21 -20 50t20 49zM99 909
q21 -20 21 -49t-21 -50q-20 -20 -49 -20t-50 20q-20 21 -20 50t20 49q21 21 50 21t49 -21z" />
    <glyph glyph-name="eth" unicode="&#xf0;" horiz-adv-x="610" 
d="M100 720h280q45 0 58 -1q22 -2 47 -7q29 -6 42 -18q33 -31 33 -94v-480q0 -63 -33 -94q-13 -12 -42 -18q-25 -5 -47 -7q-13 -1 -58 -1h-280q-7 0 -10 0.5t-6.5 5.5t-3.5 14v290h-40q-7 0 -10 0.5t-6.5 5.5t-3.5 14v60q0 9 3.5 14t6.5 5.5t10 0.5h40v290q0 9 3.5 14
t6.5 5.5t10 0.5zM400 160v400q0 9 -3.5 14t-6.5 5.5t-10 0.5h-140v-170h80q7 0 10 -0.5t6.5 -5.5t3.5 -14v-60q0 -9 -3.5 -14t-6.5 -5.5t-10 -0.5h-80v-170h140q7 0 10 0.5t6.5 5.5t3.5 14z" />
    <glyph glyph-name="ntilde" unicode="&#xf1;" 
d="M235 720h120q45 0 58 -1q22 -2 47 -7q28 -6 42 -18q33 -31 33 -94v-580q0 -9 -3.5 -14t-6.5 -5.5t-10 -0.5h-120q-7 0 -10 0.5t-6.5 5.5t-3.5 14v540q0 9 -3.5 14t-6.5 5.5t-10 0.5h-120q-7 0 -10 -0.5t-6.5 -5.5t-3.5 -14v-540q0 -9 -3.5 -14t-6.5 -5.5t-10 -0.5h-120
q-7 0 -10 0.5t-6.5 5.5t-3.5 14v580q0 63 33 94q14 12 41 18q25 5 48 7q13 1 58 1zM225 800h-80q-7 0 -10 0.5t-6.5 5.5t-3.5 14v60q0 46 25 71q10 9 32 13q25 6 83 6h60q7 0 10 0.5t6.5 5.5t3.5 14v30q0 9 3.5 14t6.5 5.5t10 0.5h80q7 0 10 -0.5t6.5 -5.5t3.5 -14v-60
q0 -47 -26 -71q-10 -10 -31 -14q-29 -5 -83 -5h-60q-7 0 -10 -0.5t-6.5 -5.5t-3.5 -14v-30q0 -9 -3.5 -14t-6.5 -5.5t-10 -0.5z" />
    <glyph glyph-name="ograve" unicode="&#xf2;" horiz-adv-x="580" 
d="M230 720h120q45 0 58 -1q22 -2 47 -7q29 -6 42 -18q33 -31 33 -94v-480q0 -63 -33 -94q-13 -12 -42 -18q-25 -5 -47 -7q-13 -1 -58 -1h-120q-45 0 -58 1q-23 2 -48 7q-39 8 -54.5 32.5t-19.5 79.5v480q0 63 33 94q14 12 41 18q25 5 48 7q13 1 58 1zM210 560v-400
q0 -9 3.5 -14t6.5 -5.5t10 -0.5h120q7 0 10 0.5t6.5 5.5t3.5 14v400q0 9 -3.5 14t-6.5 5.5t-10 0.5h-120q-7 0 -10 -0.5t-6.5 -5.5t-3.5 -14zM345 759h-46q-26 0 -33 13l-89 102q-9 14 8 14h88h4q18 0 24 -13l58 -103q4 -9 0 -11t-14 -2z" />
    <glyph glyph-name="oacute" unicode="&#xf3;" horiz-adv-x="580" 
d="M230 720h120q45 0 58 -1q22 -2 47 -7q29 -6 42 -18q33 -31 33 -94v-480q0 -63 -33 -94q-13 -12 -42 -18q-25 -5 -47 -7q-13 -1 -58 -1h-120q-45 0 -58 1q-23 2 -48 7q-39 8 -54.5 32.5t-19.5 79.5v480q0 63 33 94q14 12 41 18q25 5 48 7q13 1 58 1zM370 160v400
q0 9 -3.5 14t-6.5 5.5t-10 0.5h-120q-7 0 -10 -0.5t-6.5 -5.5t-3.5 -14v-400q0 -9 3.5 -14t6.5 -5.5t10 -0.5h120q7 0 10 0.5t6.5 5.5t3.5 14zM310 759h-46q-7 0 -9.5 0.5t-5.5 3.5t1 9l58 103q3 7 8 10t7 3h13h88q17 0 8 -14l-89 -102q-7 -13 -33 -13z" />
    <glyph glyph-name="ocircumflex" unicode="&#xf4;" horiz-adv-x="580" 
d="M230 720h120q45 0 58 -1q22 -2 47 -7q29 -6 42 -18q33 -31 33 -94v-480q0 -63 -33 -94q-13 -12 -42 -18q-25 -5 -47 -7q-13 -1 -58 -1h-120q-45 0 -58 1q-23 2 -48 7q-39 8 -54.5 32.5t-19.5 79.5v480q0 63 33 94q14 12 41 18q25 5 48 7q13 1 58 1zM370 160v400
q0 9 -3.5 14t-6.5 5.5t-10 0.5h-120q-7 0 -10 -0.5t-6.5 -5.5t-3.5 -14v-400q0 -9 3.5 -14t6.5 -5.5t10 -0.5h120q7 0 10 0.5t6.5 5.5t3.5 14zM220 759h-65q-18 0 -10 15q77 110 82 112q6 2 18 2h88q10 0 13 -1q4 0 7 -3q2 -1 80 -110q8 -15 -10 -15h-65q-10 0 -17 4
q-9 5 -53 51q-45 -49 -52 -52t-16 -3z" />
    <glyph glyph-name="otilde" unicode="&#xf5;" horiz-adv-x="580" 
d="M230 720h120q45 0 58 -1q22 -2 47 -7q29 -6 42 -18q33 -31 33 -94v-480q0 -63 -33 -94q-13 -12 -42 -18q-25 -5 -47 -7q-13 -1 -58 -1h-120q-45 0 -58 1q-23 2 -48 7q-39 8 -54.5 32.5t-19.5 79.5v480q0 63 33 94q14 12 41 18q25 5 48 7q13 1 58 1zM370 160v400
q0 9 -3.5 14t-6.5 5.5t-10 0.5h-120q-7 0 -10 -0.5t-6.5 -5.5t-3.5 -14v-400q0 -9 3.5 -14t6.5 -5.5t10 -0.5h120q7 0 10 0.5t6.5 5.5t3.5 14zM216 762l-51 19q-14 7 -9 19l14 41q16 48 56 43q17 -2 38 -10q2 -1 17 -6l42 -17q7 0 11 7q5 15 7 20q3 9 8.5 10.5t11.5 -1.5
l52 -19q13 -8 8 -19q-9 -27 -13 -38q-12 -26 -25 -37t-33 -9q-18 2 -38 10q-10 4 -16 6l-42 17q-7 0 -11 -7q-5 -15 -7 -20q-3 -11 -20 -9z" />
    <glyph glyph-name="odieresis" unicode="&#xf6;" horiz-adv-x="580" 
d="M429 810q-20 -20 -49 -20t-50 20q-20 21 -20 50t20 49q21 21 50 21t49 -21q21 -20 21 -49t-21 -50zM249 810q-20 -20 -49 -20t-50 20q-20 21 -20 50t20 49q21 21 50 21t49 -21q21 -20 21 -49t-21 -50zM230 720h120q45 0 58 -1q22 -2 47 -7q29 -6 42 -18q33 -31 33 -94
v-480q0 -63 -33 -94q-13 -12 -42 -18q-25 -5 -47 -7q-13 -1 -58 -1h-120q-45 0 -58 1q-23 2 -48 7q-39 8 -54.5 32.5t-19.5 79.5v480q0 63 33 94q14 12 41 18q25 5 48 7q13 1 58 1zM370 160v400q0 9 -3.5 14t-6.5 5.5t-10 0.5h-120q-7 0 -10 -0.5t-6.5 -5.5t-3.5 -14v-400
q0 -9 3.5 -14t6.5 -5.5t10 -0.5h120q7 0 10 0.5t6.5 5.5t3.5 14z" />
    <glyph glyph-name="divide" unicode="&#xf7;" horiz-adv-x="560" 
d="M60 430h440q7 0 10 -0.5t6.5 -5.5t3.5 -14v-100q0 -9 -3.5 -14t-6.5 -5.5t-10 -0.5h-440q-7 0 -10 0.5t-6.5 5.5t-3.5 14v100q0 9 3.5 14t6.5 5.5t10 0.5zM216 224q26 26 64 26t64 -26t26 -64t-26 -64t-64 -26t-64 26t-26 64t26 64zM344 496q-26 -26 -64 -26t-64 26
t-26 64t26 64t64 26t64 -26t26 -64t-26 -64z" />
    <glyph glyph-name="oslash" unicode="&#xf8;" horiz-adv-x="580" 
d="M230 720h120q45 0 58 -1q22 -2 47 -7q29 -6 42 -18q33 -31 33 -94v-480q0 -63 -33 -94q-13 -12 -42 -18q-25 -5 -47 -7q-13 -1 -58 -1h-120q-45 0 -58 1q-23 2 -48 7q-39 8 -54.5 32.5t-19.5 79.5v480q0 63 33 94q14 12 41 18q25 5 48 7q13 1 58 1zM370 160v193
l-160 -106v-87q0 -9 3.5 -14t6.5 -5.5t10 -0.5h120q7 0 10 0.5t6.5 5.5t3.5 14zM210 367l160 106v87q0 9 -3.5 14t-6.5 5.5t-10 0.5h-120q-7 0 -10 -0.5t-6.5 -5.5t-3.5 -14v-193z" />
    <glyph glyph-name="ugrave" unicode="&#xf9;" 
d="M395 720h120q7 0 10 -0.5t6.5 -5.5t3.5 -14v-580q0 -63 -33 -94q-14 -12 -42 -18q-25 -5 -47 -7q-13 -1 -58 -1h-120q-45 0 -58 1q-23 2 -48 7q-39 8 -54.5 32.5t-19.5 79.5v580q0 9 3.5 14t6.5 5.5t10 0.5h120q7 0 10 -0.5t6.5 -5.5t3.5 -14v-540q0 -9 3.5 -14t6.5 -5.5
t10 -0.5h120q7 0 10 0.5t6.5 5.5t3.5 14v540q0 9 3.5 14t6.5 5.5t10 0.5zM343 759h-46q-26 0 -33 13l-89 102q-9 14 8 14h88h4q18 0 24 -13l58 -103q4 -9 0 -11t-14 -2z" />
    <glyph glyph-name="uacute" unicode="&#xfa;" 
d="M75 720h120q7 0 10 -0.5t6.5 -5.5t3.5 -14v-540q0 -9 3.5 -14t6.5 -5.5t10 -0.5h120q7 0 10 0.5t6.5 5.5t3.5 14v540q0 9 3.5 14t6.5 5.5t10 0.5h120q7 0 10 -0.5t6.5 -5.5t3.5 -14v-580q0 -63 -33 -94q-14 -12 -42 -18q-25 -5 -47 -7q-13 -1 -58 -1h-120q-45 0 -58 1
q-23 2 -48 7q-39 8 -54.5 32.5t-19.5 79.5v580q0 9 3.5 14t6.5 5.5t10 0.5zM313 759h-46q-7 0 -9.5 0.5t-5.5 3.5t1 9l58 103q3 7 8 10t7 3h13h88q17 0 8 -14l-89 -102q-7 -13 -33 -13z" />
    <glyph glyph-name="ucircumflex" unicode="&#xfb;" 
d="M395 720h120q7 0 10 -0.5t6.5 -5.5t3.5 -14v-580q0 -63 -33 -94q-14 -12 -42 -18q-25 -5 -47 -7q-13 -1 -58 -1h-120q-45 0 -58 1q-23 2 -48 7q-39 8 -54.5 32.5t-19.5 79.5v580q0 9 3.5 14t6.5 5.5t10 0.5h120q7 0 10 -0.5t6.5 -5.5t3.5 -14v-540q0 -9 3.5 -14t6.5 -5.5
t10 -0.5h120q7 0 10 0.5t6.5 5.5t3.5 14v540q0 9 3.5 14t6.5 5.5t10 0.5zM208 800h-85q-12 0 -14 2.5t2 17.5l80 160q7 14 13 17t24 3h134q12 0 17 -1t10 -5t10 -14l80 -160q4 -15 2 -17.5t-14 -2.5h-85q-12 0 -17 1t-10 5t-10 14l-40 80h-20l-40 -80q-7 -14 -13 -17t-24 -3
z" />
    <glyph glyph-name="udieresis" unicode="&#xfc;" 
d="M395 720h120q7 0 10 -0.5t6.5 -5.5t3.5 -14v-580q0 -63 -33 -94q-14 -12 -42 -18q-25 -5 -47 -7q-13 -1 -58 -1h-120q-45 0 -58 1q-23 2 -48 7q-39 8 -54.5 32.5t-19.5 79.5v580q0 9 3.5 14t6.5 5.5t10 0.5h120q7 0 10 -0.5t6.5 -5.5t3.5 -14v-540q0 -9 3.5 -14t6.5 -5.5
t10 -0.5h120q7 0 10 0.5t6.5 5.5t3.5 14v540q0 9 3.5 14t6.5 5.5t10 0.5zM434 810q-20 -20 -49 -20t-50 20q-20 21 -20 50t20 49q21 21 50 21t49 -21q21 -20 21 -49t-21 -50zM254 810q-20 -20 -49 -20t-50 20q-20 21 -20 50t20 49q21 21 50 21t49 -21q21 -20 21 -49t-21 -50
z" />
    <glyph glyph-name="yacute" unicode="&#xfd;" horiz-adv-x="570" 
d="M385 720h120q7 0 10 -0.5t6.5 -5.5t3.5 -14v-350q0 -63 -33 -94q-12 -12 -37 -18q-22 -5 -42 -7q-11 -1 -48 -1v-210q0 -9 -3.5 -14t-6.5 -5.5t-10 -0.5h-120q-7 0 -10 0.5t-6.5 5.5t-3.5 14v210q-38 0 -49 1q-18 2 -41 7q-35 8 -50.5 33t-19.5 79v350q0 9 3.5 14
t6.5 5.5t10 0.5h120q7 0 10 -0.5t6.5 -5.5t3.5 -14v-310q0 -9 3.5 -14t6.5 -5.5t10 -0.5h120q7 0 10 0.5t6.5 5.5t3.5 14v310q0 9 3.5 14t6.5 5.5t10 0.5zM303 759h-46q-7 0 -9.5 0.5t-5.5 3.5t1 9l58 103q3 7 8 10t7 3h13h88q17 0 8 -14l-89 -102q-7 -13 -33 -13z" />
    <glyph glyph-name="thorn" unicode="&#xfe;" horiz-adv-x="580" 
d="M220 600h140q45 0 58 -1q22 -2 47 -7q29 -6 42 -18q33 -31 33 -94v-240q0 -63 -33 -94q-13 -12 -42 -18q-25 -5 -47 -7q-13 -1 -58 -1h-140v-100q0 -9 -3.5 -14t-6.5 -5.5t-10 -0.5h-120q-7 0 -10 0.5t-6.5 5.5t-3.5 14v680q0 9 3.5 14t6.5 5.5t10 0.5h120q7 0 10 -0.5
t6.5 -5.5t3.5 -14v-100zM380 280v160q0 9 -3.5 14t-6.5 5.5t-10 0.5h-140v-200h140q7 0 10 0.5t6.5 5.5t3.5 14z" />
    <glyph glyph-name="ydieresis" unicode="&#xff;" horiz-adv-x="570" 
d="M385 720h120q7 0 10 -0.5t6.5 -5.5t3.5 -14v-350q0 -63 -33 -94q-12 -12 -37 -18q-22 -5 -42 -7q-11 -1 -48 -1v-210q0 -9 -3.5 -14t-6.5 -5.5t-10 -0.5h-120q-7 0 -10 0.5t-6.5 5.5t-3.5 14v210q-38 0 -49 1q-18 2 -41 7q-35 8 -50.5 33t-19.5 79v350q0 9 3.5 14
t6.5 5.5t10 0.5h120q7 0 10 -0.5t6.5 -5.5t3.5 -14v-310q0 -9 3.5 -14t6.5 -5.5t10 -0.5h120q7 0 10 0.5t6.5 5.5t3.5 14v310q0 9 3.5 14t6.5 5.5t10 0.5zM424 810q-20 -20 -49 -20t-50 20q-20 21 -20 50t20 49q21 21 50 21t49 -21q21 -20 21 -49t-21 -50zM244 810
q-20 -20 -49 -20t-50 20q-20 21 -20 50t20 49q21 21 50 21t49 -21q21 -20 21 -49t-21 -50z" />
    <glyph glyph-name="Abreve" unicode="&#x102;" horiz-adv-x="573" 
d="M333 878h67q4 0 6 -0.5t4.5 -3.5t2.5 -9v-48q0 -31 -17 -46q-6 -6 -20 -9q-19 -3 -53 -3h-72q-34 0 -53 3q-37 8 -37 55v48q0 9 3.5 11t9.5 2h67q5 0 7 -0.5t4 -3.5t2 -9v-24q0 -9 3.5 -11t9.5 -2h40q4 0 6 0.5t4.5 3.5t2.5 9v24q0 9 3 11t10 2zM440 700l114 -680
q2 -13 -2.5 -16.5t-18.5 -3.5h-115q-10 0 -13.5 0.5t-7.5 5t-5 14.5l-22 130h-163l-22 -130q-2 -14 -7 -17t-20 -3h-115h-10t-7 2t-3.5 6t0.5 12l113 680q2 13 7.5 16.5t19.5 3.5h251q10 0 13.5 -0.5t7.5 -5t5 -14.5zM278 580l-48 -290h117l-49 290h-20z" />
    <glyph glyph-name="abreve" unicode="&#x103;" 
d="M235 720h120q45 0 58 -1q22 -2 47 -7q28 -6 42 -18q33 -31 33 -94v-580q0 -9 -3.5 -14t-6.5 -5.5t-10 -0.5h-120q-7 0 -10 0.5t-6.5 5.5t-3.5 14v210h-160v-210q0 -9 -3.5 -14t-6.5 -5.5t-10 -0.5h-120q-7 0 -10 0.5t-6.5 5.5t-3.5 14v580q0 63 33 94q14 12 41 18
q25 5 48 7q13 1 58 1zM215 370h160v190q0 9 -3.5 14t-6.5 5.5t-10 0.5h-120q-7 0 -10 -0.5t-6.5 -5.5t-3.5 -14v-190zM341 878h67q4 0 6 -0.5t4.5 -3.5t2.5 -9v-48q0 -31 -17 -46q-6 -6 -20 -9q-19 -3 -53 -3h-72q-34 0 -53 3q-37 8 -37 55v48q0 9 3.5 11t9.5 2h67
q5 0 7 -0.5t4 -3.5t2 -9v-24q0 -9 3.5 -11t9.5 -2h40q4 0 6 0.5t4.5 3.5t2.5 9v24q0 9 3 11t10 2z" />
    <glyph glyph-name="Dcroat" unicode="&#x110;" 
d="M80 720h280q45 0 58 -1q22 -2 47 -7q29 -6 42 -18q33 -31 33 -94v-480q0 -63 -33 -94q-13 -12 -42 -18q-25 -5 -47 -7q-13 -1 -58 -1h-280q-7 0 -10 0.5t-6.5 5.5t-3.5 14v270h-23q-17 0 -17 11v91q0 11 17 11h23v297q0 9 3.5 14t6.5 5.5t10 0.5zM380 160v400
q0 9 -3.5 14t-6.5 5.5t-10 0.5h-140v-177h58q16 0 16 -11v-91q0 -11 -16 -11h-58v-150h140q7 0 10 0.5t6.5 5.5t3.5 14z" />
    <glyph glyph-name="dcroat" unicode="&#x111;" 
d="M80 720h280q45 0 58 -1q22 -2 47 -7q29 -6 42 -18q33 -31 33 -94v-480q0 -63 -33 -94q-13 -12 -42 -18q-25 -5 -47 -7q-13 -1 -58 -1h-280q-7 0 -10 0.5t-6.5 5.5t-3.5 14v270h-23q-17 0 -17 11v91q0 11 17 11h23v297q0 9 3.5 14t6.5 5.5t10 0.5zM380 160v400
q0 9 -3.5 14t-6.5 5.5t-10 0.5h-140v-177h58q16 0 16 -11v-91q0 -11 -16 -11h-58v-150h140q7 0 10 0.5t6.5 5.5t3.5 14z" />
    <glyph glyph-name="Itilde" unicode="&#x128;" horiz-adv-x="280" 
d="M66 762l-51 19q-14 7 -9 19l14 41q16 48 56 43q17 -2 38 -10q2 -1 17 -6l42 -17q7 0 11 7q5 15 7 20q3 9 8.5 10.5t11.5 -1.5l52 -19q13 -8 8 -19q-9 -27 -13 -38q-12 -26 -25 -37t-33 -9q-18 2 -38 10q-10 4 -16 6l-42 17q-7 0 -11 -7q-5 -15 -7 -20q-3 -11 -20 -9z
M220 700v-680q0 -9 -3.5 -14t-6.5 -5.5t-10 -0.5h-120q-7 0 -10 0.5t-6.5 5.5t-3.5 14v680q0 9 3.5 14t6.5 5.5t10 0.5h120q7 0 10 -0.5t6.5 -5.5t3.5 -14z" />
    <glyph glyph-name="itilde" unicode="&#x129;" horiz-adv-x="280" 
d="M66 762l-51 19q-14 7 -9 19l14 41q16 48 56 43q17 -2 38 -10q2 -1 17 -6l42 -17q7 0 11 7q5 15 7 20q3 9 8.5 10.5t11.5 -1.5l52 -19q13 -8 8 -19q-9 -27 -13 -38q-12 -26 -25 -37t-33 -9q-18 2 -38 10q-10 4 -16 6l-42 17q-7 0 -11 -7q-5 -15 -7 -20q-3 -11 -20 -9z
M220 700v-680q0 -9 -3.5 -14t-6.5 -5.5t-10 -0.5h-120q-7 0 -10 0.5t-6.5 5.5t-3.5 14v680q0 9 3.5 14t6.5 5.5t10 0.5h120q7 0 10 -0.5t6.5 -5.5t3.5 -14z" />
    <glyph glyph-name="dotlessi" unicode="&#x131;" horiz-adv-x="280" 
d="M220 700v-680q0 -9 -3.5 -14t-6.5 -5.5t-10 -0.5h-120q-7 0 -10 0.5t-6.5 5.5t-3.5 14v680q0 9 3.5 14t6.5 5.5t10 0.5h120q7 0 10 -0.5t6.5 -5.5t3.5 -14z" />
    <glyph glyph-name="Lslash" unicode="&#x141;" horiz-adv-x="540" 
d="M250 140h260q7 0 10 -0.5t6.5 -5.5t3.5 -14v-100q0 -9 -3.5 -14t-6.5 -5.5t-10 -0.5h-400q-7 0 -10 0.5t-6.5 5.5t-3.5 14v204l-60 -30q-10 -8 -14.5 -4.5t-5 6.5t-0.5 10v63q0 12 1 17t5 10t14 10l60 30v364q0 9 3.5 14t6.5 5.5t10 0.5h120q7 0 10 -0.5t6.5 -5.5
t3.5 -14v-284l140 70q10 8 14.5 4.5t5 -6.5t0.5 -10v-63q0 -12 -1 -17t-5 -10t-14 -10l-140 -70v-164z" />
    <glyph glyph-name="lslash" unicode="&#x142;" horiz-adv-x="540" 
d="M270 140h240q7 0 10 -0.5t6.5 -5.5t3.5 -14v-100q0 -9 -3.5 -14t-6.5 -5.5t-10 -0.5h-240q-45 0 -58 1q-23 2 -48 7q-39 8 -54.5 32.5t-19.5 79.5v104l-60 -30q-10 -8 -14.5 -4.5t-5 6.5t-0.5 10v63q0 12 1 17t5 10t14 10l60 30v364q0 9 3.5 14t6.5 5.5t10 0.5h120
q7 0 10 -0.5t6.5 -5.5t3.5 -14v-284l140 70q10 8 14.5 4.5t5 -6.5t0.5 -10v-63q0 -12 -1 -17t-5 -10t-14 -10l-140 -70v-144q0 -9 3.5 -14t6.5 -5.5t10 -0.5z" />
    <glyph glyph-name="OE" unicode="&#x152;" horiz-adv-x="860" 
d="M790 580h-260v-150h250q7 0 10 -0.5t6.5 -5.5t3.5 -14v-100q0 -9 -3.5 -14t-6.5 -5.5t-10 -0.5h-250v-150h260q7 0 10 -0.5t6.5 -5.5t3.5 -14v-100q0 -9 -3.5 -14t-6.5 -5.5t-10 -0.5h-560q-45 0 -58 1q-23 2 -48 7q-39 8 -54.5 32.5t-19.5 79.5v480q0 63 33 94
q14 12 41 18q25 5 48 7q13 1 58 1h560q7 0 10 -0.5t6.5 -5.5t3.5 -14v-100q0 -9 -3.5 -14t-6.5 -5.5t-10 -0.5zM230 140h140v440h-140q-7 0 -10 -0.5t-6.5 -5.5t-3.5 -14v-400q0 -9 3.5 -14t6.5 -5.5t10 -0.5z" />
    <glyph glyph-name="oe" unicode="&#x153;" horiz-adv-x="860" 
d="M790 580h-240q-7 0 -10 -0.5t-6.5 -5.5t-3.5 -14v-130h250q7 0 10 -0.5t6.5 -5.5t3.5 -14v-100q0 -9 -3.5 -14t-6.5 -5.5t-10 -0.5h-250v-130q0 -9 3.5 -14t6.5 -5.5t10 -0.5h240q7 0 10 -0.5t6.5 -5.5t3.5 -14v-100q0 -9 -3.5 -14t-6.5 -5.5t-10 -0.5h-210q-39 0 -62 5
q-42 10 -58 75h-20q-11 -43 -33 -63q-9 -7 -26 -12q-21 -5 -61 -5h-90q-45 0 -58 1q-23 2 -48 7q-39 8 -54.5 32.5t-19.5 79.5v480q0 63 33 94q14 12 41 18q25 5 48 7q13 1 58 1h90q40 0 61 -5q43 -10 59 -75h20q11 43 33 63q9 8 25 12q23 5 62 5h210q7 0 10 -0.5t6.5 -5.5
t3.5 -14v-100q0 -9 -3.5 -14t-6.5 -5.5t-10 -0.5zM370 160v400q0 9 -3.5 14t-6.5 5.5t-10 0.5h-120q-7 0 -10 -0.5t-6.5 -5.5t-3.5 -14v-400q0 -9 3.5 -14t6.5 -5.5t10 -0.5h120q7 0 10 0.5t6.5 5.5t3.5 14z" />
    <glyph glyph-name="Scaron" unicode="&#x160;" horiz-adv-x="580" 
d="M510 470h-120q-7 0 -10 0.5t-6.5 5.5t-3.5 14v70q0 9 -3.5 14t-6.5 5.5t-10 0.5h-120q-7 0 -10 -0.5t-6.5 -5.5t-3.5 -14v-80q0 -12 1 -17t5 -9.5t14 -6.5l120 -30q48 -12 69 -18q64 -18 82 -37q34 -41 29 -122v-120q0 -63 -33 -94q-13 -12 -42 -18q-25 -5 -47 -7
q-13 -1 -58 -1h-120q-45 0 -58 1q-23 2 -48 7q-39 8 -54.5 32.5t-19.5 79.5v110q0 9 3.5 14t6.5 5.5t10 0.5h120q7 0 10 -0.5t6.5 -5.5t3.5 -14v-70q0 -9 3.5 -14t6.5 -5.5t10 -0.5h120q7 0 10 0.5t6.5 5.5t3.5 14v80q0 12 -1 17t-5 9.5t-14 6.5l-120 30l-70 18
q-64 18 -81 37q-34 41 -29 122v120q0 63 33 94q14 12 41 18q25 5 48 7q13 1 58 1h120q45 0 58 -1q22 -2 47 -7q29 -6 42 -18q33 -31 33 -94v-110q0 -9 -3.5 -14t-6.5 -5.5t-10 -0.5zM186 820l-80 160q-8 10 -4.5 14.5t6.5 5t10 0.5h85q12 0 17 -1t10 -5t10 -14l40 -80h20
l40 80q7 14 13 17t24 3h85q7 0 10 -0.5t6.5 -5t-4.5 -14.5l-80 -160q-7 -14 -13 -17t-24 -3h-134q-12 0 -17 1t-10 5t-10 14z" />
    <glyph glyph-name="scaron" unicode="&#x161;" horiz-adv-x="580" 
d="M510 470h-120q-7 0 -10 0.5t-6.5 5.5t-3.5 14v70q0 9 -3.5 14t-6.5 5.5t-10 0.5h-120q-7 0 -10 -0.5t-6.5 -5.5t-3.5 -14v-80q0 -12 1 -17t5 -9.5t14 -6.5l120 -30q48 -12 69 -18q64 -18 82 -37q34 -41 29 -122v-120q0 -63 -33 -94q-13 -12 -42 -18q-25 -5 -47 -7
q-13 -1 -58 -1h-120q-45 0 -58 1q-23 2 -48 7q-39 8 -54.5 32.5t-19.5 79.5v110q0 9 3.5 14t6.5 5.5t10 0.5h120q7 0 10 -0.5t6.5 -5.5t3.5 -14v-70q0 -9 3.5 -14t6.5 -5.5t10 -0.5h120q7 0 10 0.5t6.5 5.5t3.5 14v80q0 12 -1 17t-5 9.5t-14 6.5l-120 30l-70 18
q-64 18 -81 37q-34 41 -29 122v120q0 63 33 94q14 12 41 18q25 5 48 7q13 1 58 1h120q45 0 58 -1q22 -2 47 -7q29 -6 42 -18q33 -31 33 -94v-110q0 -9 -3.5 -14t-6.5 -5.5t-10 -0.5zM186 820l-80 160q-8 10 -4.5 14.5t6.5 5t10 0.5h85q12 0 17 -1t10 -5t10 -14l40 -80h20
l40 80q7 14 13 17t24 3h85q7 0 10 -0.5t6.5 -5t-4.5 -14.5l-80 -160q-7 -14 -13 -17t-24 -3h-134q-12 0 -17 1t-10 5t-10 14z" />
    <glyph glyph-name="Utilde" unicode="&#x168;" 
d="M222 762l-51 19q-14 7 -9 19l14 41q16 48 56 43q17 -2 38 -10q2 -1 17 -6l42 -17q7 0 11 7q5 15 7 20q3 9 8.5 10.5t11.5 -1.5l52 -19q13 -8 8 -19q-9 -27 -13 -38q-12 -26 -25 -37t-33 -9q-18 2 -38 10q-10 4 -16 6l-42 17q-7 0 -11 -7q-5 -15 -7 -20q-3 -11 -20 -9z
M395 720h120q7 0 10 -0.5t6.5 -5.5t3.5 -14v-580q0 -63 -33 -94q-14 -12 -42 -18q-25 -5 -47 -7q-13 -1 -58 -1h-120q-45 0 -58 1q-23 2 -48 7q-39 8 -54.5 32.5t-19.5 79.5v580q0 9 3.5 14t6.5 5.5t10 0.5h120q7 0 10 -0.5t6.5 -5.5t3.5 -14v-540q0 -9 3.5 -14t6.5 -5.5
t10 -0.5h120q7 0 10 0.5t6.5 5.5t3.5 14v540q0 9 3.5 14t6.5 5.5t10 0.5z" />
    <glyph glyph-name="utilde" unicode="&#x169;" 
d="M222 762l-51 19q-14 7 -9 19l14 41q16 48 56 43q17 -2 38 -10q2 -1 17 -6l42 -17q7 0 11 7q5 15 7 20q3 9 8.5 10.5t11.5 -1.5l52 -19q13 -8 8 -19q-9 -27 -13 -38q-12 -26 -25 -37t-33 -9q-18 2 -38 10q-10 4 -16 6l-42 17q-7 0 -11 -7q-5 -15 -7 -20q-3 -11 -20 -9z
M395 720h120q7 0 10 -0.5t6.5 -5.5t3.5 -14v-580q0 -63 -33 -94q-14 -12 -42 -18q-25 -5 -47 -7q-13 -1 -58 -1h-120q-45 0 -58 1q-23 2 -48 7q-39 8 -54.5 32.5t-19.5 79.5v580q0 9 3.5 14t6.5 5.5t10 0.5h120q7 0 10 -0.5t6.5 -5.5t3.5 -14v-540q0 -9 3.5 -14t6.5 -5.5
t10 -0.5h120q7 0 10 0.5t6.5 5.5t3.5 14v540q0 9 3.5 14t6.5 5.5t10 0.5z" />
    <glyph glyph-name="Ydieresis" unicode="&#x178;" horiz-adv-x="605" 
d="M457 720h120h9t8.5 -2t5 -6t-1.5 -12l-211 -526v-154q0 -9 -3.5 -14t-6.5 -5.5t-10 -0.5h-120q-7 0 -10 0.5t-6.5 5.5t-3.5 14v154l-210 526q0 8 -1.5 12t4.5 6t8.5 2h8.5h120q24 0 32 -20l108 -270h20l108 270q8 20 32 20zM446 810q-20 -20 -49 -20t-50 20
q-20 21 -20 50t20 49q21 21 50 21t49 -21q21 -20 21 -49t-21 -50zM266 810q-20 -20 -49 -20t-50 20q-20 21 -20 50t20 49q21 21 50 21t49 -21q21 -20 21 -49t-21 -50z" />
    <glyph glyph-name="Zcaron" unicode="&#x17d;" horiz-adv-x="560" 
d="M502 490l-302 -330v-20h300q7 0 10 -0.5t6.5 -5.5t3.5 -14v-100q0 -9 -3.5 -14t-6.5 -5.5t-10 -0.5h-440q-7 0 -10 0.5t-6.5 5.5t-3.5 14v160q0 30 18 50l302 330v20h-300q-7 0 -10 0.5t-6.5 5.5t-3.5 14v100q0 9 3.5 14t6.5 5.5t10 0.5h440q7 0 10 -0.5t6.5 -5.5
t3.5 -14v-160q0 -30 -18 -50zM176 820l-80 160q-8 10 -4.5 14.5t6.5 5t10 0.5h85q12 0 17 -1t10 -5t10 -14l40 -80h20l40 80q7 14 13 17t24 3h85q7 0 10 -0.5t6.5 -5t-4.5 -14.5l-80 -160q-7 -14 -13 -17t-24 -3h-134q-12 0 -17 1t-10 5t-10 14z" />
    <glyph glyph-name="zcaron" unicode="&#x17e;" horiz-adv-x="560" 
d="M502 490l-302 -330v-20h300q7 0 10 -0.5t6.5 -5.5t3.5 -14v-100q0 -9 -3.5 -14t-6.5 -5.5t-10 -0.5h-440q-7 0 -10 0.5t-6.5 5.5t-3.5 14v160q0 30 18 50l302 330v20h-300q-7 0 -10 0.5t-6.5 5.5t-3.5 14v100q0 9 3.5 14t6.5 5.5t10 0.5h440q7 0 10 -0.5t6.5 -5.5
t3.5 -14v-160q0 -30 -18 -50zM176 820l-80 160q-8 10 -4.5 14.5t6.5 5t10 0.5h85q12 0 17 -1t10 -5t10 -14l40 -80h20l40 80q7 14 13 17t24 3h85q7 0 10 -0.5t6.5 -5t-4.5 -14.5l-80 -160q-7 -14 -13 -17t-24 -3h-134q-12 0 -17 1t-10 5t-10 14z" />
    <glyph glyph-name="florin" unicode="&#x192;" horiz-adv-x="530" 
d="M320 720h160q7 0 10 -0.5t6.5 -5.5t3.5 -14v-100q0 -9 -3.5 -14t-6.5 -5.5t-10 -0.5h-160q-7 0 -10 -0.5t-6.5 -5.5t-3.5 -14v-130h170q7 0 10 -0.5t6.5 -5.5t3.5 -14v-100q0 -9 -3.5 -14t-6.5 -5.5t-10 -0.5h-170v-330q0 -63 -33 -94q-13 -12 -42 -18q-25 -5 -47 -7
q-13 -1 -58 -1h-80q-7 0 -10 0.5t-6.5 5.5t-3.5 14v100q0 9 3.5 14t6.5 5.5t10 0.5h80q7 0 10 0.5t6.5 5.5t3.5 14v600q0 63 33 94q14 12 41 18q25 5 48 7q13 1 58 1z" />
    <glyph glyph-name="Ohorn" unicode="&#x1a0;" 
d="M230 720h120q45 0 58 -1q22 -2 47 -7q20 -5 30 -10l11 60q1 7 4 10.5t6 4t10 0.5h90q6 0 9 -0.5t5.5 -4t0.5 -10.5l-50 -142q-2 -7 -5.5 -10.5t-6.5 -4t-11 -0.5h-18v-5v-480q0 -63 -33 -94q-13 -12 -42 -18q-25 -5 -47 -7q-13 -1 -58 -1h-120q-45 0 -58 1q-23 2 -48 7
q-39 8 -54.5 32.5t-19.5 79.5v480q0 63 33 94q14 12 41 18q25 5 48 7q13 1 58 1zM370 160v400q0 9 -3.5 14t-6.5 5.5t-10 0.5h-120q-7 0 -10 -0.5t-6.5 -5.5t-3.5 -14v-400q0 -9 3.5 -14t6.5 -5.5t10 -0.5h120q7 0 10 0.5t6.5 5.5t3.5 14z" />
    <glyph glyph-name="ohorn" unicode="&#x1a1;" 
d="M230 720h120q45 0 58 -1q22 -2 47 -7q20 -5 30 -10l11 60q1 7 4 10.5t6 4t10 0.5h90q6 0 9 -0.5t5.5 -4t0.5 -10.5l-50 -142q-2 -7 -5.5 -10.5t-6.5 -4t-11 -0.5h-18v-5v-480q0 -63 -33 -94q-13 -12 -42 -18q-25 -5 -47 -7q-13 -1 -58 -1h-120q-45 0 -58 1q-23 2 -48 7
q-39 8 -54.5 32.5t-19.5 79.5v480q0 63 33 94q14 12 41 18q25 5 48 7q13 1 58 1zM370 160v400q0 9 -3.5 14t-6.5 5.5t-10 0.5h-120q-7 0 -10 -0.5t-6.5 -5.5t-3.5 -14v-400q0 -9 3.5 -14t6.5 -5.5t10 -0.5h120q7 0 10 0.5t6.5 5.5t3.5 14z" />
    <glyph glyph-name="Uhorn" unicode="&#x1af;" horiz-adv-x="600" 
d="M521 777h90q6 0 9 -0.5t5.5 -4t0.5 -10.5l-50 -142q-2 -7 -5.5 -10.5t-6.5 -4t-11 -0.5h-18v-485q0 -63 -33 -94q-14 -12 -42 -18q-25 -5 -47 -7q-13 -1 -58 -1h-120q-45 0 -58 1q-23 2 -48 7q-39 8 -54.5 32.5t-19.5 79.5v580q0 9 3.5 14t6.5 5.5t10 0.5h120
q7 0 10 -0.5t6.5 -5.5t3.5 -14v-540q0 -9 3.5 -14t6.5 -5.5t10 -0.5h120q7 0 10 0.5t6.5 5.5t3.5 14v540q0 9 3.5 14t6.5 5.5t10 0.5h98l8 42q1 7 4 10.5t6 4t10 0.5z" />
    <glyph glyph-name="uhorn" unicode="&#x1b0;" horiz-adv-x="600" 
d="M521 777h90q6 0 9 -0.5t5.5 -4t0.5 -10.5l-50 -142q-2 -7 -5.5 -10.5t-6.5 -4t-11 -0.5h-18v-485q0 -63 -33 -94q-14 -12 -42 -18q-25 -5 -47 -7q-13 -1 -58 -1h-120q-45 0 -58 1q-23 2 -48 7q-39 8 -54.5 32.5t-19.5 79.5v580q0 9 3.5 14t6.5 5.5t10 0.5h120
q7 0 10 -0.5t6.5 -5.5t3.5 -14v-540q0 -9 3.5 -14t6.5 -5.5t10 -0.5h120q7 0 10 0.5t6.5 5.5t3.5 14v540q0 9 3.5 14t6.5 5.5t10 0.5h98l8 42q1 7 4 10.5t6 4t10 0.5z" />
    <glyph glyph-name="circumflex" unicode="&#x2c6;" horiz-adv-x="456" 
d="M403 800h-85q-12 0 -17 1t-10 5t-10 14l-40 80h-20l-40 -80q-7 -14 -13 -17t-24 -3h-85q-11 0 -13.5 2.5t1.5 17.5l80 160q7 14 13 17t24 3h134q12 0 17 -1t10 -5t10 -14l80 -160q8 -10 4.5 -14.5t-6.5 -5t-10 -0.5z" />
    <glyph glyph-name="caron" unicode="&#x2c7;" horiz-adv-x="456" 
d="M318 1000h85q7 0 10 -0.5t6.5 -5t-4.5 -14.5l-80 -160q-7 -14 -13 -17t-24 -3h-134q-12 0 -17 1t-10 5t-10 14l-80 160q-4 15 -1.5 17.5t13.5 2.5h85q12 0 17 -1t10 -5t10 -14l40 -80h20l40 80q7 14 13 17t24 3z" />
    <glyph glyph-name="uni02C9" unicode="&#x2c9;" horiz-adv-x="420" 
d="M60 900h300q7 0 10 -0.5t6.5 -5.5t3.5 -14v-60q0 -9 -3.5 -14t-6.5 -5.5t-10 -0.5h-300q-7 0 -10 0.5t-6.5 5.5t-3.5 14v60q0 9 3.5 14t6.5 5.5t10 0.5z" />
    <glyph glyph-name="breve" unicode="&#x2d8;" horiz-adv-x="400" 
d="M260 1000h80q7 0 10 -0.5t6.5 -5.5t3.5 -14v-90q0 -47 -26 -71q-10 -10 -31 -14q-29 -5 -83 -5h-40q-54 0 -83 5q-29 7 -41 25.5t-16 59.5v90q0 9 3.5 14t6.5 5.5t10 0.5h80q7 0 10 -0.5t6.5 -5.5t3.5 -14v-60q0 -9 3.5 -14t6.5 -5.5t10 -0.5h40q7 0 10 0.5t6.5 5.5
t3.5 14v60q0 9 3.5 14t6.5 5.5t10 0.5z" />
    <glyph glyph-name="dotaccent" unicode="&#x2d9;" horiz-adv-x="260" 
d="M66 944q26 26 64 26t64 -26t26 -64t-26 -64t-64 -26t-64 26t-26 64t26 64z" />
    <glyph glyph-name="ring" unicode="&#x2da;" horiz-adv-x="360" 
d="M81 1029q41 41 99 41t99 -41t41 -99t-41 -99t-99 -41t-99 41t-41 99t41 99zM152 902q16 -18 38.5 -10t28 28t-10.5 38t-38.5 10t-28 -28t10.5 -38z" />
    <glyph glyph-name="ogonek" unicode="&#x2db;" horiz-adv-x="360" 
d="M180 -200h120q7 0 10 -0.5t6.5 -5.5t3.5 -14v-60q0 -9 -3.5 -14t-6.5 -5.5t-10 -0.5h-120q-58 0 -83 6q-29 5 -41 23.5t-16 60.5v190q0 9 3.5 14t6.5 5.5t10 0.5h80q7 0 10 -0.5t6.5 -5.5t3.5 -14v-160q0 -9 3.5 -14t6.5 -5.5t10 -0.5z" />
    <glyph glyph-name="tilde" unicode="&#x2dc;" horiz-adv-x="420" 
d="M280 1040h80q7 0 10 -0.5t6.5 -5.5t3.5 -14v-60q0 -47 -26 -71q-10 -10 -31 -14q-29 -5 -83 -5h-60q-7 0 -10 -0.5t-6.5 -5.5t-3.5 -14v-30q0 -9 -3.5 -14t-6.5 -5.5t-10 -0.5h-80q-7 0 -10 0.5t-6.5 5.5t-3.5 14v60q0 46 25 71q10 9 32 13q25 6 83 6h60q7 0 10 0.5
t6.5 5.5t3.5 14v30q0 9 3.5 14t6.5 5.5t10 0.5z" />
    <glyph glyph-name="hungarumlaut" unicode="&#x2dd;" horiz-adv-x="476" 
d="M129 1000h105q7 0 10 -0.5t6.5 -5t-4.5 -14.5l-80 -160q-7 -14 -13 -17t-24 -3h-65q-8 0 -11 0.5t-8 5t1 14.5l53 160q5 13 10.5 16.5t19.5 3.5zM319 1000h105q7 0 10 -0.5t6.5 -5t-4.5 -14.5l-80 -160q-7 -14 -13 -17t-24 -3h-65q-8 0 -11 0.5t-8 5t1 14.5l53 160
q5 13 10.5 16.5t19.5 3.5z" />
    <glyph glyph-name="uni03A9" unicode="&#x3a9;" horiz-adv-x="580" 
d="M530 600v-320q0 -39 -5 -62q-10 -42 -75 -58v-20h80q7 0 10 -0.5t6.5 -5.5t3.5 -14v-100q0 -9 -3.5 -14t-6.5 -5.5t-10 -0.5h-200q-7 0 -10 0.5t-6.5 5.5t-3.5 14v180q0 9 3.5 14t6.5 5.5t10 0.5h20q7 0 10 0.5t6.5 5.5t3.5 14v320q0 9 -3.5 14t-6.5 5.5t-10 0.5h-120
q-7 0 -10 -0.5t-6.5 -5.5t-3.5 -14v-320q0 -9 3.5 -14t6.5 -5.5t10 -0.5h20q7 0 10 -0.5t6.5 -5.5t3.5 -14v-180q0 -9 -3.5 -14t-6.5 -5.5t-10 -0.5h-200q-7 0 -10 0.5t-6.5 5.5t-3.5 14v100q0 9 3.5 14t6.5 5.5t10 0.5h80v20q-43 11 -63 33q-8 9 -12 25q-5 23 -5 62v320
q0 63 33 94q14 12 41 18q25 5 48 7q13 1 58 1h120q45 0 58 -1q22 -2 47 -7q29 -6 42 -18q33 -31 33 -94z" />
    <glyph glyph-name="uni03BC" unicode="&#x3bc;" horiz-adv-x="575" 
d="M380 540h120q7 0 10 -0.5t6.5 -5.5t3.5 -14v-400q0 -63 -33 -94q-13 -12 -42 -18q-25 -5 -47 -7q-13 -1 -58 -1h-120v-140q0 -9 -3.5 -14t-6.5 -5.5t-10 -0.5h-120q-7 0 -10 0.5t-6.5 5.5t-3.5 14v660q0 9 3.5 14t6.5 5.5t10 0.5h120q7 0 10 -0.5t6.5 -5.5t3.5 -14v-380
h120q7 0 10 0.5t6.5 5.5t3.5 14v360q0 9 3.5 14t6.5 5.5t10 0.5z" />
    <glyph glyph-name="pi" unicode="&#x3c0;" horiz-adv-x="610" 
d="M55 540h500q7 0 10 -0.5t6.5 -5.5t3.5 -14v-100q0 -9 -3.5 -14t-6.5 -5.5t-10 -0.5h-40v-380q0 -9 -3.5 -14t-6.5 -5.5t-10 -0.5h-120q-7 0 -10 0.5t-6.5 5.5t-3.5 14v380h-100v-380q0 -9 -3.5 -14t-6.5 -5.5t-10 -0.5h-120q-7 0 -10 0.5t-6.5 5.5t-3.5 14v380h-40
q-7 0 -10 0.5t-6.5 5.5t-3.5 14v100q0 9 3.5 14t6.5 5.5t10 0.5z" />
    <glyph glyph-name="uni1EA0" unicode="&#x1ea0;" horiz-adv-x="573" 
d="M244 -67q22 21 52.5 21t51.5 -21q22 -22 22 -52.5t-22 -51.5q-21 -22 -51.5 -22t-52.5 22q-21 21 -21 51.5t21 52.5zM440 700l114 -680q2 -13 -2.5 -16.5t-18.5 -3.5h-115q-10 0 -13.5 0.5t-7.5 5t-5 14.5l-22 130h-163l-22 -130q-2 -14 -7 -17t-20 -3h-115h-10t-7 2
t-3.5 6t0.5 12l113 680q2 13 7.5 16.5t19.5 3.5h251q10 0 13.5 -0.5t7.5 -5t5 -14.5zM278 580l-48 -290h117l-49 290h-20z" />
    <glyph glyph-name="uni1EA1" unicode="&#x1ea1;" 
d="M244 -67q22 21 52.5 21t51.5 -21q22 -22 22 -52.5t-22 -51.5q-21 -22 -51.5 -22t-52.5 22q-21 21 -21 51.5t21 52.5zM235 720h120q45 0 58 -1q22 -2 47 -7q28 -6 42 -18q33 -31 33 -94v-580q0 -9 -3.5 -14t-6.5 -5.5t-10 -0.5h-120q-7 0 -10 0.5t-6.5 5.5t-3.5 14v210
h-160v-210q0 -9 -3.5 -14t-6.5 -5.5t-10 -0.5h-120q-7 0 -10 0.5t-6.5 5.5t-3.5 14v580q0 63 33 94q14 12 41 18q25 5 48 7q13 1 58 1zM215 370h160v190q0 9 -3.5 14t-6.5 5.5t-10 0.5h-120q-7 0 -10 -0.5t-6.5 -5.5t-3.5 -14v-190z" />
    <glyph glyph-name="uni1EA2" unicode="&#x1ea2;" horiz-adv-x="573" 
d="M342 779h-11v-10q0 -10 -10 -10h-52q-10 0 -10 10v54q0 5 2 7.5t3 2.5h5h35q9 0 9 10q0 5 -1.5 7t-2.5 2h-5h-62q-10 0 -10 11v41q0 11 10 11h82q25 0 37 -1.5t23 -12t11 -32.5v-44q0 -24 -13 -37q-4 -4 -17 -6q-15 -3 -23 -3zM440 700l114 -680q2 -13 -2.5 -16.5
t-18.5 -3.5h-115q-10 0 -13.5 0.5t-7.5 5t-5 14.5l-22 130h-163l-22 -130q-2 -14 -7 -17t-20 -3h-115h-10t-7 2t-3.5 6t0.5 12l113 680q2 13 7.5 16.5t19.5 3.5h251q10 0 13.5 -0.5t7.5 -5t5 -14.5zM278 580l-48 -290h117l-49 290h-20z" />
    <glyph glyph-name="uni1EA3" unicode="&#x1ea3;" 
d="M344 779h-11v-10q0 -10 -10 -10h-52q-10 0 -10 10v54q0 5 2 7.5t3 2.5h5h35q9 0 9 10q0 5 -1.5 7t-2.5 2h-5h-62q-10 0 -10 11v41q0 11 10 11h82q25 0 37 -1.5t23 -12t11 -32.5v-44q0 -24 -13 -37q-4 -4 -17 -6q-15 -3 -23 -3zM235 720h120q45 0 58 -1q22 -2 47 -7
q28 -6 42 -18q33 -31 33 -94v-580q0 -9 -3.5 -14t-6.5 -5.5t-10 -0.5h-120q-7 0 -10 0.5t-6.5 5.5t-3.5 14v210h-160v-210q0 -9 -3.5 -14t-6.5 -5.5t-10 -0.5h-120q-7 0 -10 0.5t-6.5 5.5t-3.5 14v580q0 63 33 94q14 12 41 18q25 5 48 7q13 1 58 1zM215 370h160v190
q0 9 -3.5 14t-6.5 5.5t-10 0.5h-120q-7 0 -10 -0.5t-6.5 -5.5t-3.5 -14v-190z" />
    <glyph glyph-name="uni1EA4" unicode="&#x1ea4;" horiz-adv-x="573" 
d="M469 843h-46q-7 0 -9.5 0.5t-5.5 3.5t1 9l58 103q3 7 8 10t7 3h13h88q17 0 8 -14l-89 -102q-7 -13 -33 -13zM440 700l114 -680q2 -13 -2.5 -16.5t-18.5 -3.5h-115q-10 0 -13.5 0.5t-7.5 5t-5 14.5l-22 130h-163l-22 -130q-2 -14 -7 -17t-20 -3h-115h-10t-7 2t-3.5 6
t0.5 12l113 680q2 13 7.5 16.5t19.5 3.5h251q10 0 13.5 -0.5t7.5 -5t5 -14.5zM278 580l-48 -290h117l-49 290h-20zM217 759h-65q-18 0 -10 15q77 110 82 112q6 2 18 2h88q10 0 13 -1q4 0 7 -3q2 -1 80 -110q8 -15 -10 -15h-65q-10 0 -17 4q-9 5 -53 51q-45 -49 -52 -52
t-16 -3z" />
    <glyph glyph-name="uni1EA5" unicode="&#x1ea5;" 
d="M477 843h-46q-7 0 -9.5 0.5t-5.5 3.5t1 9l58 103q3 7 8 10t7 3h13h88q17 0 8 -14l-89 -102q-7 -13 -33 -13zM235 720h120q45 0 58 -1q22 -2 47 -7q28 -6 42 -18q33 -31 33 -94v-580q0 -9 -3.5 -14t-6.5 -5.5t-10 -0.5h-120q-7 0 -10 0.5t-6.5 5.5t-3.5 14v210h-160v-210
q0 -9 -3.5 -14t-6.5 -5.5t-10 -0.5h-120q-7 0 -10 0.5t-6.5 5.5t-3.5 14v580q0 63 33 94q14 12 41 18q25 5 48 7q13 1 58 1zM215 370h160v190q0 9 -3.5 14t-6.5 5.5t-10 0.5h-120q-7 0 -10 -0.5t-6.5 -5.5t-3.5 -14v-190zM225 759h-65q-18 0 -10 15q77 110 82 112q6 2 18 2
h88q10 0 13 -1q4 0 7 -3q2 -1 80 -110q8 -15 -10 -15h-65q-10 0 -17 4q-9 5 -53 51q-45 -49 -52 -52t-16 -3z" />
    <glyph glyph-name="uni1EA6" unicode="&#x1ea6;" horiz-adv-x="573" 
d="M490 843h-46q-26 0 -33 13l-89 102q-9 14 8 14h88h4q18 0 24 -13l58 -103q4 -9 0 -11t-14 -2zM440 700l114 -680q2 -13 -2.5 -16.5t-18.5 -3.5h-115q-10 0 -13.5 0.5t-7.5 5t-5 14.5l-22 130h-163l-22 -130q-2 -14 -7 -17t-20 -3h-115h-10t-7 2t-3.5 6t0.5 12l113 680
q2 13 7.5 16.5t19.5 3.5h251q10 0 13.5 -0.5t7.5 -5t5 -14.5zM278 580l-48 -290h117l-49 290h-20zM217 759h-65q-18 0 -10 15q77 110 82 112q6 2 18 2h88q10 0 13 -1q4 0 7 -3q2 -1 80 -110q8 -15 -10 -15h-65q-10 0 -17 4q-9 5 -53 51q-45 -49 -52 -52t-16 -3z" />
    <glyph glyph-name="uni1EA7" unicode="&#x1ea7;" 
d="M498 843h-46q-26 0 -33 13l-89 102q-9 14 8 14h88h4q18 0 24 -13l58 -103q4 -9 0 -11t-14 -2zM235 720h120q45 0 58 -1q22 -2 47 -7q28 -6 42 -18q33 -31 33 -94v-580q0 -9 -3.5 -14t-6.5 -5.5t-10 -0.5h-120q-7 0 -10 0.5t-6.5 5.5t-3.5 14v210h-160v-210q0 -9 -3.5 -14
t-6.5 -5.5t-10 -0.5h-120q-7 0 -10 0.5t-6.5 5.5t-3.5 14v580q0 63 33 94q14 12 41 18q25 5 48 7q13 1 58 1zM215 370h160v190q0 9 -3.5 14t-6.5 5.5t-10 0.5h-120q-7 0 -10 -0.5t-6.5 -5.5t-3.5 -14v-190zM225 759h-65q-18 0 -10 15q77 110 82 112q6 2 18 2h88q10 0 13 -1
q4 0 7 -3q2 -1 80 -110q8 -15 -10 -15h-65q-10 0 -17 4q-9 5 -53 51q-45 -49 -52 -52t-16 -3z" />
    <glyph glyph-name="uni1EA8" unicode="&#x1ea8;" horiz-adv-x="573" 
d="M488 863h-11v-10q0 -10 -10 -10h-52q-10 0 -10 10v54q0 5 2 7.5t3 2.5h5h35q9 0 9 10q0 5 -1.5 7t-2.5 2h-5h-62q-10 0 -10 11v41q0 11 10 11h82q25 0 37 -1.5t23 -12t11 -32.5v-44q0 -24 -13 -37q-4 -4 -17 -6q-15 -3 -23 -3zM440 700l114 -680q2 -13 -2.5 -16.5
t-18.5 -3.5h-115q-10 0 -13.5 0.5t-7.5 5t-5 14.5l-22 130h-163l-22 -130q-2 -14 -7 -17t-20 -3h-115h-10t-7 2t-3.5 6t0.5 12l113 680q2 13 7.5 16.5t19.5 3.5h251q10 0 13.5 -0.5t7.5 -5t5 -14.5zM278 580l-48 -290h117l-49 290h-20zM217 759h-65q-18 0 -10 15
q77 110 82 112q6 2 18 2h88q10 0 13 -1q4 0 7 -3q2 -1 80 -110q8 -15 -10 -15h-65q-10 0 -17 4q-9 5 -53 51q-45 -49 -52 -52t-16 -3z" />
    <glyph glyph-name="uni1EA9" unicode="&#x1ea9;" 
d="M496 863h-11v-10q0 -10 -10 -10h-52q-10 0 -10 10v54q0 5 2 7.5t3 2.5h5h35q9 0 9 10q0 5 -1.5 7t-2.5 2h-5h-62q-10 0 -10 11v41q0 11 10 11h82q25 0 37 -1.5t23 -12t11 -32.5v-44q0 -24 -13 -37q-4 -4 -17 -6q-15 -3 -23 -3zM235 720h120q45 0 58 -1q22 -2 47 -7
q28 -6 42 -18q33 -31 33 -94v-580q0 -9 -3.5 -14t-6.5 -5.5t-10 -0.5h-120q-7 0 -10 0.5t-6.5 5.5t-3.5 14v210h-160v-210q0 -9 -3.5 -14t-6.5 -5.5t-10 -0.5h-120q-7 0 -10 0.5t-6.5 5.5t-3.5 14v580q0 63 33 94q14 12 41 18q25 5 48 7q13 1 58 1zM215 370h160v190
q0 9 -3.5 14t-6.5 5.5t-10 0.5h-120q-7 0 -10 -0.5t-6.5 -5.5t-3.5 -14v-190zM225 759h-65q-18 0 -10 15q77 110 82 112q6 2 18 2h88q10 0 13 -1q4 0 7 -3q2 -1 80 -110q8 -15 -10 -15h-65q-10 0 -17 4q-9 5 -53 51q-45 -49 -52 -52t-16 -3z" />
    <glyph glyph-name="uni1EAA" unicode="&#x1eaa;" horiz-adv-x="573" 
d="M214 904l-51 19q-14 7 -9 19l14 41q16 48 56 43q17 -2 38 -10q2 -1 17 -6l42 -17q7 0 11 7q5 15 7 20q3 9 8.5 10.5t11.5 -1.5l52 -19q13 -8 8 -19q-9 -27 -13 -38q-12 -26 -25 -37t-33 -9q-18 2 -38 10q-10 4 -16 6l-42 17q-7 0 -11 -7q-5 -15 -7 -20q-3 -11 -20 -9z
M440 700l114 -680q2 -13 -2.5 -16.5t-18.5 -3.5h-115q-10 0 -13.5 0.5t-7.5 5t-5 14.5l-22 130h-163l-22 -130q-2 -14 -7 -17t-20 -3h-115h-10t-7 2t-3.5 6t0.5 12l113 680q2 13 7.5 16.5t19.5 3.5h251q10 0 13.5 -0.5t7.5 -5t5 -14.5zM278 580l-48 -290h117l-49 290h-20z
M217 759h-65q-18 0 -10 15q77 110 82 112q6 2 18 2h88q10 0 13 -1q4 0 7 -3q2 -1 80 -110q8 -15 -10 -15h-65q-10 0 -17 4q-9 5 -53 51q-45 -49 -52 -52t-16 -3z" />
    <glyph glyph-name="uni1EAB" unicode="&#x1eab;" 
d="M222 904l-51 19q-14 7 -9 19l14 41q16 48 56 43q17 -2 38 -10q2 -1 17 -6l42 -17q7 0 11 7q5 15 7 20q3 9 8.5 10.5t11.5 -1.5l52 -19q13 -8 8 -19q-9 -27 -13 -38q-12 -26 -25 -37t-33 -9q-18 2 -38 10q-10 4 -16 6l-42 17q-7 0 -11 -7q-5 -15 -7 -20q-3 -11 -20 -9z
M235 720h120q45 0 58 -1q22 -2 47 -7q28 -6 42 -18q33 -31 33 -94v-580q0 -9 -3.5 -14t-6.5 -5.5t-10 -0.5h-120q-7 0 -10 0.5t-6.5 5.5t-3.5 14v210h-160v-210q0 -9 -3.5 -14t-6.5 -5.5t-10 -0.5h-120q-7 0 -10 0.5t-6.5 5.5t-3.5 14v580q0 63 33 94q14 12 41 18q25 5 48 7
q13 1 58 1zM215 370h160v190q0 9 -3.5 14t-6.5 5.5t-10 0.5h-120q-7 0 -10 -0.5t-6.5 -5.5t-3.5 -14v-190zM225 759h-65q-18 0 -10 15q77 110 82 112q6 2 18 2h88q10 0 13 -1q4 0 7 -3q2 -1 80 -110q8 -15 -10 -15h-65q-10 0 -17 4q-9 5 -53 51q-45 -49 -52 -52t-16 -3z" />
    <glyph glyph-name="uni1EAC" unicode="&#x1eac;" horiz-adv-x="573" 
d="M244 -67q22 21 52.5 21t51.5 -21q22 -22 22 -52.5t-22 -51.5q-21 -22 -51.5 -22t-52.5 22q-21 21 -21 51.5t21 52.5zM440 700l114 -680q2 -13 -2.5 -16.5t-18.5 -3.5h-115q-10 0 -13.5 0.5t-7.5 5t-5 14.5l-22 130h-163l-22 -130q-2 -14 -7 -17t-20 -3h-115h-10t-7 2
t-3.5 6t0.5 12l113 680q2 13 7.5 16.5t19.5 3.5h251q10 0 13.5 -0.5t7.5 -5t5 -14.5zM278 580l-48 -290h117l-49 290h-20zM217 759h-65q-18 0 -10 15q77 110 82 112q6 2 18 2h88q10 0 13 -1q4 0 7 -3q2 -1 80 -110q8 -15 -10 -15h-65q-10 0 -17 4q-9 5 -53 51
q-45 -49 -52 -52t-16 -3z" />
    <glyph glyph-name="uni1EAD" unicode="&#x1ead;" 
d="M244 -67q22 21 52.5 21t51.5 -21q22 -22 22 -52.5t-22 -51.5q-21 -22 -51.5 -22t-52.5 22q-21 21 -21 51.5t21 52.5zM235 720h120q45 0 58 -1q22 -2 47 -7q28 -6 42 -18q33 -31 33 -94v-580q0 -9 -3.5 -14t-6.5 -5.5t-10 -0.5h-120q-7 0 -10 0.5t-6.5 5.5t-3.5 14v210
h-160v-210q0 -9 -3.5 -14t-6.5 -5.5t-10 -0.5h-120q-7 0 -10 0.5t-6.5 5.5t-3.5 14v580q0 63 33 94q14 12 41 18q25 5 48 7q13 1 58 1zM215 370h160v190q0 9 -3.5 14t-6.5 5.5t-10 0.5h-120q-7 0 -10 -0.5t-6.5 -5.5t-3.5 -14v-190zM225 759h-65q-18 0 -10 15q77 110 82 112
q6 2 18 2h88q10 0 13 -1q4 0 7 -3q2 -1 80 -110q8 -15 -10 -15h-65q-10 0 -17 4q-9 5 -53 51q-45 -49 -52 -52t-16 -3z" />
    <glyph glyph-name="uni1EAE" unicode="&#x1eae;" horiz-adv-x="573" 
d="M305 895h-46q-7 0 -9.5 0.5t-5.5 3.5t1 9l58 103q3 7 8 10t7 3h13h88q17 0 8 -14l-89 -102q-7 -13 -33 -13zM333 878h67q4 0 6 -0.5t4.5 -3.5t2.5 -9v-48q0 -31 -17 -46q-6 -6 -20 -9q-19 -3 -53 -3h-72q-34 0 -53 3q-37 8 -37 55v48q0 9 3.5 11t9.5 2h67q5 0 7 -0.5
t4 -3.5t2 -9v-24q0 -9 3.5 -11t9.5 -2h40q4 0 6 0.5t4.5 3.5t2.5 9v24q0 9 3 11t10 2zM440 700l114 -680q2 -13 -2.5 -16.5t-18.5 -3.5h-115q-10 0 -13.5 0.5t-7.5 5t-5 14.5l-22 130h-163l-22 -130q-2 -14 -7 -17t-20 -3h-115h-10t-7 2t-3.5 6t0.5 12l113 680
q2 13 7.5 16.5t19.5 3.5h251q10 0 13.5 -0.5t7.5 -5t5 -14.5zM278 580l-48 -290h117l-49 290h-20z" />
    <glyph glyph-name="uni1EAF" unicode="&#x1eaf;" 
d="M313 895h-46q-7 0 -9.5 0.5t-5.5 3.5t1 9l58 103q3 7 8 10t7 3h13h88q17 0 8 -14l-89 -102q-7 -13 -33 -13zM235 720h120q45 0 58 -1q22 -2 47 -7q28 -6 42 -18q33 -31 33 -94v-580q0 -9 -3.5 -14t-6.5 -5.5t-10 -0.5h-120q-7 0 -10 0.5t-6.5 5.5t-3.5 14v210h-160v-210
q0 -9 -3.5 -14t-6.5 -5.5t-10 -0.5h-120q-7 0 -10 0.5t-6.5 5.5t-3.5 14v580q0 63 33 94q14 12 41 18q25 5 48 7q13 1 58 1zM215 370h160v190q0 9 -3.5 14t-6.5 5.5t-10 0.5h-120q-7 0 -10 -0.5t-6.5 -5.5t-3.5 -14v-190zM341 878h67q4 0 6 -0.5t4.5 -3.5t2.5 -9v-48
q0 -31 -17 -46q-6 -6 -20 -9q-19 -3 -53 -3h-72q-34 0 -53 3q-37 8 -37 55v48q0 9 3.5 11t9.5 2h67q5 0 7 -0.5t4 -3.5t2 -9v-24q0 -9 3.5 -11t9.5 -2h40q4 0 6 0.5t4.5 3.5t2.5 9v24q0 9 3 11t10 2z" />
    <glyph glyph-name="uni1EB0" unicode="&#x1eb0;" horiz-adv-x="573" 
d="M320 895h-46q-26 0 -33 13l-89 102q-9 14 8 14h88h4q18 0 24 -13l58 -103q4 -9 0 -11t-14 -2zM333 878h67q4 0 6 -0.5t4.5 -3.5t2.5 -9v-48q0 -31 -17 -46q-6 -6 -20 -9q-19 -3 -53 -3h-72q-34 0 -53 3q-37 8 -37 55v48q0 9 3.5 11t9.5 2h67q5 0 7 -0.5t4 -3.5t2 -9v-24
q0 -9 3.5 -11t9.5 -2h40q4 0 6 0.5t4.5 3.5t2.5 9v24q0 9 3 11t10 2zM440 700l114 -680q2 -13 -2.5 -16.5t-18.5 -3.5h-115q-10 0 -13.5 0.5t-7.5 5t-5 14.5l-22 130h-163l-22 -130q-2 -14 -7 -17t-20 -3h-115h-10t-7 2t-3.5 6t0.5 12l113 680q2 13 7.5 16.5t19.5 3.5h251
q10 0 13.5 -0.5t7.5 -5t5 -14.5zM278 580l-48 -290h117l-49 290h-20z" />
    <glyph glyph-name="uni1EB1" unicode="&#x1eb1;" 
d="M328 895h-46q-26 0 -33 13l-89 102q-9 14 8 14h88h4q18 0 24 -13l58 -103q4 -9 0 -11t-14 -2zM235 720h120q45 0 58 -1q22 -2 47 -7q28 -6 42 -18q33 -31 33 -94v-580q0 -9 -3.5 -14t-6.5 -5.5t-10 -0.5h-120q-7 0 -10 0.5t-6.5 5.5t-3.5 14v210h-160v-210q0 -9 -3.5 -14
t-6.5 -5.5t-10 -0.5h-120q-7 0 -10 0.5t-6.5 5.5t-3.5 14v580q0 63 33 94q14 12 41 18q25 5 48 7q13 1 58 1zM215 370h160v190q0 9 -3.5 14t-6.5 5.5t-10 0.5h-120q-7 0 -10 -0.5t-6.5 -5.5t-3.5 -14v-190zM341 878h67q4 0 6 -0.5t4.5 -3.5t2.5 -9v-48q0 -31 -17 -46
q-6 -6 -20 -9q-19 -3 -53 -3h-72q-34 0 -53 3q-37 8 -37 55v48q0 9 3.5 11t9.5 2h67q5 0 7 -0.5t4 -3.5t2 -9v-24q0 -9 3.5 -11t9.5 -2h40q4 0 6 0.5t4.5 3.5t2.5 9v24q0 9 3 11t10 2z" />
    <glyph glyph-name="uni1EB2" unicode="&#x1eb2;" horiz-adv-x="573" 
d="M335 915h-11v-10q0 -10 -10 -10h-52q-10 0 -10 10v54q0 5 2 7.5t3 2.5h5h35q9 0 9 10q0 5 -1.5 7t-2.5 2h-5h-62q-10 0 -10 11v41q0 11 10 11h82q25 0 37 -1.5t23 -12t11 -32.5v-44q0 -24 -13 -37q-4 -4 -17 -6q-15 -3 -23 -3zM333 878h67q4 0 6 -0.5t4.5 -3.5t2.5 -9
v-48q0 -31 -17 -46q-6 -6 -20 -9q-19 -3 -53 -3h-72q-34 0 -53 3q-37 8 -37 55v48q0 9 3.5 11t9.5 2h67q5 0 7 -0.5t4 -3.5t2 -9v-24q0 -9 3.5 -11t9.5 -2h40q4 0 6 0.5t4.5 3.5t2.5 9v24q0 9 3 11t10 2zM440 700l114 -680q2 -13 -2.5 -16.5t-18.5 -3.5h-115
q-10 0 -13.5 0.5t-7.5 5t-5 14.5l-22 130h-163l-22 -130q-2 -14 -7 -17t-20 -3h-115h-10t-7 2t-3.5 6t0.5 12l113 680q2 13 7.5 16.5t19.5 3.5h251q10 0 13.5 -0.5t7.5 -5t5 -14.5zM278 580l-48 -290h117l-49 290h-20z" />
    <glyph glyph-name="uni1EB3" unicode="&#x1eb3;" 
d="M343 915h-11v-10q0 -10 -10 -10h-52q-10 0 -10 10v54q0 5 2 7.5t3 2.5h5h35q9 0 9 10q0 5 -1.5 7t-2.5 2h-5h-62q-10 0 -10 11v41q0 11 10 11h82q25 0 37 -1.5t23 -12t11 -32.5v-44q0 -24 -13 -37q-4 -4 -17 -6q-15 -3 -23 -3zM235 720h120q45 0 58 -1q22 -2 47 -7
q28 -6 42 -18q33 -31 33 -94v-580q0 -9 -3.5 -14t-6.5 -5.5t-10 -0.5h-120q-7 0 -10 0.5t-6.5 5.5t-3.5 14v210h-160v-210q0 -9 -3.5 -14t-6.5 -5.5t-10 -0.5h-120q-7 0 -10 0.5t-6.5 5.5t-3.5 14v580q0 63 33 94q14 12 41 18q25 5 48 7q13 1 58 1zM215 370h160v190
q0 9 -3.5 14t-6.5 5.5t-10 0.5h-120q-7 0 -10 -0.5t-6.5 -5.5t-3.5 -14v-190zM341 878h67q4 0 6 -0.5t4.5 -3.5t2.5 -9v-48q0 -31 -17 -46q-6 -6 -20 -9q-19 -3 -53 -3h-72q-34 0 -53 3q-37 8 -37 55v48q0 9 3.5 11t9.5 2h67q5 0 7 -0.5t4 -3.5t2 -9v-24q0 -9 3.5 -11
t9.5 -2h40q4 0 6 0.5t4.5 3.5t2.5 9v24q0 9 3 11t10 2z" />
    <glyph glyph-name="uni1EB4" unicode="&#x1eb4;" horiz-adv-x="573" 
d="M211 895l-51 19q-14 7 -9 19l14 41q16 48 56 43q17 -2 38 -10q2 -1 17 -6l42 -17q8 0 11 7q5 15 7 20q3 9 8.5 10.5t11.5 -1.5l52 -19q13 -8 8 -19q-9 -27 -13 -38q-12 -26 -25 -37t-33 -9q-18 2 -38 10q-10 4 -16 6l-42 17q-7 0 -11 -7q-5 -15 -7 -20q-3 -11 -20 -9z
M333 878h67q4 0 6 -0.5t4.5 -3.5t2.5 -9v-48q0 -31 -17 -46q-6 -6 -20 -9q-19 -3 -53 -3h-72q-34 0 -53 3q-37 8 -37 55v48q0 9 3.5 11t9.5 2h67q5 0 7 -0.5t4 -3.5t2 -9v-24q0 -9 3.5 -11t9.5 -2h40q4 0 6 0.5t4.5 3.5t2.5 9v24q0 9 3 11t10 2zM440 700l114 -680
q2 -13 -2.5 -16.5t-18.5 -3.5h-115q-10 0 -13.5 0.5t-7.5 5t-5 14.5l-22 130h-163l-22 -130q-2 -14 -7 -17t-20 -3h-115h-10t-7 2t-3.5 6t0.5 12l113 680q2 13 7.5 16.5t19.5 3.5h251q10 0 13.5 -0.5t7.5 -5t5 -14.5zM278 580l-48 -290h117l-49 290h-20z" />
    <glyph glyph-name="uni1EB5" unicode="&#x1eb5;" 
d="M219 895l-51 19q-14 7 -9 19l14 41q16 48 56 43q17 -2 38 -10q2 -1 17 -6l42 -17q8 0 11 7q5 15 7 20q3 9 8.5 10.5t11.5 -1.5l52 -19q13 -8 8 -19q-9 -27 -13 -38q-12 -26 -25 -37t-33 -9q-18 2 -38 10q-10 4 -16 6l-42 17q-7 0 -11 -7q-5 -15 -7 -20q-3 -11 -20 -9z
M235 720h120q45 0 58 -1q22 -2 47 -7q28 -6 42 -18q33 -31 33 -94v-580q0 -9 -3.5 -14t-6.5 -5.5t-10 -0.5h-120q-7 0 -10 0.5t-6.5 5.5t-3.5 14v210h-160v-210q0 -9 -3.5 -14t-6.5 -5.5t-10 -0.5h-120q-7 0 -10 0.5t-6.5 5.5t-3.5 14v580q0 63 33 94q14 12 41 18q25 5 48 7
q13 1 58 1zM215 370h160v190q0 9 -3.5 14t-6.5 5.5t-10 0.5h-120q-7 0 -10 -0.5t-6.5 -5.5t-3.5 -14v-190zM341 878h67q4 0 6 -0.5t4.5 -3.5t2.5 -9v-48q0 -31 -17 -46q-6 -6 -20 -9q-19 -3 -53 -3h-72q-34 0 -53 3q-37 8 -37 55v48q0 9 3.5 11t9.5 2h67q5 0 7 -0.5t4 -3.5
t2 -9v-24q0 -9 3.5 -11t9.5 -2h40q4 0 6 0.5t4.5 3.5t2.5 9v24q0 9 3 11t10 2z" />
    <glyph glyph-name="uni1EB6" unicode="&#x1eb6;" horiz-adv-x="573" 
d="M244 -67q22 21 52.5 21t51.5 -21q22 -22 22 -52.5t-22 -51.5q-21 -22 -51.5 -22t-52.5 22q-21 21 -21 51.5t21 52.5zM333 878h67q4 0 6 -0.5t4.5 -3.5t2.5 -9v-48q0 -31 -17 -46q-6 -6 -20 -9q-19 -3 -53 -3h-72q-34 0 -53 3q-37 8 -37 55v48q0 9 3.5 11t9.5 2h67
q5 0 7 -0.5t4 -3.5t2 -9v-24q0 -9 3.5 -11t9.5 -2h40q4 0 6 0.5t4.5 3.5t2.5 9v24q0 9 3 11t10 2zM440 700l114 -680q2 -13 -2.5 -16.5t-18.5 -3.5h-115q-10 0 -13.5 0.5t-7.5 5t-5 14.5l-22 130h-163l-22 -130q-2 -14 -7 -17t-20 -3h-115h-10t-7 2t-3.5 6t0.5 12l113 680
q2 13 7.5 16.5t19.5 3.5h251q10 0 13.5 -0.5t7.5 -5t5 -14.5zM278 580l-48 -290h117l-49 290h-20z" />
    <glyph glyph-name="uni1EB7" unicode="&#x1eb7;" 
d="M244 -67q22 21 52.5 21t51.5 -21q22 -22 22 -52.5t-22 -51.5q-21 -22 -51.5 -22t-52.5 22q-21 21 -21 51.5t21 52.5zM235 720h120q45 0 58 -1q22 -2 47 -7q28 -6 42 -18q33 -31 33 -94v-580q0 -9 -3.5 -14t-6.5 -5.5t-10 -0.5h-120q-7 0 -10 0.5t-6.5 5.5t-3.5 14v210
h-160v-210q0 -9 -3.5 -14t-6.5 -5.5t-10 -0.5h-120q-7 0 -10 0.5t-6.5 5.5t-3.5 14v580q0 63 33 94q14 12 41 18q25 5 48 7q13 1 58 1zM215 370h160v190q0 9 -3.5 14t-6.5 5.5t-10 0.5h-120q-7 0 -10 -0.5t-6.5 -5.5t-3.5 -14v-190zM341 878h67q4 0 6 -0.5t4.5 -3.5t2.5 -9
v-48q0 -31 -17 -46q-6 -6 -20 -9q-19 -3 -53 -3h-72q-34 0 -53 3q-37 8 -37 55v48q0 9 3.5 11t9.5 2h67q5 0 7 -0.5t4 -3.5t2 -9v-24q0 -9 3.5 -11t9.5 -2h40q4 0 6 0.5t4.5 3.5t2.5 9v24q0 9 3 11t10 2z" />
    <glyph glyph-name="uni1EB8" unicode="&#x1eb8;" horiz-adv-x="550" 
d="M230 -67q22 21 52.5 21t51.5 -21q22 -22 22 -52.5t-22 -51.5q-21 -22 -51.5 -22t-52.5 22q-21 21 -21 51.5t21 52.5zM480 580h-260v-150h250q7 0 10 -0.5t6.5 -5.5t3.5 -14v-100q0 -9 -3.5 -14t-6.5 -5.5t-10 -0.5h-250v-150h260q7 0 10 -0.5t6.5 -5.5t3.5 -14v-100
q0 -9 -3.5 -14t-6.5 -5.5t-10 -0.5h-400q-7 0 -10 0.5t-6.5 5.5t-3.5 14v680q0 9 3.5 14t6.5 5.5t10 0.5h400q7 0 10 -0.5t6.5 -5.5t3.5 -14v-100q0 -9 -3.5 -14t-6.5 -5.5t-10 -0.5z" />
    <glyph glyph-name="uni1EB9" unicode="&#x1eb9;" horiz-adv-x="540" 
d="M230 -67q22 21 52.5 21t51.5 -21q22 -22 22 -52.5t-22 -51.5q-21 -22 -51.5 -22t-52.5 22q-21 21 -21 51.5t21 52.5zM470 580h-240q-7 0 -10 -0.5t-6.5 -5.5t-3.5 -14v-130h250q7 0 10 -0.5t6.5 -5.5t3.5 -14v-100q0 -9 -3.5 -14t-6.5 -5.5t-10 -0.5h-250v-130
q0 -9 3.5 -14t6.5 -5.5t10 -0.5h240q7 0 10 -0.5t6.5 -5.5t3.5 -14v-100q0 -9 -3.5 -14t-6.5 -5.5t-10 -0.5h-240q-45 0 -58 1q-23 2 -48 7q-39 8 -54.5 32.5t-19.5 79.5v480q0 63 33 94q14 12 41 18q25 5 48 7q13 1 58 1h240q7 0 10 -0.5t6.5 -5.5t3.5 -14v-100
q0 -9 -3.5 -14t-6.5 -5.5t-10 -0.5z" />
    <glyph glyph-name="uni1EBA" unicode="&#x1eba;" horiz-adv-x="550" 
d="M342 779h-11v-10q0 -10 -10 -10h-52q-10 0 -10 10v54q0 5 2 7.5t3 2.5h5h35q9 0 9 10q0 5 -1.5 7t-2.5 2h-5h-62q-10 0 -10 11v41q0 11 10 11h82q25 0 37 -1.5t23 -12t11 -32.5v-44q0 -24 -13 -37q-4 -4 -17 -6q-15 -3 -23 -3zM480 580h-260v-150h250q7 0 10 -0.5
t6.5 -5.5t3.5 -14v-100q0 -9 -3.5 -14t-6.5 -5.5t-10 -0.5h-250v-150h260q7 0 10 -0.5t6.5 -5.5t3.5 -14v-100q0 -9 -3.5 -14t-6.5 -5.5t-10 -0.5h-400q-7 0 -10 0.5t-6.5 5.5t-3.5 14v680q0 9 3.5 14t6.5 5.5t10 0.5h400q7 0 10 -0.5t6.5 -5.5t3.5 -14v-100q0 -9 -3.5 -14
t-6.5 -5.5t-10 -0.5z" />
    <glyph glyph-name="uni1EBB" unicode="&#x1ebb;" horiz-adv-x="540" 
d="M342 779h-11v-10q0 -10 -10 -10h-52q-10 0 -10 10v54q0 5 2 7.5t3 2.5h5h35q9 0 9 10q0 5 -1.5 7t-2.5 2h-5h-62q-10 0 -10 11v41q0 11 10 11h82q25 0 37 -1.5t23 -12t11 -32.5v-44q0 -24 -13 -37q-4 -4 -17 -6q-15 -3 -23 -3zM470 580h-240q-7 0 -10 -0.5t-6.5 -5.5
t-3.5 -14v-130h250q7 0 10 -0.5t6.5 -5.5t3.5 -14v-100q0 -9 -3.5 -14t-6.5 -5.5t-10 -0.5h-250v-130q0 -9 3.5 -14t6.5 -5.5t10 -0.5h240q7 0 10 -0.5t6.5 -5.5t3.5 -14v-100q0 -9 -3.5 -14t-6.5 -5.5t-10 -0.5h-240q-45 0 -58 1q-23 2 -48 7q-39 8 -54.5 32.5t-19.5 79.5
v480q0 63 33 94q14 12 41 18q25 5 48 7q13 1 58 1h240q7 0 10 -0.5t6.5 -5.5t3.5 -14v-100q0 -9 -3.5 -14t-6.5 -5.5t-10 -0.5z" />
    <glyph glyph-name="uni1EBC" unicode="&#x1ebc;" horiz-adv-x="550" 
d="M217 762l-51 19q-14 7 -9 19l14 41q16 48 56 43q17 -2 38 -10q2 -1 17 -6l42 -17q8 0 11 7q5 15 7 20q3 9 8.5 10.5t11.5 -1.5l52 -19q13 -8 8 -19q-9 -27 -13 -38q-12 -26 -25 -37t-33 -9q-18 2 -38 10q-10 4 -16 6l-42 17q-7 0 -11 -7q-5 -15 -7 -20q-3 -11 -20 -9z
M480 580h-260v-150h250q7 0 10 -0.5t6.5 -5.5t3.5 -14v-100q0 -9 -3.5 -14t-6.5 -5.5t-10 -0.5h-250v-150h260q7 0 10 -0.5t6.5 -5.5t3.5 -14v-100q0 -9 -3.5 -14t-6.5 -5.5t-10 -0.5h-400q-7 0 -10 0.5t-6.5 5.5t-3.5 14v680q0 9 3.5 14t6.5 5.5t10 0.5h400q7 0 10 -0.5
t6.5 -5.5t3.5 -14v-100q0 -9 -3.5 -14t-6.5 -5.5t-10 -0.5z" />
    <glyph glyph-name="uni1EBD" unicode="&#x1ebd;" horiz-adv-x="540" 
d="M217 762l-51 19q-14 7 -9 19l14 41q16 48 56 43q17 -2 38 -10q2 -1 17 -6l42 -17q8 0 11 7q5 15 7 20q3 9 8.5 10.5t11.5 -1.5l52 -19q13 -8 8 -19q-9 -27 -13 -38q-12 -26 -25 -37t-33 -9q-18 2 -38 10q-10 4 -16 6l-42 17q-7 0 -11 -7q-5 -15 -7 -20q-3 -11 -20 -9z
M470 580h-240q-7 0 -10 -0.5t-6.5 -5.5t-3.5 -14v-130h250q7 0 10 -0.5t6.5 -5.5t3.5 -14v-100q0 -9 -3.5 -14t-6.5 -5.5t-10 -0.5h-250v-130q0 -9 3.5 -14t6.5 -5.5t10 -0.5h240q7 0 10 -0.5t6.5 -5.5t3.5 -14v-100q0 -9 -3.5 -14t-6.5 -5.5t-10 -0.5h-240q-45 0 -58 1
q-23 2 -48 7q-39 8 -54.5 32.5t-19.5 79.5v480q0 63 33 94q14 12 41 18q25 5 48 7q13 1 58 1h240q7 0 10 -0.5t6.5 -5.5t3.5 -14v-100q0 -9 -3.5 -14t-6.5 -5.5t-10 -0.5z" />
    <glyph glyph-name="uni1EBE" unicode="&#x1ebe;" horiz-adv-x="550" 
d="M461 843h-46q-7 0 -9.5 0.5t-5.5 3.5t1 9l58 103q3 7 8 10t7 3h13h88q17 0 8 -14l-89 -102q-7 -13 -33 -13zM480 580h-260v-150h250q7 0 10 -0.5t6.5 -5.5t3.5 -14v-100q0 -9 -3.5 -14t-6.5 -5.5t-10 -0.5h-250v-150h260q7 0 10 -0.5t6.5 -5.5t3.5 -14v-100
q0 -9 -3.5 -14t-6.5 -5.5t-10 -0.5h-400q-7 0 -10 0.5t-6.5 5.5t-3.5 14v680q0 9 3.5 14t6.5 5.5t10 0.5h400q7 0 10 -0.5t6.5 -5.5t3.5 -14v-100q0 -9 -3.5 -14t-6.5 -5.5t-10 -0.5zM209 759h-65q-18 0 -10 15q77 110 82 112q6 2 18 2h88q10 0 13 -1q4 0 7 -3q2 -1 80 -110
q8 -15 -10 -15h-65q-10 0 -17 4q-9 5 -53 51q-45 -49 -52 -52t-16 -3z" />
    <glyph glyph-name="uni1EBF" unicode="&#x1ebf;" horiz-adv-x="540" 
d="M471 843h-46q-7 0 -9.5 0.5t-5.5 3.5t1 9l58 103q3 7 8 10t7 3h13h88q17 0 8 -14l-89 -102q-7 -13 -33 -13zM470 580h-240q-7 0 -10 -0.5t-6.5 -5.5t-3.5 -14v-130h250q7 0 10 -0.5t6.5 -5.5t3.5 -14v-100q0 -9 -3.5 -14t-6.5 -5.5t-10 -0.5h-250v-130q0 -9 3.5 -14
t6.5 -5.5t10 -0.5h240q7 0 10 -0.5t6.5 -5.5t3.5 -14v-100q0 -9 -3.5 -14t-6.5 -5.5t-10 -0.5h-240q-45 0 -58 1q-23 2 -48 7q-39 8 -54.5 32.5t-19.5 79.5v480q0 63 33 94q14 12 41 18q25 5 48 7q13 1 58 1h240q7 0 10 -0.5t6.5 -5.5t3.5 -14v-100q0 -9 -3.5 -14t-6.5 -5.5
t-10 -0.5zM219 759h-65q-18 0 -10 15q77 110 82 112q6 2 18 2h88q10 0 13 -1q4 0 7 -3q2 -1 80 -110q8 -15 -10 -15h-65q-10 0 -17 4q-9 5 -53 51q-45 -49 -52 -52t-16 -3z" />
    <glyph glyph-name="uni1EC0" unicode="&#x1ec0;" horiz-adv-x="550" 
d="M482 843h-46q-26 0 -33 13l-89 102q-9 14 8 14h88h4q18 0 24 -13l58 -103q4 -9 0 -11t-14 -2zM480 580h-260v-150h250q7 0 10 -0.5t6.5 -5.5t3.5 -14v-100q0 -9 -3.5 -14t-6.5 -5.5t-10 -0.5h-250v-150h260q7 0 10 -0.5t6.5 -5.5t3.5 -14v-100q0 -9 -3.5 -14t-6.5 -5.5
t-10 -0.5h-400q-7 0 -10 0.5t-6.5 5.5t-3.5 14v680q0 9 3.5 14t6.5 5.5t10 0.5h400q7 0 10 -0.5t6.5 -5.5t3.5 -14v-100q0 -9 -3.5 -14t-6.5 -5.5t-10 -0.5zM209 759h-65q-18 0 -10 15q77 110 82 112q6 2 18 2h88q10 0 13 -1q4 0 7 -3q2 -1 80 -110q8 -15 -10 -15h-65
q-10 0 -17 4q-9 5 -53 51q-45 -49 -52 -52t-16 -3z" />
    <glyph glyph-name="uni1EC1" unicode="&#x1ec1;" horiz-adv-x="540" 
d="M492 843h-46q-26 0 -33 13l-89 102q-9 14 8 14h88h4q18 0 24 -13l58 -103q4 -9 0 -11t-14 -2zM470 580h-240q-7 0 -10 -0.5t-6.5 -5.5t-3.5 -14v-130h250q7 0 10 -0.5t6.5 -5.5t3.5 -14v-100q0 -9 -3.5 -14t-6.5 -5.5t-10 -0.5h-250v-130q0 -9 3.5 -14t6.5 -5.5t10 -0.5
h240q7 0 10 -0.5t6.5 -5.5t3.5 -14v-100q0 -9 -3.5 -14t-6.5 -5.5t-10 -0.5h-240q-45 0 -58 1q-23 2 -48 7q-39 8 -54.5 32.5t-19.5 79.5v480q0 63 33 94q14 12 41 18q25 5 48 7q13 1 58 1h240q7 0 10 -0.5t6.5 -5.5t3.5 -14v-100q0 -9 -3.5 -14t-6.5 -5.5t-10 -0.5z
M219 759h-65q-18 0 -10 15q77 110 82 112q6 2 18 2h88q10 0 13 -1q4 0 7 -3q2 -1 80 -110q8 -15 -10 -15h-65q-10 0 -17 4q-9 5 -53 51q-45 -49 -52 -52t-16 -3z" />
    <glyph glyph-name="uni1EC2" unicode="&#x1ec2;" horiz-adv-x="550" 
d="M480 863h-11v-10q0 -10 -10 -10h-52q-10 0 -10 10v54q0 5 2 7.5t3 2.5h5h35q9 0 9 10q0 5 -1.5 7t-2.5 2h-5h-62q-10 0 -10 11v41q0 11 10 11h82q25 0 37 -1.5t23 -12t11 -32.5v-44q0 -24 -13 -37q-4 -4 -17 -6q-15 -3 -23 -3zM480 580h-260v-150h250q7 0 10 -0.5
t6.5 -5.5t3.5 -14v-100q0 -9 -3.5 -14t-6.5 -5.5t-10 -0.5h-250v-150h260q7 0 10 -0.5t6.5 -5.5t3.5 -14v-100q0 -9 -3.5 -14t-6.5 -5.5t-10 -0.5h-400q-7 0 -10 0.5t-6.5 5.5t-3.5 14v680q0 9 3.5 14t6.5 5.5t10 0.5h400q7 0 10 -0.5t6.5 -5.5t3.5 -14v-100q0 -9 -3.5 -14
t-6.5 -5.5t-10 -0.5zM209 759h-65q-18 0 -10 15q77 110 82 112q6 2 18 2h88q10 0 13 -1q4 0 7 -3q2 -1 80 -110q8 -15 -10 -15h-65q-10 0 -17 4q-9 5 -53 51q-45 -49 -52 -52t-16 -3z" />
    <glyph glyph-name="uni1EC3" unicode="&#x1ec3;" horiz-adv-x="540" 
d="M490 863h-11v-10q0 -10 -10 -10h-52q-10 0 -10 10v54q0 5 2 7.5t3 2.5h5h35q9 0 9 10q0 5 -1.5 7t-2.5 2h-5h-62q-10 0 -10 11v41q0 11 10 11h82q25 0 37 -1.5t23 -12t11 -32.5v-44q0 -24 -13 -37q-4 -4 -17 -6q-15 -3 -23 -3zM470 580h-240q-7 0 -10 -0.5t-6.5 -5.5
t-3.5 -14v-130h250q7 0 10 -0.5t6.5 -5.5t3.5 -14v-100q0 -9 -3.5 -14t-6.5 -5.5t-10 -0.5h-250v-130q0 -9 3.5 -14t6.5 -5.5t10 -0.5h240q7 0 10 -0.5t6.5 -5.5t3.5 -14v-100q0 -9 -3.5 -14t-6.5 -5.5t-10 -0.5h-240q-45 0 -58 1q-23 2 -48 7q-39 8 -54.5 32.5t-19.5 79.5
v480q0 63 33 94q14 12 41 18q25 5 48 7q13 1 58 1h240q7 0 10 -0.5t6.5 -5.5t3.5 -14v-100q0 -9 -3.5 -14t-6.5 -5.5t-10 -0.5zM219 759h-65q-18 0 -10 15q77 110 82 112q6 2 18 2h88q10 0 13 -1q4 0 7 -3q2 -1 80 -110q8 -15 -10 -15h-65q-10 0 -17 4q-9 5 -53 51
q-45 -49 -52 -52t-16 -3z" />
    <glyph glyph-name="uni1EC4" unicode="&#x1ec4;" horiz-adv-x="550" 
d="M206 904l-51 19q-14 7 -9 19l14 41q16 48 56 43q17 -2 38 -10q2 -1 17 -6l42 -17q7 0 11 7q5 15 7 20q3 9 8.5 10.5t11.5 -1.5l52 -19q13 -8 8 -19q-9 -27 -13 -38q-12 -26 -25 -37t-33 -9q-18 2 -38 10q-10 4 -16 6l-42 17q-7 0 -11 -7q-5 -15 -7 -20q-3 -11 -20 -9z
M480 580h-260v-150h250q7 0 10 -0.5t6.5 -5.5t3.5 -14v-100q0 -9 -3.5 -14t-6.5 -5.5t-10 -0.5h-250v-150h260q7 0 10 -0.5t6.5 -5.5t3.5 -14v-100q0 -9 -3.5 -14t-6.5 -5.5t-10 -0.5h-400q-7 0 -10 0.5t-6.5 5.5t-3.5 14v680q0 9 3.5 14t6.5 5.5t10 0.5h400q7 0 10 -0.5
t6.5 -5.5t3.5 -14v-100q0 -9 -3.5 -14t-6.5 -5.5t-10 -0.5zM209 759h-65q-18 0 -10 15q77 110 82 112q6 2 18 2h88q10 0 13 -1q4 0 7 -3q2 -1 80 -110q8 -15 -10 -15h-65q-10 0 -17 4q-9 5 -53 51q-45 -49 -52 -52t-16 -3z" />
    <glyph glyph-name="uni1EC5" unicode="&#x1ec5;" horiz-adv-x="540" 
d="M216 904l-51 19q-14 7 -9 19l14 41q16 48 56 43q17 -2 38 -10q2 -1 17 -6l42 -17q7 0 11 7q5 15 7 20q3 9 8.5 10.5t11.5 -1.5l52 -19q13 -8 8 -19q-9 -27 -13 -38q-12 -26 -25 -37t-33 -9q-18 2 -38 10q-10 4 -16 6l-42 17q-7 0 -11 -7q-5 -15 -7 -20q-3 -11 -20 -9z
M470 580h-240q-7 0 -10 -0.5t-6.5 -5.5t-3.5 -14v-130h250q7 0 10 -0.5t6.5 -5.5t3.5 -14v-100q0 -9 -3.5 -14t-6.5 -5.5t-10 -0.5h-250v-130q0 -9 3.5 -14t6.5 -5.5t10 -0.5h240q7 0 10 -0.5t6.5 -5.5t3.5 -14v-100q0 -9 -3.5 -14t-6.5 -5.5t-10 -0.5h-240q-45 0 -58 1
q-23 2 -48 7q-39 8 -54.5 32.5t-19.5 79.5v480q0 63 33 94q14 12 41 18q25 5 48 7q13 1 58 1h240q7 0 10 -0.5t6.5 -5.5t3.5 -14v-100q0 -9 -3.5 -14t-6.5 -5.5t-10 -0.5zM219 759h-65q-18 0 -10 15q77 110 82 112q6 2 18 2h88q10 0 13 -1q4 0 7 -3q2 -1 80 -110
q8 -15 -10 -15h-65q-10 0 -17 4q-9 5 -53 51q-45 -49 -52 -52t-16 -3z" />
    <glyph glyph-name="uni1EC6" unicode="&#x1ec6;" horiz-adv-x="550" 
d="M230 -67q22 21 52.5 21t51.5 -21q22 -22 22 -52.5t-22 -51.5q-21 -22 -51.5 -22t-52.5 22q-21 21 -21 51.5t21 52.5zM480 580h-260v-150h250q7 0 10 -0.5t6.5 -5.5t3.5 -14v-100q0 -9 -3.5 -14t-6.5 -5.5t-10 -0.5h-250v-150h260q7 0 10 -0.5t6.5 -5.5t3.5 -14v-100
q0 -9 -3.5 -14t-6.5 -5.5t-10 -0.5h-400q-7 0 -10 0.5t-6.5 5.5t-3.5 14v680q0 9 3.5 14t6.5 5.5t10 0.5h400q7 0 10 -0.5t6.5 -5.5t3.5 -14v-100q0 -9 -3.5 -14t-6.5 -5.5t-10 -0.5zM209 759h-65q-18 0 -10 15q77 110 82 112q6 2 18 2h88q10 0 13 -1q4 0 7 -3q2 -1 80 -110
q8 -15 -10 -15h-65q-10 0 -17 4q-9 5 -53 51q-45 -49 -52 -52t-16 -3z" />
    <glyph glyph-name="uni1EC7" unicode="&#x1ec7;" horiz-adv-x="540" 
d="M230 -67q22 21 52.5 21t51.5 -21q22 -22 22 -52.5t-22 -51.5q-21 -22 -51.5 -22t-52.5 22q-21 21 -21 51.5t21 52.5zM470 580h-240q-7 0 -10 -0.5t-6.5 -5.5t-3.5 -14v-130h250q7 0 10 -0.5t6.5 -5.5t3.5 -14v-100q0 -9 -3.5 -14t-6.5 -5.5t-10 -0.5h-250v-130
q0 -9 3.5 -14t6.5 -5.5t10 -0.5h240q7 0 10 -0.5t6.5 -5.5t3.5 -14v-100q0 -9 -3.5 -14t-6.5 -5.5t-10 -0.5h-240q-45 0 -58 1q-23 2 -48 7q-39 8 -54.5 32.5t-19.5 79.5v480q0 63 33 94q14 12 41 18q25 5 48 7q13 1 58 1h240q7 0 10 -0.5t6.5 -5.5t3.5 -14v-100
q0 -9 -3.5 -14t-6.5 -5.5t-10 -0.5zM219 759h-65q-18 0 -10 15q77 110 82 112q6 2 18 2h88q10 0 13 -1q4 0 7 -3q2 -1 80 -110q8 -15 -10 -15h-65q-10 0 -17 4q-9 5 -53 51q-45 -49 -52 -52t-16 -3z" />
    <glyph glyph-name="uni1EC8" unicode="&#x1ec8;" horiz-adv-x="280" 
d="M189 779h-11v-10q0 -10 -10 -10h-52q-10 0 -10 10v54q0 5 2 7.5t3 2.5h5h35q9 0 9 10q0 5 -1.5 7t-2.5 2h-5h-62q-10 0 -10 11v41q0 11 10 11h82q25 0 37 -1.5t23 -12t11 -32.5v-44q0 -24 -13 -37q-4 -4 -17 -6q-15 -3 -23 -3zM220 700v-680q0 -9 -3.5 -14t-6.5 -5.5
t-10 -0.5h-120q-7 0 -10 0.5t-6.5 5.5t-3.5 14v680q0 9 3.5 14t6.5 5.5t10 0.5h120q7 0 10 -0.5t6.5 -5.5t3.5 -14z" />
    <glyph glyph-name="uni1EC9" unicode="&#x1ec9;" horiz-adv-x="280" 
d="M189 779h-11v-10q0 -10 -10 -10h-52q-10 0 -10 10v54q0 5 2 7.5t3 2.5h5h35q9 0 9 10q0 5 -1.5 7t-2.5 2h-5h-62q-10 0 -10 11v41q0 11 10 11h82q25 0 37 -1.5t23 -12t11 -32.5v-44q0 -24 -13 -37q-4 -4 -17 -6q-15 -3 -23 -3zM220 700v-680q0 -9 -3.5 -14t-6.5 -5.5
t-10 -0.5h-120q-7 0 -10 0.5t-6.5 5.5t-3.5 14v680q0 9 3.5 14t6.5 5.5t10 0.5h120q7 0 10 -0.5t6.5 -5.5t3.5 -14z" />
    <glyph glyph-name="uni1ECA" unicode="&#x1eca;" horiz-adv-x="280" 
d="M87 -67q22 21 52.5 21t51.5 -21q22 -22 22 -52.5t-22 -51.5q-21 -22 -51.5 -22t-52.5 22q-21 21 -21 51.5t21 52.5zM220 700v-680q0 -9 -3.5 -14t-6.5 -5.5t-10 -0.5h-120q-7 0 -10 0.5t-6.5 5.5t-3.5 14v680q0 9 3.5 14t6.5 5.5t10 0.5h120q7 0 10 -0.5t6.5 -5.5
t3.5 -14z" />
    <glyph glyph-name="uni1ECB" unicode="&#x1ecb;" horiz-adv-x="280" 
d="M87 -67q22 21 52.5 21t51.5 -21q22 -22 22 -52.5t-22 -51.5q-21 -22 -51.5 -22t-52.5 22q-21 21 -21 51.5t21 52.5zM220 700v-680q0 -9 -3.5 -14t-6.5 -5.5t-10 -0.5h-120q-7 0 -10 0.5t-6.5 5.5t-3.5 14v680q0 9 3.5 14t6.5 5.5t10 0.5h120q7 0 10 -0.5t6.5 -5.5
t3.5 -14z" />
    <glyph glyph-name="uni1ECC" unicode="&#x1ecc;" horiz-adv-x="580" 
d="M238 -67q22 21 52.5 21t51.5 -21q22 -22 22 -52.5t-22 -51.5q-21 -22 -51.5 -22t-52.5 22q-21 21 -21 51.5t21 52.5zM230 720h120q45 0 58 -1q22 -2 47 -7q29 -6 42 -18q33 -31 33 -94v-480q0 -63 -33 -94q-13 -12 -42 -18q-25 -5 -47 -7q-13 -1 -58 -1h-120q-45 0 -58 1
q-23 2 -48 7q-39 8 -54.5 32.5t-19.5 79.5v480q0 63 33 94q14 12 41 18q25 5 48 7q13 1 58 1zM370 160v400q0 9 -3.5 14t-6.5 5.5t-10 0.5h-120q-7 0 -10 -0.5t-6.5 -5.5t-3.5 -14v-400q0 -9 3.5 -14t6.5 -5.5t10 -0.5h120q7 0 10 0.5t6.5 5.5t3.5 14z" />
    <glyph glyph-name="uni1ECD" unicode="&#x1ecd;" horiz-adv-x="580" 
d="M238 -67q22 21 52.5 21t51.5 -21q22 -22 22 -52.5t-22 -51.5q-21 -22 -51.5 -22t-52.5 22q-21 21 -21 51.5t21 52.5zM230 720h120q45 0 58 -1q22 -2 47 -7q29 -6 42 -18q33 -31 33 -94v-480q0 -63 -33 -94q-13 -12 -42 -18q-25 -5 -47 -7q-13 -1 -58 -1h-120q-45 0 -58 1
q-23 2 -48 7q-39 8 -54.5 32.5t-19.5 79.5v480q0 63 33 94q14 12 41 18q25 5 48 7q13 1 58 1zM370 160v400q0 9 -3.5 14t-6.5 5.5t-10 0.5h-120q-7 0 -10 -0.5t-6.5 -5.5t-3.5 -14v-400q0 -9 3.5 -14t6.5 -5.5t10 -0.5h120q7 0 10 0.5t6.5 5.5t3.5 14z" />
    <glyph glyph-name="uni1ECE" unicode="&#x1ece;" horiz-adv-x="580" 
d="M345 779h-11v-10q0 -10 -10 -10h-52q-10 0 -10 10v54q0 5 2 7.5t3 2.5h5h35q9 0 9 10q0 5 -1.5 7t-2.5 2h-5h-62q-10 0 -10 11v41q0 11 10 11h82q25 0 37 -1.5t23 -12t11 -32.5v-44q0 -24 -13 -37q-4 -4 -17 -6q-15 -3 -23 -3zM230 720h120q45 0 58 -1q22 -2 47 -7
q29 -6 42 -18q33 -31 33 -94v-480q0 -63 -33 -94q-13 -12 -42 -18q-25 -5 -47 -7q-13 -1 -58 -1h-120q-45 0 -58 1q-23 2 -48 7q-39 8 -54.5 32.5t-19.5 79.5v480q0 63 33 94q14 12 41 18q25 5 48 7q13 1 58 1zM370 160v400q0 9 -3.5 14t-6.5 5.5t-10 0.5h-120
q-7 0 -10 -0.5t-6.5 -5.5t-3.5 -14v-400q0 -9 3.5 -14t6.5 -5.5t10 -0.5h120q7 0 10 0.5t6.5 5.5t3.5 14z" />
    <glyph glyph-name="uni1ECF" unicode="&#x1ecf;" horiz-adv-x="580" 
d="M345 779h-11v-10q0 -10 -10 -10h-52q-10 0 -10 10v54q0 5 2 7.5t3 2.5h5h35q9 0 9 10q0 5 -1.5 7t-2.5 2h-5h-62q-10 0 -10 11v41q0 11 10 11h82q25 0 37 -1.5t23 -12t11 -32.5v-44q0 -24 -13 -37q-4 -4 -17 -6q-15 -3 -23 -3zM230 720h120q45 0 58 -1q22 -2 47 -7
q29 -6 42 -18q33 -31 33 -94v-480q0 -63 -33 -94q-13 -12 -42 -18q-25 -5 -47 -7q-13 -1 -58 -1h-120q-45 0 -58 1q-23 2 -48 7q-39 8 -54.5 32.5t-19.5 79.5v480q0 63 33 94q14 12 41 18q25 5 48 7q13 1 58 1zM370 160v400q0 9 -3.5 14t-6.5 5.5t-10 0.5h-120
q-7 0 -10 -0.5t-6.5 -5.5t-3.5 -14v-400q0 -9 3.5 -14t6.5 -5.5t10 -0.5h120q7 0 10 0.5t6.5 5.5t3.5 14z" />
    <glyph glyph-name="uni1ED0" unicode="&#x1ed0;" horiz-adv-x="580" 
d="M471 843h-46q-7 0 -9.5 0.5t-5.5 3.5t1 9l58 103q3 7 8 10t7 3h13h88q17 0 8 -14l-89 -102q-7 -13 -33 -13zM230 720h120q45 0 58 -1q22 -2 47 -7q29 -6 42 -18q33 -31 33 -94v-480q0 -63 -33 -94q-13 -12 -42 -18q-25 -5 -47 -7q-13 -1 -58 -1h-120q-45 0 -58 1
q-23 2 -48 7q-39 8 -54.5 32.5t-19.5 79.5v480q0 63 33 94q14 12 41 18q25 5 48 7q13 1 58 1zM370 160v400q0 9 -3.5 14t-6.5 5.5t-10 0.5h-120q-7 0 -10 -0.5t-6.5 -5.5t-3.5 -14v-400q0 -9 3.5 -14t6.5 -5.5t10 -0.5h120q7 0 10 0.5t6.5 5.5t3.5 14zM219 759h-65
q-18 0 -10 15q77 110 82 112q6 2 18 2h88q10 0 13 -1q4 0 7 -3q2 -1 80 -110q8 -15 -10 -15h-65q-10 0 -17 4q-9 5 -53 51q-45 -49 -52 -52t-16 -3z" />
    <glyph glyph-name="uni1ED1" unicode="&#x1ed1;" horiz-adv-x="580" 
d="M472 843h-46q-7 0 -9.5 0.5t-5.5 3.5t1 9l58 103q3 7 8 10t7 3h13h88q17 0 8 -14l-89 -102q-7 -13 -33 -13zM230 720h120q45 0 58 -1q22 -2 47 -7q29 -6 42 -18q33 -31 33 -94v-480q0 -63 -33 -94q-13 -12 -42 -18q-25 -5 -47 -7q-13 -1 -58 -1h-120q-45 0 -58 1
q-23 2 -48 7q-39 8 -54.5 32.5t-19.5 79.5v480q0 63 33 94q14 12 41 18q25 5 48 7q13 1 58 1zM370 160v400q0 9 -3.5 14t-6.5 5.5t-10 0.5h-120q-7 0 -10 -0.5t-6.5 -5.5t-3.5 -14v-400q0 -9 3.5 -14t6.5 -5.5t10 -0.5h120q7 0 10 0.5t6.5 5.5t3.5 14zM220 759h-65
q-18 0 -10 15q77 110 82 112q6 2 18 2h88q10 0 13 -1q4 0 7 -3q2 -1 80 -110q8 -15 -10 -15h-65q-10 0 -17 4q-9 5 -53 51q-45 -49 -52 -52t-16 -3z" />
    <glyph glyph-name="uni1ED2" unicode="&#x1ed2;" horiz-adv-x="580" 
d="M492 843h-46q-26 0 -33 13l-89 102q-9 14 8 14h88h4q18 0 24 -13l58 -103q4 -9 0 -11t-14 -2zM230 720h120q45 0 58 -1q22 -2 47 -7q29 -6 42 -18q33 -31 33 -94v-480q0 -63 -33 -94q-13 -12 -42 -18q-25 -5 -47 -7q-13 -1 -58 -1h-120q-45 0 -58 1q-23 2 -48 7
q-39 8 -54.5 32.5t-19.5 79.5v480q0 63 33 94q14 12 41 18q25 5 48 7q13 1 58 1zM370 160v400q0 9 -3.5 14t-6.5 5.5t-10 0.5h-120q-7 0 -10 -0.5t-6.5 -5.5t-3.5 -14v-400q0 -9 3.5 -14t6.5 -5.5t10 -0.5h120q7 0 10 0.5t6.5 5.5t3.5 14zM219 759h-65q-18 0 -10 15
q77 110 82 112q6 2 18 2h88q10 0 13 -1q4 0 7 -3q2 -1 80 -110q8 -15 -10 -15h-65q-10 0 -17 4q-9 5 -53 51q-45 -49 -52 -52t-16 -3z" />
    <glyph glyph-name="uni1ED3" unicode="&#x1ed3;" horiz-adv-x="580" 
d="M493 843h-46q-26 0 -33 13l-89 102q-9 14 8 14h88h4q18 0 24 -13l58 -103q4 -9 0 -11t-14 -2zM230 720h120q45 0 58 -1q22 -2 47 -7q29 -6 42 -18q33 -31 33 -94v-480q0 -63 -33 -94q-13 -12 -42 -18q-25 -5 -47 -7q-13 -1 -58 -1h-120q-45 0 -58 1q-23 2 -48 7
q-39 8 -54.5 32.5t-19.5 79.5v480q0 63 33 94q14 12 41 18q25 5 48 7q13 1 58 1zM370 160v400q0 9 -3.5 14t-6.5 5.5t-10 0.5h-120q-7 0 -10 -0.5t-6.5 -5.5t-3.5 -14v-400q0 -9 3.5 -14t6.5 -5.5t10 -0.5h120q7 0 10 0.5t6.5 5.5t3.5 14zM220 759h-65q-18 0 -10 15
q77 110 82 112q6 2 18 2h88q10 0 13 -1q4 0 7 -3q2 -1 80 -110q8 -15 -10 -15h-65q-10 0 -17 4q-9 5 -53 51q-45 -49 -52 -52t-16 -3z" />
    <glyph glyph-name="uni1ED4" unicode="&#x1ed4;" horiz-adv-x="580" 
d="M490 863h-11v-10q0 -10 -10 -10h-52q-10 0 -10 10v54q0 5 2 7.5t3 2.5h5h35q9 0 9 10q0 5 -1.5 7t-2.5 2h-5h-62q-10 0 -10 11v41q0 11 10 11h82q25 0 37 -1.5t23 -12t11 -32.5v-44q0 -24 -13 -37q-4 -4 -17 -6q-15 -3 -23 -3zM230 720h120q45 0 58 -1q22 -2 47 -7
q29 -6 42 -18q33 -31 33 -94v-480q0 -63 -33 -94q-13 -12 -42 -18q-25 -5 -47 -7q-13 -1 -58 -1h-120q-45 0 -58 1q-23 2 -48 7q-39 8 -54.5 32.5t-19.5 79.5v480q0 63 33 94q14 12 41 18q25 5 48 7q13 1 58 1zM370 160v400q0 9 -3.5 14t-6.5 5.5t-10 0.5h-120
q-7 0 -10 -0.5t-6.5 -5.5t-3.5 -14v-400q0 -9 3.5 -14t6.5 -5.5t10 -0.5h120q7 0 10 0.5t6.5 5.5t3.5 14zM219 759h-65q-18 0 -10 15q77 110 82 112q6 2 18 2h88q10 0 13 -1q4 0 7 -3q2 -1 80 -110q8 -15 -10 -15h-65q-10 0 -17 4q-9 5 -53 51q-45 -49 -52 -52t-16 -3z" />
    <glyph glyph-name="uni1ED5" unicode="&#x1ed5;" horiz-adv-x="580" 
d="M491 863h-11v-10q0 -10 -10 -10h-52q-10 0 -10 10v54q0 5 2 7.5t3 2.5h5h35q9 0 9 10q0 5 -1.5 7t-2.5 2h-5h-62q-10 0 -10 11v41q0 11 10 11h82q25 0 37 -1.5t23 -12t11 -32.5v-44q0 -24 -13 -37q-4 -4 -17 -6q-15 -3 -23 -3zM230 720h120q45 0 58 -1q22 -2 47 -7
q29 -6 42 -18q33 -31 33 -94v-480q0 -63 -33 -94q-13 -12 -42 -18q-25 -5 -47 -7q-13 -1 -58 -1h-120q-45 0 -58 1q-23 2 -48 7q-39 8 -54.5 32.5t-19.5 79.5v480q0 63 33 94q14 12 41 18q25 5 48 7q13 1 58 1zM370 160v400q0 9 -3.5 14t-6.5 5.5t-10 0.5h-120
q-7 0 -10 -0.5t-6.5 -5.5t-3.5 -14v-400q0 -9 3.5 -14t6.5 -5.5t10 -0.5h120q7 0 10 0.5t6.5 5.5t3.5 14zM220 759h-65q-18 0 -10 15q77 110 82 112q6 2 18 2h88q10 0 13 -1q4 0 7 -3q2 -1 80 -110q8 -15 -10 -15h-65q-10 0 -17 4q-9 5 -53 51q-45 -49 -52 -52t-16 -3z" />
    <glyph glyph-name="uni1ED6" unicode="&#x1ed6;" horiz-adv-x="580" 
d="M216 904l-51 19q-14 7 -9 19l14 41q16 48 56 43q17 -2 38 -10q2 -1 17 -6l42 -17q7 0 11 7q5 15 7 20q3 9 8.5 10.5t11.5 -1.5l52 -19q13 -8 8 -19q-9 -27 -13 -38q-12 -26 -25 -37t-33 -9q-18 2 -38 10q-10 4 -16 6l-42 17q-7 0 -11 -7q-5 -15 -7 -20q-3 -11 -20 -9z
M230 720h120q45 0 58 -1q22 -2 47 -7q29 -6 42 -18q33 -31 33 -94v-480q0 -63 -33 -94q-13 -12 -42 -18q-25 -5 -47 -7q-13 -1 -58 -1h-120q-45 0 -58 1q-23 2 -48 7q-39 8 -54.5 32.5t-19.5 79.5v480q0 63 33 94q14 12 41 18q25 5 48 7q13 1 58 1zM370 160v400q0 9 -3.5 14
t-6.5 5.5t-10 0.5h-120q-7 0 -10 -0.5t-6.5 -5.5t-3.5 -14v-400q0 -9 3.5 -14t6.5 -5.5t10 -0.5h120q7 0 10 0.5t6.5 5.5t3.5 14zM219 759h-65q-18 0 -10 15q77 110 82 112q6 2 18 2h88q10 0 13 -1q4 0 7 -3q2 -1 80 -110q8 -15 -10 -15h-65q-10 0 -17 4q-9 5 -53 51
q-45 -49 -52 -52t-16 -3z" />
    <glyph glyph-name="uni1ED7" unicode="&#x1ed7;" horiz-adv-x="580" 
d="M217 904l-51 19q-14 7 -9 19l14 41q16 48 56 43q17 -2 38 -10q2 -1 17 -6l42 -17q8 0 11 7q5 15 7 20q3 9 8.5 10.5t11.5 -1.5l52 -19q13 -8 8 -19q-9 -27 -13 -38q-12 -26 -25 -37t-33 -9q-18 2 -38 10q-10 4 -16 6l-42 17q-7 0 -11 -7q-5 -15 -7 -20q-3 -11 -20 -9z
M230 720h120q45 0 58 -1q22 -2 47 -7q29 -6 42 -18q33 -31 33 -94v-480q0 -63 -33 -94q-13 -12 -42 -18q-25 -5 -47 -7q-13 -1 -58 -1h-120q-45 0 -58 1q-23 2 -48 7q-39 8 -54.5 32.5t-19.5 79.5v480q0 63 33 94q14 12 41 18q25 5 48 7q13 1 58 1zM370 160v400q0 9 -3.5 14
t-6.5 5.5t-10 0.5h-120q-7 0 -10 -0.5t-6.5 -5.5t-3.5 -14v-400q0 -9 3.5 -14t6.5 -5.5t10 -0.5h120q7 0 10 0.5t6.5 5.5t3.5 14zM220 759h-65q-18 0 -10 15q77 110 82 112q6 2 18 2h88q10 0 13 -1q4 0 7 -3q2 -1 80 -110q8 -15 -10 -15h-65q-10 0 -17 4q-9 5 -53 51
q-45 -49 -52 -52t-16 -3z" />
    <glyph glyph-name="uni1ED8" unicode="&#x1ed8;" horiz-adv-x="580" 
d="M238 -67q22 21 52.5 21t51.5 -21q22 -22 22 -52.5t-22 -51.5q-21 -22 -51.5 -22t-52.5 22q-21 21 -21 51.5t21 52.5zM230 720h120q45 0 58 -1q22 -2 47 -7q29 -6 42 -18q33 -31 33 -94v-480q0 -63 -33 -94q-13 -12 -42 -18q-25 -5 -47 -7q-13 -1 -58 -1h-120q-45 0 -58 1
q-23 2 -48 7q-39 8 -54.5 32.5t-19.5 79.5v480q0 63 33 94q14 12 41 18q25 5 48 7q13 1 58 1zM370 160v400q0 9 -3.5 14t-6.5 5.5t-10 0.5h-120q-7 0 -10 -0.5t-6.5 -5.5t-3.5 -14v-400q0 -9 3.5 -14t6.5 -5.5t10 -0.5h120q7 0 10 0.5t6.5 5.5t3.5 14zM219 759h-65
q-18 0 -10 15q77 110 82 112q6 2 18 2h88q10 0 13 -1q4 0 7 -3q2 -1 80 -110q8 -15 -10 -15h-65q-10 0 -17 4q-9 5 -53 51q-45 -49 -52 -52t-16 -3z" />
    <glyph glyph-name="uni1ED9" unicode="&#x1ed9;" horiz-adv-x="580" 
d="M238 -67q22 21 52.5 21t51.5 -21q22 -22 22 -52.5t-22 -51.5q-21 -22 -51.5 -22t-52.5 22q-21 21 -21 51.5t21 52.5zM230 720h120q45 0 58 -1q22 -2 47 -7q29 -6 42 -18q33 -31 33 -94v-480q0 -63 -33 -94q-13 -12 -42 -18q-25 -5 -47 -7q-13 -1 -58 -1h-120q-45 0 -58 1
q-23 2 -48 7q-39 8 -54.5 32.5t-19.5 79.5v480q0 63 33 94q14 12 41 18q25 5 48 7q13 1 58 1zM370 160v400q0 9 -3.5 14t-6.5 5.5t-10 0.5h-120q-7 0 -10 -0.5t-6.5 -5.5t-3.5 -14v-400q0 -9 3.5 -14t6.5 -5.5t10 -0.5h120q7 0 10 0.5t6.5 5.5t3.5 14zM220 759h-65
q-18 0 -10 15q77 110 82 112q6 2 18 2h88q10 0 13 -1q4 0 7 -3q2 -1 80 -110q8 -15 -10 -15h-65q-10 0 -17 4q-9 5 -53 51q-45 -49 -52 -52t-16 -3z" />
    <glyph glyph-name="uni1EDA" unicode="&#x1eda;" 
d="M310 759h-46q-7 0 -9.5 0.5t-5.5 3.5t1 9l58 103q3 7 8 10t7 3h13h88q17 0 8 -14l-89 -102q-7 -13 -33 -13zM230 720h120q45 0 58 -1q22 -2 47 -7q20 -5 30 -10l11 60q1 7 4 10.5t6 4t10 0.5h90q6 0 9 -0.5t5.5 -4t0.5 -10.5l-50 -142q-2 -7 -5.5 -10.5t-6.5 -4t-11 -0.5
h-18v-5v-480q0 -63 -33 -94q-13 -12 -42 -18q-25 -5 -47 -7q-13 -1 -58 -1h-120q-45 0 -58 1q-23 2 -48 7q-39 8 -54.5 32.5t-19.5 79.5v480q0 63 33 94q14 12 41 18q25 5 48 7q13 1 58 1zM370 160v400q0 9 -3.5 14t-6.5 5.5t-10 0.5h-120q-7 0 -10 -0.5t-6.5 -5.5t-3.5 -14
v-400q0 -9 3.5 -14t6.5 -5.5t10 -0.5h120q7 0 10 0.5t6.5 5.5t3.5 14z" />
    <glyph glyph-name="uni1EDB" unicode="&#x1edb;" 
d="M310 759h-46q-7 0 -9.5 0.5t-5.5 3.5t1 9l58 103q3 7 8 10t7 3h13h88q17 0 8 -14l-89 -102q-7 -13 -33 -13zM230 720h120q45 0 58 -1q22 -2 47 -7q20 -5 30 -10l11 60q1 7 4 10.5t6 4t10 0.5h90q6 0 9 -0.5t5.5 -4t0.5 -10.5l-50 -142q-2 -7 -5.5 -10.5t-6.5 -4t-11 -0.5
h-18v-5v-480q0 -63 -33 -94q-13 -12 -42 -18q-25 -5 -47 -7q-13 -1 -58 -1h-120q-45 0 -58 1q-23 2 -48 7q-39 8 -54.5 32.5t-19.5 79.5v480q0 63 33 94q14 12 41 18q25 5 48 7q13 1 58 1zM370 160v400q0 9 -3.5 14t-6.5 5.5t-10 0.5h-120q-7 0 -10 -0.5t-6.5 -5.5t-3.5 -14
v-400q0 -9 3.5 -14t6.5 -5.5t10 -0.5h120q7 0 10 0.5t6.5 5.5t3.5 14z" />
    <glyph glyph-name="uni1EDC" unicode="&#x1edc;" 
d="M345 759h-46q-26 0 -33 13l-89 102q-9 14 8 14h88h4q18 0 24 -13l58 -103q4 -9 0 -11t-14 -2zM230 720h120q45 0 58 -1q22 -2 47 -7q20 -5 30 -10l11 60q1 7 4 10.5t6 4t10 0.5h90q6 0 9 -0.5t5.5 -4t0.5 -10.5l-50 -142q-2 -7 -5.5 -10.5t-6.5 -4t-11 -0.5h-18v-5v-480
q0 -63 -33 -94q-13 -12 -42 -18q-25 -5 -47 -7q-13 -1 -58 -1h-120q-45 0 -58 1q-23 2 -48 7q-39 8 -54.5 32.5t-19.5 79.5v480q0 63 33 94q14 12 41 18q25 5 48 7q13 1 58 1zM370 160v400q0 9 -3.5 14t-6.5 5.5t-10 0.5h-120q-7 0 -10 -0.5t-6.5 -5.5t-3.5 -14v-400
q0 -9 3.5 -14t6.5 -5.5t10 -0.5h120q7 0 10 0.5t6.5 5.5t3.5 14z" />
    <glyph glyph-name="uni1EDD" unicode="&#x1edd;" 
d="M345 759h-46q-26 0 -33 13l-89 102q-9 14 8 14h88h4q18 0 24 -13l58 -103q4 -9 0 -11t-14 -2zM230 720h120q45 0 58 -1q22 -2 47 -7q20 -5 30 -10l11 60q1 7 4 10.5t6 4t10 0.5h90q6 0 9 -0.5t5.5 -4t0.5 -10.5l-50 -142q-2 -7 -5.5 -10.5t-6.5 -4t-11 -0.5h-18v-5v-480
q0 -63 -33 -94q-13 -12 -42 -18q-25 -5 -47 -7q-13 -1 -58 -1h-120q-45 0 -58 1q-23 2 -48 7q-39 8 -54.5 32.5t-19.5 79.5v480q0 63 33 94q14 12 41 18q25 5 48 7q13 1 58 1zM370 160v400q0 9 -3.5 14t-6.5 5.5t-10 0.5h-120q-7 0 -10 -0.5t-6.5 -5.5t-3.5 -14v-400
q0 -9 3.5 -14t6.5 -5.5t10 -0.5h120q7 0 10 0.5t6.5 5.5t3.5 14z" />
    <glyph glyph-name="uni1EDE" unicode="&#x1ede;" 
d="M345 779h-11v-10q0 -10 -10 -10h-52q-10 0 -10 10v54q0 5 2 7.5t3 2.5h5h35q9 0 9 10q0 5 -1.5 7t-2.5 2h-5h-62q-10 0 -10 11v41q0 11 10 11h82q25 0 37 -1.5t23 -12t11 -32.5v-44q0 -24 -13 -37q-4 -4 -17 -6q-15 -3 -23 -3zM230 720h120q45 0 58 -1q22 -2 47 -7
q20 -5 30 -10l11 60q1 7 4 10.5t6 4t10 0.5h90q6 0 9 -0.5t5.5 -4t0.5 -10.5l-50 -142q-2 -7 -5.5 -10.5t-6.5 -4t-11 -0.5h-18v-5v-480q0 -63 -33 -94q-13 -12 -42 -18q-25 -5 -47 -7q-13 -1 -58 -1h-120q-45 0 -58 1q-23 2 -48 7q-39 8 -54.5 32.5t-19.5 79.5v480
q0 63 33 94q14 12 41 18q25 5 48 7q13 1 58 1zM370 160v400q0 9 -3.5 14t-6.5 5.5t-10 0.5h-120q-7 0 -10 -0.5t-6.5 -5.5t-3.5 -14v-400q0 -9 3.5 -14t6.5 -5.5t10 -0.5h120q7 0 10 0.5t6.5 5.5t3.5 14z" />
    <glyph glyph-name="uni1EDF" unicode="&#x1edf;" 
d="M345 779h-11v-10q0 -10 -10 -10h-52q-10 0 -10 10v54q0 5 2 7.5t3 2.5h5h35q9 0 9 10q0 5 -1.5 7t-2.5 2h-5h-62q-10 0 -10 11v41q0 11 10 11h82q25 0 37 -1.5t23 -12t11 -32.5v-44q0 -24 -13 -37q-4 -4 -17 -6q-15 -3 -23 -3zM230 720h120q45 0 58 -1q22 -2 47 -7
q20 -5 30 -10l11 60q1 7 4 10.5t6 4t10 0.5h90q6 0 9 -0.5t5.5 -4t0.5 -10.5l-50 -142q-2 -7 -5.5 -10.5t-6.5 -4t-11 -0.5h-18v-5v-480q0 -63 -33 -94q-13 -12 -42 -18q-25 -5 -47 -7q-13 -1 -58 -1h-120q-45 0 -58 1q-23 2 -48 7q-39 8 -54.5 32.5t-19.5 79.5v480
q0 63 33 94q14 12 41 18q25 5 48 7q13 1 58 1zM370 160v400q0 9 -3.5 14t-6.5 5.5t-10 0.5h-120q-7 0 -10 -0.5t-6.5 -5.5t-3.5 -14v-400q0 -9 3.5 -14t6.5 -5.5t10 -0.5h120q7 0 10 0.5t6.5 5.5t3.5 14z" />
    <glyph glyph-name="uni1EE0" unicode="&#x1ee0;" 
d="M216 762l-51 19q-14 7 -9 19l14 41q16 48 56 43q17 -2 38 -10q2 -1 17 -6l42 -17q7 0 11 7q5 15 7 20q3 9 8.5 10.5t11.5 -1.5l52 -19q13 -8 8 -19q-9 -27 -13 -38q-12 -26 -25 -37t-33 -9q-18 2 -38 10q-10 4 -16 6l-42 17q-7 0 -11 -7q-5 -15 -7 -20q-3 -11 -20 -9z
M230 720h120q45 0 58 -1q22 -2 47 -7q20 -5 30 -10l11 60q1 7 4 10.5t6 4t10 0.5h90q6 0 9 -0.5t5.5 -4t0.5 -10.5l-50 -142q-2 -7 -5.5 -10.5t-6.5 -4t-11 -0.5h-18v-5v-480q0 -63 -33 -94q-13 -12 -42 -18q-25 -5 -47 -7q-13 -1 -58 -1h-120q-45 0 -58 1q-23 2 -48 7
q-39 8 -54.5 32.5t-19.5 79.5v480q0 63 33 94q14 12 41 18q25 5 48 7q13 1 58 1zM370 160v400q0 9 -3.5 14t-6.5 5.5t-10 0.5h-120q-7 0 -10 -0.5t-6.5 -5.5t-3.5 -14v-400q0 -9 3.5 -14t6.5 -5.5t10 -0.5h120q7 0 10 0.5t6.5 5.5t3.5 14z" />
    <glyph glyph-name="uni1EE1" unicode="&#x1ee1;" 
d="M216 762l-51 19q-14 7 -9 19l14 41q16 48 56 43q17 -2 38 -10q2 -1 17 -6l42 -17q7 0 11 7q5 15 7 20q3 9 8.5 10.5t11.5 -1.5l52 -19q13 -8 8 -19q-9 -27 -13 -38q-12 -26 -25 -37t-33 -9q-18 2 -38 10q-10 4 -16 6l-42 17q-7 0 -11 -7q-5 -15 -7 -20q-3 -11 -20 -9z
M230 720h120q45 0 58 -1q22 -2 47 -7q20 -5 30 -10l11 60q1 7 4 10.5t6 4t10 0.5h90q6 0 9 -0.5t5.5 -4t0.5 -10.5l-50 -142q-2 -7 -5.5 -10.5t-6.5 -4t-11 -0.5h-18v-5v-480q0 -63 -33 -94q-13 -12 -42 -18q-25 -5 -47 -7q-13 -1 -58 -1h-120q-45 0 -58 1q-23 2 -48 7
q-39 8 -54.5 32.5t-19.5 79.5v480q0 63 33 94q14 12 41 18q25 5 48 7q13 1 58 1zM370 160v400q0 9 -3.5 14t-6.5 5.5t-10 0.5h-120q-7 0 -10 -0.5t-6.5 -5.5t-3.5 -14v-400q0 -9 3.5 -14t6.5 -5.5t10 -0.5h120q7 0 10 0.5t6.5 5.5t3.5 14z" />
    <glyph glyph-name="uni1EE2" unicode="&#x1ee2;" 
d="M238 -67q22 21 52.5 21t51.5 -21q22 -22 22 -52.5t-22 -51.5q-21 -22 -51.5 -22t-52.5 22q-21 21 -21 51.5t21 52.5zM230 720h120q45 0 58 -1q22 -2 47 -7q20 -5 30 -10l11 60q1 7 4 10.5t6 4t10 0.5h90q6 0 9 -0.5t5.5 -4t0.5 -10.5l-50 -142q-2 -7 -5.5 -10.5t-6.5 -4
t-11 -0.5h-18v-5v-480q0 -63 -33 -94q-13 -12 -42 -18q-25 -5 -47 -7q-13 -1 -58 -1h-120q-45 0 -58 1q-23 2 -48 7q-39 8 -54.5 32.5t-19.5 79.5v480q0 63 33 94q14 12 41 18q25 5 48 7q13 1 58 1zM370 160v400q0 9 -3.5 14t-6.5 5.5t-10 0.5h-120q-7 0 -10 -0.5t-6.5 -5.5
t-3.5 -14v-400q0 -9 3.5 -14t6.5 -5.5t10 -0.5h120q7 0 10 0.5t6.5 5.5t3.5 14z" />
    <glyph glyph-name="uni1EE3" unicode="&#x1ee3;" 
d="M238 -67q22 21 52.5 21t51.5 -21q22 -22 22 -52.5t-22 -51.5q-21 -22 -51.5 -22t-52.5 22q-21 21 -21 51.5t21 52.5zM230 720h120q45 0 58 -1q22 -2 47 -7q20 -5 30 -10l11 60q1 7 4 10.5t6 4t10 0.5h90q6 0 9 -0.5t5.5 -4t0.5 -10.5l-50 -142q-2 -7 -5.5 -10.5t-6.5 -4
t-11 -0.5h-18v-5v-480q0 -63 -33 -94q-13 -12 -42 -18q-25 -5 -47 -7q-13 -1 -58 -1h-120q-45 0 -58 1q-23 2 -48 7q-39 8 -54.5 32.5t-19.5 79.5v480q0 63 33 94q14 12 41 18q25 5 48 7q13 1 58 1zM370 160v400q0 9 -3.5 14t-6.5 5.5t-10 0.5h-120q-7 0 -10 -0.5t-6.5 -5.5
t-3.5 -14v-400q0 -9 3.5 -14t6.5 -5.5t10 -0.5h120q7 0 10 0.5t6.5 5.5t3.5 14z" />
    <glyph glyph-name="uni1EE4" unicode="&#x1ee4;" 
d="M244 -67q22 21 52.5 21t51.5 -21q22 -22 22 -52.5t-22 -51.5q-21 -22 -51.5 -22t-52.5 22q-21 21 -21 51.5t21 52.5zM395 720h120q7 0 10 -0.5t6.5 -5.5t3.5 -14v-580q0 -63 -33 -94q-14 -12 -42 -18q-25 -5 -47 -7q-13 -1 -58 -1h-120q-45 0 -58 1q-23 2 -48 7
q-39 8 -54.5 32.5t-19.5 79.5v580q0 9 3.5 14t6.5 5.5t10 0.5h120q7 0 10 -0.5t6.5 -5.5t3.5 -14v-540q0 -9 3.5 -14t6.5 -5.5t10 -0.5h120q7 0 10 0.5t6.5 5.5t3.5 14v540q0 9 3.5 14t6.5 5.5t10 0.5z" />
    <glyph glyph-name="uni1EE5" unicode="&#x1ee5;" 
d="M244 -67q22 21 52.5 21t51.5 -21q22 -22 22 -52.5t-22 -51.5q-21 -22 -51.5 -22t-52.5 22q-21 21 -21 51.5t21 52.5zM395 720h120q7 0 10 -0.5t6.5 -5.5t3.5 -14v-580q0 -63 -33 -94q-14 -12 -42 -18q-25 -5 -47 -7q-13 -1 -58 -1h-120q-45 0 -58 1q-23 2 -48 7
q-39 8 -54.5 32.5t-19.5 79.5v580q0 9 3.5 14t6.5 5.5t10 0.5h120q7 0 10 -0.5t6.5 -5.5t3.5 -14v-540q0 -9 3.5 -14t6.5 -5.5t10 -0.5h120q7 0 10 0.5t6.5 5.5t3.5 14v540q0 9 3.5 14t6.5 5.5t10 0.5z" />
    <glyph glyph-name="uni1EE6" unicode="&#x1ee6;" 
d="M350 779h-11v-10q0 -10 -10 -10h-52q-10 0 -10 10v54q0 5 2 7.5t3 2.5h5h35q9 0 9 10q0 5 -1.5 7t-2.5 2h-5h-62q-10 0 -10 11v41q0 11 10 11h82q25 0 37 -1.5t23 -12t11 -32.5v-44q0 -24 -13 -37q-4 -4 -17 -6q-15 -3 -23 -3zM395 720h120q7 0 10 -0.5t6.5 -5.5t3.5 -14
v-580q0 -63 -33 -94q-14 -12 -42 -18q-25 -5 -47 -7q-13 -1 -58 -1h-120q-45 0 -58 1q-23 2 -48 7q-39 8 -54.5 32.5t-19.5 79.5v580q0 9 3.5 14t6.5 5.5t10 0.5h120q7 0 10 -0.5t6.5 -5.5t3.5 -14v-540q0 -9 3.5 -14t6.5 -5.5t10 -0.5h120q7 0 10 0.5t6.5 5.5t3.5 14v540
q0 9 3.5 14t6.5 5.5t10 0.5z" />
    <glyph glyph-name="uni1EE7" unicode="&#x1ee7;" 
d="M350 779h-11v-10q0 -10 -10 -10h-52q-10 0 -10 10v54q0 5 2 7.5t3 2.5h5h35q9 0 9 10q0 5 -1.5 7t-2.5 2h-5h-62q-10 0 -10 11v41q0 11 10 11h82q25 0 37 -1.5t23 -12t11 -32.5v-44q0 -24 -13 -37q-4 -4 -17 -6q-15 -3 -23 -3zM395 720h120q7 0 10 -0.5t6.5 -5.5t3.5 -14
v-580q0 -63 -33 -94q-14 -12 -42 -18q-25 -5 -47 -7q-13 -1 -58 -1h-120q-45 0 -58 1q-23 2 -48 7q-39 8 -54.5 32.5t-19.5 79.5v580q0 9 3.5 14t6.5 5.5t10 0.5h120q7 0 10 -0.5t6.5 -5.5t3.5 -14v-540q0 -9 3.5 -14t6.5 -5.5t10 -0.5h120q7 0 10 0.5t6.5 5.5t3.5 14v540
q0 9 3.5 14t6.5 5.5t10 0.5z" />
    <glyph glyph-name="uni1EE8" unicode="&#x1ee8;" horiz-adv-x="600" 
d="M313 759h-46q-7 0 -9.5 0.5t-5.5 3.5t1 9l58 103q3 7 8 10t7 3h13h88q17 0 8 -14l-89 -102q-7 -13 -33 -13zM521 777h90q6 0 9 -0.5t5.5 -4t0.5 -10.5l-50 -142q-2 -7 -5.5 -10.5t-6.5 -4t-11 -0.5h-18v-485q0 -63 -33 -94q-14 -12 -42 -18q-25 -5 -47 -7q-13 -1 -58 -1
h-120q-45 0 -58 1q-23 2 -48 7q-39 8 -54.5 32.5t-19.5 79.5v580q0 9 3.5 14t6.5 5.5t10 0.5h120q7 0 10 -0.5t6.5 -5.5t3.5 -14v-540q0 -9 3.5 -14t6.5 -5.5t10 -0.5h120q7 0 10 0.5t6.5 5.5t3.5 14v540q0 9 3.5 14t6.5 5.5t10 0.5h98l8 42q1 7 4 10.5t6 4t10 0.5z" />
    <glyph glyph-name="uni1EE9" unicode="&#x1ee9;" horiz-adv-x="600" 
d="M313 759h-46q-7 0 -9.5 0.5t-5.5 3.5t1 9l58 103q3 7 8 10t7 3h13h88q17 0 8 -14l-89 -102q-7 -13 -33 -13zM521 777h90q6 0 9 -0.5t5.5 -4t0.5 -10.5l-50 -142q-2 -7 -5.5 -10.5t-6.5 -4t-11 -0.5h-18v-485q0 -63 -33 -94q-14 -12 -42 -18q-25 -5 -47 -7q-13 -1 -58 -1
h-120q-45 0 -58 1q-23 2 -48 7q-39 8 -54.5 32.5t-19.5 79.5v580q0 9 3.5 14t6.5 5.5t10 0.5h120q7 0 10 -0.5t6.5 -5.5t3.5 -14v-540q0 -9 3.5 -14t6.5 -5.5t10 -0.5h120q7 0 10 0.5t6.5 5.5t3.5 14v540q0 9 3.5 14t6.5 5.5t10 0.5h98l8 42q1 7 4 10.5t6 4t10 0.5z" />
    <glyph glyph-name="uni1EEA" unicode="&#x1eea;" horiz-adv-x="600" 
d="M343 759h-46q-26 0 -33 13l-89 102q-9 14 8 14h88h4q18 0 24 -13l58 -103q4 -9 0 -11t-14 -2zM521 777h90q6 0 9 -0.5t5.5 -4t0.5 -10.5l-50 -142q-2 -7 -5.5 -10.5t-6.5 -4t-11 -0.5h-18v-485q0 -63 -33 -94q-14 -12 -42 -18q-25 -5 -47 -7q-13 -1 -58 -1h-120
q-45 0 -58 1q-23 2 -48 7q-39 8 -54.5 32.5t-19.5 79.5v580q0 9 3.5 14t6.5 5.5t10 0.5h120q7 0 10 -0.5t6.5 -5.5t3.5 -14v-540q0 -9 3.5 -14t6.5 -5.5t10 -0.5h120q7 0 10 0.5t6.5 5.5t3.5 14v540q0 9 3.5 14t6.5 5.5t10 0.5h98l8 42q1 7 4 10.5t6 4t10 0.5z" />
    <glyph glyph-name="uni1EEB" unicode="&#x1eeb;" horiz-adv-x="600" 
d="M343 759h-46q-26 0 -33 13l-89 102q-9 14 8 14h88h4q18 0 24 -13l58 -103q4 -9 0 -11t-14 -2zM521 777h90q6 0 9 -0.5t5.5 -4t0.5 -10.5l-50 -142q-2 -7 -5.5 -10.5t-6.5 -4t-11 -0.5h-18v-485q0 -63 -33 -94q-14 -12 -42 -18q-25 -5 -47 -7q-13 -1 -58 -1h-120
q-45 0 -58 1q-23 2 -48 7q-39 8 -54.5 32.5t-19.5 79.5v580q0 9 3.5 14t6.5 5.5t10 0.5h120q7 0 10 -0.5t6.5 -5.5t3.5 -14v-540q0 -9 3.5 -14t6.5 -5.5t10 -0.5h120q7 0 10 0.5t6.5 5.5t3.5 14v540q0 9 3.5 14t6.5 5.5t10 0.5h98l8 42q1 7 4 10.5t6 4t10 0.5z" />
    <glyph glyph-name="uni1EEC" unicode="&#x1eec;" horiz-adv-x="600" 
d="M350 779h-11v-10q0 -10 -10 -10h-52q-10 0 -10 10v54q0 5 2 7.5t3 2.5h5h35q9 0 9 10q0 5 -1.5 7t-2.5 2h-5h-62q-10 0 -10 11v41q0 11 10 11h82q25 0 37 -1.5t23 -12t11 -32.5v-44q0 -24 -13 -37q-4 -4 -17 -6q-15 -3 -23 -3zM521 777h90q6 0 9 -0.5t5.5 -4t0.5 -10.5
l-50 -142q-2 -7 -5.5 -10.5t-6.5 -4t-11 -0.5h-18v-485q0 -63 -33 -94q-14 -12 -42 -18q-25 -5 -47 -7q-13 -1 -58 -1h-120q-45 0 -58 1q-23 2 -48 7q-39 8 -54.5 32.5t-19.5 79.5v580q0 9 3.5 14t6.5 5.5t10 0.5h120q7 0 10 -0.5t6.5 -5.5t3.5 -14v-540q0 -9 3.5 -14
t6.5 -5.5t10 -0.5h120q7 0 10 0.5t6.5 5.5t3.5 14v540q0 9 3.5 14t6.5 5.5t10 0.5h98l8 42q1 7 4 10.5t6 4t10 0.5z" />
    <glyph glyph-name="uni1EED" unicode="&#x1eed;" horiz-adv-x="600" 
d="M350 779h-11v-10q0 -10 -10 -10h-52q-10 0 -10 10v54q0 5 2 7.5t3 2.5h5h35q9 0 9 10q0 5 -1.5 7t-2.5 2h-5h-62q-10 0 -10 11v41q0 11 10 11h82q25 0 37 -1.5t23 -12t11 -32.5v-44q0 -24 -13 -37q-4 -4 -17 -6q-15 -3 -23 -3zM521 777h90q6 0 9 -0.5t5.5 -4t0.5 -10.5
l-50 -142q-2 -7 -5.5 -10.5t-6.5 -4t-11 -0.5h-18v-485q0 -63 -33 -94q-14 -12 -42 -18q-25 -5 -47 -7q-13 -1 -58 -1h-120q-45 0 -58 1q-23 2 -48 7q-39 8 -54.5 32.5t-19.5 79.5v580q0 9 3.5 14t6.5 5.5t10 0.5h120q7 0 10 -0.5t6.5 -5.5t3.5 -14v-540q0 -9 3.5 -14
t6.5 -5.5t10 -0.5h120q7 0 10 0.5t6.5 5.5t3.5 14v540q0 9 3.5 14t6.5 5.5t10 0.5h98l8 42q1 7 4 10.5t6 4t10 0.5z" />
    <glyph glyph-name="uni1EEE" unicode="&#x1eee;" horiz-adv-x="600" 
d="M222 762l-51 19q-14 7 -9 19l14 41q16 48 56 43q17 -2 38 -10q2 -1 17 -6l42 -17q7 0 11 7q5 15 7 20q3 9 8.5 10.5t11.5 -1.5l52 -19q13 -8 8 -19q-9 -27 -13 -38q-12 -26 -25 -37t-33 -9q-18 2 -38 10q-10 4 -16 6l-42 17q-7 0 -11 -7q-5 -15 -7 -20q-3 -11 -20 -9z
M521 777h90q6 0 9 -0.5t5.5 -4t0.5 -10.5l-50 -142q-2 -7 -5.5 -10.5t-6.5 -4t-11 -0.5h-18v-485q0 -63 -33 -94q-14 -12 -42 -18q-25 -5 -47 -7q-13 -1 -58 -1h-120q-45 0 -58 1q-23 2 -48 7q-39 8 -54.5 32.5t-19.5 79.5v580q0 9 3.5 14t6.5 5.5t10 0.5h120q7 0 10 -0.5
t6.5 -5.5t3.5 -14v-540q0 -9 3.5 -14t6.5 -5.5t10 -0.5h120q7 0 10 0.5t6.5 5.5t3.5 14v540q0 9 3.5 14t6.5 5.5t10 0.5h98l8 42q1 7 4 10.5t6 4t10 0.5z" />
    <glyph glyph-name="uni1EEF" unicode="&#x1eef;" horiz-adv-x="600" 
d="M222 762l-51 19q-14 7 -9 19l14 41q16 48 56 43q17 -2 38 -10q2 -1 17 -6l42 -17q7 0 11 7q5 15 7 20q3 9 8.5 10.5t11.5 -1.5l52 -19q13 -8 8 -19q-9 -27 -13 -38q-12 -26 -25 -37t-33 -9q-18 2 -38 10q-10 4 -16 6l-42 17q-7 0 -11 -7q-5 -15 -7 -20q-3 -11 -20 -9z
M521 777h90q6 0 9 -0.5t5.5 -4t0.5 -10.5l-50 -142q-2 -7 -5.5 -10.5t-6.5 -4t-11 -0.5h-18v-485q0 -63 -33 -94q-14 -12 -42 -18q-25 -5 -47 -7q-13 -1 -58 -1h-120q-45 0 -58 1q-23 2 -48 7q-39 8 -54.5 32.5t-19.5 79.5v580q0 9 3.5 14t6.5 5.5t10 0.5h120q7 0 10 -0.5
t6.5 -5.5t3.5 -14v-540q0 -9 3.5 -14t6.5 -5.5t10 -0.5h120q7 0 10 0.5t6.5 5.5t3.5 14v540q0 9 3.5 14t6.5 5.5t10 0.5h98l8 42q1 7 4 10.5t6 4t10 0.5z" />
    <glyph glyph-name="uni1EF0" unicode="&#x1ef0;" horiz-adv-x="600" 
d="M244 -67q22 21 52.5 21t51.5 -21q22 -22 22 -52.5t-22 -51.5q-21 -22 -51.5 -22t-52.5 22q-21 21 -21 51.5t21 52.5zM521 777h90q6 0 9 -0.5t5.5 -4t0.5 -10.5l-50 -142q-2 -7 -5.5 -10.5t-6.5 -4t-11 -0.5h-18v-485q0 -63 -33 -94q-14 -12 -42 -18q-25 -5 -47 -7
q-13 -1 -58 -1h-120q-45 0 -58 1q-23 2 -48 7q-39 8 -54.5 32.5t-19.5 79.5v580q0 9 3.5 14t6.5 5.5t10 0.5h120q7 0 10 -0.5t6.5 -5.5t3.5 -14v-540q0 -9 3.5 -14t6.5 -5.5t10 -0.5h120q7 0 10 0.5t6.5 5.5t3.5 14v540q0 9 3.5 14t6.5 5.5t10 0.5h98l8 42q1 7 4 10.5t6 4
t10 0.5z" />
    <glyph glyph-name="uni1EF1" unicode="&#x1ef1;" horiz-adv-x="600" 
d="M244 -67q22 21 52.5 21t51.5 -21q22 -22 22 -52.5t-22 -51.5q-21 -22 -51.5 -22t-52.5 22q-21 21 -21 51.5t21 52.5zM521 777h90q6 0 9 -0.5t5.5 -4t0.5 -10.5l-50 -142q-2 -7 -5.5 -10.5t-6.5 -4t-11 -0.5h-18v-485q0 -63 -33 -94q-14 -12 -42 -18q-25 -5 -47 -7
q-13 -1 -58 -1h-120q-45 0 -58 1q-23 2 -48 7q-39 8 -54.5 32.5t-19.5 79.5v580q0 9 3.5 14t6.5 5.5t10 0.5h120q7 0 10 -0.5t6.5 -5.5t3.5 -14v-540q0 -9 3.5 -14t6.5 -5.5t10 -0.5h120q7 0 10 0.5t6.5 5.5t3.5 14v540q0 9 3.5 14t6.5 5.5t10 0.5h98l8 42q1 7 4 10.5t6 4
t10 0.5z" />
    <glyph glyph-name="Ygrave" unicode="&#x1ef2;" horiz-adv-x="605" 
d="M349 759h-46q-26 0 -33 13l-89 102q-9 14 8 14h88h4q18 0 24 -13l58 -103q4 -9 0 -11t-14 -2zM457 720h120h9t8.5 -2t5 -6t-1.5 -12l-211 -526v-154q0 -9 -3.5 -14t-6.5 -5.5t-10 -0.5h-120q-7 0 -10 0.5t-6.5 5.5t-3.5 14v154l-210 526q0 8 -1.5 12t4.5 6t8.5 2h8.5h120
q24 0 32 -20l108 -270h20l108 270q8 20 32 20z" />
    <glyph glyph-name="ygrave" unicode="&#x1ef3;" horiz-adv-x="570" 
d="M330 759h-46q-26 0 -33 13l-89 102q-9 14 8 14h88h4q18 0 24 -13l58 -103q4 -9 0 -11t-14 -2zM385 720h120q7 0 10 -0.5t6.5 -5.5t3.5 -14v-350q0 -63 -33 -94q-12 -12 -37 -18q-22 -5 -42 -7q-11 -1 -48 -1v-210q0 -9 -3.5 -14t-6.5 -5.5t-10 -0.5h-120q-7 0 -10 0.5
t-6.5 5.5t-3.5 14v210q-38 0 -49 1q-18 2 -41 7q-35 8 -50.5 33t-19.5 79v350q0 9 3.5 14t6.5 5.5t10 0.5h120q7 0 10 -0.5t6.5 -5.5t3.5 -14v-310q0 -9 3.5 -14t6.5 -5.5t10 -0.5h120q7 0 10 0.5t6.5 5.5t3.5 14v310q0 9 3.5 14t6.5 5.5t10 0.5z" />
    <glyph glyph-name="uni1EF4" unicode="&#x1ef4;" horiz-adv-x="605" 
d="M255 -67q22 21 52.5 21t51.5 -21q22 -22 22 -52.5t-22 -51.5q-21 -22 -51.5 -22t-52.5 22q-21 21 -21 51.5t21 52.5zM457 720h120h9t8.5 -2t5 -6t-1.5 -12l-211 -526v-154q0 -9 -3.5 -14t-6.5 -5.5t-10 -0.5h-120q-7 0 -10 0.5t-6.5 5.5t-3.5 14v154l-210 526
q0 8 -1.5 12t4.5 6t8.5 2h8.5h120q24 0 32 -20l108 -270h20l108 270q8 20 32 20z" />
    <glyph glyph-name="uni1EF5" unicode="&#x1ef5;" horiz-adv-x="570" 
d="M232 -67q22 21 52.5 21t51.5 -21q22 -22 22 -52.5t-22 -51.5q-21 -22 -51.5 -22t-52.5 22q-21 21 -21 51.5t21 52.5zM385 720h120q7 0 10 -0.5t6.5 -5.5t3.5 -14v-350q0 -63 -33 -94q-12 -12 -37 -18q-22 -5 -42 -7q-11 -1 -48 -1v-210q0 -9 -3.5 -14t-6.5 -5.5t-10 -0.5
h-120q-7 0 -10 0.5t-6.5 5.5t-3.5 14v210q-38 0 -49 1q-18 2 -41 7q-35 8 -50.5 33t-19.5 79v350q0 9 3.5 14t6.5 5.5t10 0.5h120q7 0 10 -0.5t6.5 -5.5t3.5 -14v-310q0 -9 3.5 -14t6.5 -5.5t10 -0.5h120q7 0 10 0.5t6.5 5.5t3.5 14v310q0 9 3.5 14t6.5 5.5t10 0.5z" />
    <glyph glyph-name="uni1EF6" unicode="&#x1ef6;" horiz-adv-x="605" 
d="M365 779h-11v-10q0 -10 -10 -10h-52q-10 0 -10 10v54q0 5 2 7.5t3 2.5h5h35q9 0 9 10q0 5 -1.5 7t-2.5 2h-5h-62q-10 0 -10 11v41q0 11 10 11h82q25 0 37 -1.5t23 -12t11 -32.5v-44q0 -24 -13 -37q-4 -4 -17 -6q-15 -3 -23 -3zM457 720h120h9t8.5 -2t5 -6t-1.5 -12
l-211 -526v-154q0 -9 -3.5 -14t-6.5 -5.5t-10 -0.5h-120q-7 0 -10 0.5t-6.5 5.5t-3.5 14v154l-210 526q0 8 -1.5 12t4.5 6t8.5 2h8.5h120q24 0 32 -20l108 -270h20l108 270q8 20 32 20z" />
    <glyph glyph-name="uni1EF7" unicode="&#x1ef7;" horiz-adv-x="570" 
d="M337 779h-11v-10q0 -10 -10 -10h-52q-10 0 -10 10v54q0 5 2 7.5t3 2.5h5h35q9 0 9 10q0 5 -1.5 7t-2.5 2h-5h-62q-10 0 -10 11v41q0 11 10 11h82q25 0 37 -1.5t23 -12t11 -32.5v-44q0 -24 -13 -37q-4 -4 -17 -6q-15 -3 -23 -3zM385 720h120q7 0 10 -0.5t6.5 -5.5t3.5 -14
v-350q0 -63 -33 -94q-12 -12 -37 -18q-22 -5 -42 -7q-11 -1 -48 -1v-210q0 -9 -3.5 -14t-6.5 -5.5t-10 -0.5h-120q-7 0 -10 0.5t-6.5 5.5t-3.5 14v210q-38 0 -49 1q-18 2 -41 7q-35 8 -50.5 33t-19.5 79v350q0 9 3.5 14t6.5 5.5t10 0.5h120q7 0 10 -0.5t6.5 -5.5t3.5 -14
v-310q0 -9 3.5 -14t6.5 -5.5t10 -0.5h120q7 0 10 0.5t6.5 5.5t3.5 14v310q0 9 3.5 14t6.5 5.5t10 0.5z" />
    <glyph glyph-name="uni1EF8" unicode="&#x1ef8;" horiz-adv-x="605" 
d="M233 762l-51 19q-14 7 -9 19l14 41q16 48 56 43q17 -2 38 -10q2 -1 17 -6l42 -17q8 0 11 7q5 15 7 20q3 9 8.5 10.5t11.5 -1.5l52 -19q13 -8 8 -19q-9 -27 -13 -38q-12 -26 -25 -37t-33 -9q-18 2 -38 10q-10 4 -16 6l-42 17q-7 0 -11 -7q-5 -15 -7 -20q-3 -11 -20 -9z
M457 720h120h9t8.5 -2t5 -6t-1.5 -12l-211 -526v-154q0 -9 -3.5 -14t-6.5 -5.5t-10 -0.5h-120q-7 0 -10 0.5t-6.5 5.5t-3.5 14v154l-210 526q0 8 -1.5 12t4.5 6t8.5 2h8.5h120q24 0 32 -20l108 -270h20l108 270q8 20 32 20z" />
    <glyph glyph-name="uni1EF9" unicode="&#x1ef9;" horiz-adv-x="570" 
d="M220 762l-51 19q-14 7 -9 19l14 41q16 48 56 43q17 -2 38 -10q2 -1 17 -6l42 -17q7 0 11 7q5 15 7 20q3 9 8.5 10.5t11.5 -1.5l52 -19q13 -8 8 -19q-9 -27 -13 -38q-12 -26 -25 -37t-33 -9q-18 2 -38 10q-10 4 -16 6l-42 17q-7 0 -11 -7q-5 -15 -7 -20q-3 -11 -20 -9z
M385 720h120q7 0 10 -0.5t6.5 -5.5t3.5 -14v-350q0 -63 -33 -94q-12 -12 -37 -18q-22 -5 -42 -7q-11 -1 -48 -1v-210q0 -9 -3.5 -14t-6.5 -5.5t-10 -0.5h-120q-7 0 -10 0.5t-6.5 5.5t-3.5 14v210q-38 0 -49 1q-18 2 -41 7q-35 8 -50.5 33t-19.5 79v350q0 9 3.5 14t6.5 5.5
t10 0.5h120q7 0 10 -0.5t6.5 -5.5t3.5 -14v-310q0 -9 3.5 -14t6.5 -5.5t10 -0.5h120q7 0 10 0.5t6.5 5.5t3.5 14v310q0 9 3.5 14t6.5 5.5t10 0.5z" />
    <glyph glyph-name="uni1EFA" unicode="&#x1efa;" horiz-adv-x="0" 
 />
    <glyph glyph-name="endash" unicode="&#x2013;" horiz-adv-x="520" 
d="M60 430h400q7 0 10 -0.5t6.5 -5.5t3.5 -14v-100q0 -9 -3.5 -14t-6.5 -5.5t-10 -0.5h-400q-7 0 -10 0.5t-6.5 5.5t-3.5 14v100q0 9 3.5 14t6.5 5.5t10 0.5z" />
    <glyph glyph-name="emdash" unicode="&#x2014;" horiz-adv-x="640" 
d="M60 430h520q7 0 10 -0.5t6.5 -5.5t3.5 -14v-100q0 -9 -3.5 -14t-6.5 -5.5t-10 -0.5h-520q-7 0 -10 0.5t-6.5 5.5t-3.5 14v100q0 9 3.5 14t6.5 5.5t10 0.5z" />
    <glyph glyph-name="quoteleft" unicode="&#x2018;" horiz-adv-x="271" 
d="M184 480h-130q-8 0 -11 0.5t-8 5t1 14.5l66 200q5 13 10.5 16.5t19.5 3.5h91q18 0 20 -7q2 -4 1 -13l-34 -200q-2 -13 -7 -16.5t-19 -3.5z" />
    <glyph glyph-name="quoteright" unicode="&#x2019;" horiz-adv-x="271" 
d="M93 720h129q7 0 11 -0.5t8.5 -5t-0.5 -14.5l-67 -200q-5 -13 -10.5 -16.5t-19.5 -3.5h-91h-10t-7 2t-3.5 6t0.5 12l33 200q2 13 7.5 16.5t19.5 3.5z" />
    <glyph glyph-name="quotesinglbase" unicode="&#x201a;" horiz-adv-x="271" 
d="M93 240h129q7 0 11 -0.5t8.5 -5t-0.5 -14.5l-67 -200q-5 -13 -10.5 -16.5t-19.5 -3.5h-91h-10t-7 2t-3.5 6t0.5 12l33 200q2 13 7.5 16.5t19.5 3.5z" />
    <glyph glyph-name="quotedblleft" unicode="&#x201c;" horiz-adv-x="490" 
d="M403 480h-129q-29 0 -19 20l67 200q4 14 9.5 17t20.5 3h91h10t7 -2t3.5 -6t-0.5 -12l-33 -200q-2 -13 -7.5 -16.5t-19.5 -3.5zM184 480h-130q-8 0 -11 0.5t-8 5t1 14.5l66 200q5 13 10.5 16.5t19.5 3.5h91q18 0 20 -7q2 -4 1 -13l-34 -200q-2 -13 -7 -16.5t-19 -3.5z" />
    <glyph glyph-name="quotedblright" unicode="&#x201d;" horiz-adv-x="490" 
d="M93 720h129q7 0 11 -0.5t8.5 -5t-0.5 -14.5l-67 -200q-5 -13 -10.5 -16.5t-19.5 -3.5h-91h-10t-7 2t-3.5 6t0.5 12l33 200q2 13 7.5 16.5t19.5 3.5zM312 720h130q8 0 11 -0.5t8 -5t-1 -14.5l-66 -200q-5 -13 -10.5 -16.5t-19.5 -3.5h-91q-18 0 -20 7q-2 4 -1 13l34 200
q2 13 7 16.5t19 3.5z" />
    <glyph glyph-name="quotedblbase" unicode="&#x201e;" horiz-adv-x="490" 
d="M93 240h129q7 0 11 -0.5t8.5 -5t-0.5 -14.5l-67 -200q-5 -13 -10.5 -16.5t-19.5 -3.5h-91h-10t-7 2t-3.5 6t0.5 12l33 200q2 13 7.5 16.5t19.5 3.5zM312 240h130q8 0 11 -0.5t8 -5t-1 -14.5l-66 -200q-5 -13 -10.5 -16.5t-19.5 -3.5h-91q-18 0 -20 7q-2 4 -1 13l34 200
q2 13 7 16.5t19 3.5z" />
    <glyph glyph-name="dagger" unicode="&#x2020;" horiz-adv-x="480" 
d="M420 440h-120v-420q0 -9 -3.5 -14t-6.5 -5.5t-10 -0.5h-80q-7 0 -10 0.5t-6.5 5.5t-3.5 14v420h-120q-7 0 -10 0.5t-6.5 5.5t-3.5 14v60q0 9 3.5 14t6.5 5.5t10 0.5h120v160q0 9 3.5 14t6.5 5.5t10 0.5h80q7 0 10 -0.5t6.5 -5.5t3.5 -14v-160h120q7 0 10 -0.5t6.5 -5.5
t3.5 -14v-60q0 -9 -3.5 -14t-6.5 -5.5t-10 -0.5z" />
    <glyph glyph-name="daggerdbl" unicode="&#x2021;" horiz-adv-x="480" 
d="M420 440h-120v-160h120q7 0 10 -0.5t6.5 -5.5t3.5 -14v-60q0 -9 -3.5 -14t-6.5 -5.5t-10 -0.5h-120v-160q0 -9 -3.5 -14t-6.5 -5.5t-10 -0.5h-80q-7 0 -10 0.5t-6.5 5.5t-3.5 14v160h-120q-7 0 -10 0.5t-6.5 5.5t-3.5 14v60q0 9 3.5 14t6.5 5.5t10 0.5h120v160h-120
q-7 0 -10 0.5t-6.5 5.5t-3.5 14v60q0 9 3.5 14t6.5 5.5t10 0.5h120v160q0 9 3.5 14t6.5 5.5t10 0.5h80q7 0 10 -0.5t6.5 -5.5t3.5 -14v-160h120q7 0 10 -0.5t6.5 -5.5t3.5 -14v-60q0 -9 -3.5 -14t-6.5 -5.5t-10 -0.5z" />
    <glyph glyph-name="bullet" unicode="&#x2022;" horiz-adv-x="380" 
d="M84 466q44 44 106 44t106 -44t44 -106t-44 -106t-106 -44t-106 44t-44 106t44 106z" />
    <glyph glyph-name="ellipsis" unicode="&#x2026;" horiz-adv-x="700" 
d="M66 144q26 26 64 26t64 -26t26 -64t-26 -64t-64 -26t-64 26t-26 64t26 64zM286 144q26 26 64 26t64 -26t26 -64t-26 -64t-64 -26t-64 26t-26 64t26 64zM506 144q26 26 64 26t64 -26t26 -64t-26 -64t-64 -26t-64 26t-26 64t26 64z" />
    <glyph glyph-name="perthousand" unicode="&#x2030;" horiz-adv-x="1560" 
d="M710 720h85q12 0 14 -2.5t-2 -17.5l-340 -680q-7 -14 -13 -17t-24 -3h-85q-12 0 -14 2.5t2 17.5l340 680q7 14 13 17t24 3zM410 630v-300q0 -47 -26 -71q-10 -10 -31 -14q-29 -5 -83 -5h-80q-54 0 -83 5q-29 7 -41 25.5t-16 59.5v300q0 46 25 71q10 9 32 13q25 6 83 6h80
q58 0 83 -6q29 -5 41 -24t16 -60zM290 360v240q0 9 -3.5 14t-6.5 5.5t-10 0.5h-80q-7 0 -10 -0.5t-6.5 -5.5t-3.5 -14v-240q0 -9 3.5 -14t6.5 -5.5t10 -0.5h80q7 0 10 0.5t6.5 5.5t3.5 14zM870 480h80q58 0 83 -6q29 -5 41 -23.5t16 -60.5v-300q0 -47 -26 -71
q-10 -10 -31 -14q-29 -5 -83 -5h-80q-54 0 -83 5q-29 7 -41 25.5t-16 59.5v300q0 46 25 71q10 9 32 13q25 6 83 6zM970 120v240q0 9 -3.5 14t-6.5 5.5t-10 0.5h-80q-7 0 -10 -0.5t-6.5 -5.5t-3.5 -14v-240q0 -9 3.5 -14t6.5 -5.5t10 -0.5h80q7 0 10 0.5t6.5 5.5t3.5 14z
M1290 480h80q58 0 83 -6q29 -5 41 -23.5t16 -60.5v-300q0 -47 -26 -71q-10 -10 -31 -14q-29 -5 -83 -5h-80q-54 0 -83 5q-29 7 -41 25.5t-16 59.5v300q0 46 25 71q10 9 32 13q25 6 83 6zM1390 120v240q0 9 -3.5 14t-6.5 5.5t-10 0.5h-80q-7 0 -10 -0.5t-6.5 -5.5t-3.5 -14
v-240q0 -9 3.5 -14t6.5 -5.5t10 -0.5h80q7 0 10 0.5t6.5 5.5t3.5 14z" />
    <glyph glyph-name="guilsinglleft" unicode="&#x2039;" horiz-adv-x="368" 
d="M182 600h130q7 0 10 -0.5t6.5 -5t-4.5 -14.5l-110 -220l110 -220q8 -10 4.5 -14.5t-6.5 -5t-10 -0.5h-130q-12 0 -17 1t-10 5t-10 14l-90 180q-15 30 -15 40t15 40l90 180q7 14 13 17t24 3z" />
    <glyph glyph-name="guilsinglright" unicode="&#x203a;" horiz-adv-x="368" 
d="M59 600h130q12 0 17 -1t10 -5t10 -14l90 -180q15 -30 15 -40t-15 -40l-90 -180q-7 -14 -13 -17t-24 -3h-130q-11 0 -13.5 2.5t1.5 17.5l110 220l-110 220q-4 15 -1.5 17.5t13.5 2.5z" />
    <glyph glyph-name="fraction" unicode="&#x2044;" horiz-adv-x="562" 
d="M424 720h85q7 0 10 -0.5t6.5 -5t-4.5 -14.5l-340 -680q-7 -14 -13 -17t-24 -3h-85q-11 0 -13.5 2.5t1.5 17.5l340 680q7 14 13 17t24 3z" />
    <glyph glyph-name="Euro" unicode="&#x20ac;" horiz-adv-x="620" 
d="M270 720h120q45 0 58 -1q22 -2 47 -7q29 -6 42 -18q33 -31 33 -94v-140q0 -9 -3.5 -14t-6.5 -5.5t-10 -0.5h-120q-7 0 -10 0.5t-6.5 5.5t-3.5 14v100q0 9 -3.5 14t-6.5 5.5t-10 0.5h-120q-7 0 -10 -0.5t-6.5 -5.5t-3.5 -14v-80h80q7 0 10 -0.5t6.5 -5.5t3.5 -14v-60
q0 -9 -3.5 -14t-6.5 -5.5t-10 -0.5h-280q-7 0 -10 0.5t-6.5 5.5t-3.5 14v60q0 9 3.5 14t6.5 5.5t10 0.5h40v120q0 63 33 94q14 12 41 18q25 5 48 7q13 1 58 1zM430 280h120q7 0 10 -0.5t6.5 -5.5t3.5 -14v-140q0 -63 -33 -94q-13 -12 -42 -18q-25 -5 -47 -7q-13 -1 -58 -1
h-120q-45 0 -58 1q-23 2 -48 7q-39 8 -54.5 32.5t-19.5 79.5v120h-40q-7 0 -10 0.5t-6.5 5.5t-3.5 14v60q0 9 3.5 14t6.5 5.5t10 0.5h280q7 0 10 -0.5t6.5 -5.5t3.5 -14v-60q0 -9 -3.5 -14t-6.5 -5.5t-10 -0.5h-80v-80q0 -9 3.5 -14t6.5 -5.5t10 -0.5h120q7 0 10 0.5
t6.5 5.5t3.5 14v100q0 9 3.5 14t6.5 5.5t10 0.5z" />
    <glyph glyph-name="afii61289" unicode="&#x2113;" horiz-adv-x="430" 
d="M190 720h60q58 0 83 -6q29 -5 41 -24t16 -60v-290q0 -47 -26 -71q-10 -10 -31 -14q-29 -5 -83 -5h-80v-130q0 -9 3.5 -14t6.5 -5.5t10 -0.5h120q7 0 10 -0.5t6.5 -5.5t3.5 -14v-60q0 -9 -3.5 -14t-6.5 -5.5t-10 -0.5h-120q-54 0 -83 5q-29 7 -41 25.5t-16 59.5v540
q0 46 25 71q10 9 32 13q25 6 83 6zM270 370v230q0 9 -3.5 14t-6.5 5.5t-10 0.5h-60q-7 0 -10 -0.5t-6.5 -5.5t-3.5 -14v-250h80q7 0 10 0.5t6.5 5.5t3.5 14z" />
    <glyph glyph-name="trademark" unicode="&#x2122;" horiz-adv-x="970" 
d="M727 720h163q7 0 10 -0.5t6.5 -5.5t3.5 -14v-440q0 -9 -3.5 -14t-6.5 -5.5t-10 -0.5h-80q-7 0 -10 0.5t-6.5 5.5t-3.5 14v360h-20l-24 -290q-1 -14 -7 -17t-25 -3h-108q-13 0 -17.5 0.5t-9 5t-5.5 14.5l-24 290h-20v-360q0 -9 -3.5 -14t-6.5 -5.5t-10 -0.5h-80
q-7 0 -10 0.5t-6.5 5.5t-3.5 14v440q0 9 3.5 14t6.5 5.5t10 0.5h165q13 0 17.5 -0.5t9 -5t5.5 -14.5l24 -290h20l24 290q1 13 7 16.5t25 3.5zM30 720h320q7 0 10 -0.5t6.5 -5.5t3.5 -14v-60q0 -9 -3.5 -14t-6.5 -5.5t-10 -0.5h-100v-360q0 -9 -3.5 -14t-6.5 -5.5t-10 -0.5
h-80q-7 0 -10 0.5t-6.5 5.5t-3.5 14v360h-100q-7 0 -10 0.5t-6.5 5.5t-3.5 14v60q0 9 3.5 14t6.5 5.5t10 0.5z" />
    <glyph glyph-name="Omega" unicode="&#x2126;" horiz-adv-x="580" 
d="M530 600v-320q0 -39 -5 -62q-10 -42 -75 -58v-20h80q7 0 10 -0.5t6.5 -5.5t3.5 -14v-100q0 -9 -3.5 -14t-6.5 -5.5t-10 -0.5h-200q-7 0 -10 0.5t-6.5 5.5t-3.5 14v180q0 9 3.5 14t6.5 5.5t10 0.5h20q7 0 10 0.5t6.5 5.5t3.5 14v320q0 9 -3.5 14t-6.5 5.5t-10 0.5h-120
q-7 0 -10 -0.5t-6.5 -5.5t-3.5 -14v-320q0 -9 3.5 -14t6.5 -5.5t10 -0.5h20q7 0 10 -0.5t6.5 -5.5t3.5 -14v-180q0 -9 -3.5 -14t-6.5 -5.5t-10 -0.5h-200q-7 0 -10 0.5t-6.5 5.5t-3.5 14v100q0 9 3.5 14t6.5 5.5t10 0.5h80v20q-43 11 -63 33q-8 9 -12 25q-5 23 -5 62v320
q0 63 33 94q14 12 41 18q25 5 48 7q13 1 58 1h120q45 0 58 -1q22 -2 47 -7q29 -6 42 -18q33 -31 33 -94z" />
    <glyph glyph-name="estimated" unicode="&#x212e;" horiz-adv-x="820" 
d="M780 360q0 -9 -10 -9h-570v-273q91 -70 210 -70q101 0 184 52q84 53 128 140q4 10 15 10t7 -10q-47 -95 -136 -153q-88 -57 -198 -57q-152 0 -262 108q-108 110 -108 262q0 153 108 261q109 109 262 109t261 -109q109 -108 109 -261zM200 642v-273h420v273
q-94 70 -210 70q-119 0 -210 -70z" />
    <glyph glyph-name="partialdiff" unicode="&#x2202;" horiz-adv-x="535" 
d="M75 720h230q45 0 58 -1q22 -2 47 -7q39 -8 55 -32.5t20 -79.5v-480q0 -63 -33 -94q-14 -12 -42 -18q-25 -5 -47 -7q-13 -1 -58 -1h-80q-45 0 -58 1q-23 2 -48 7q-39 8 -54.5 32.5t-19.5 79.5v220q0 63 33 94q14 12 41 18q25 5 48 7q13 1 58 1h100v100q0 9 -3.5 14
t-6.5 5.5t-10 0.5h-230q-7 0 -10 0.5t-6.5 5.5t-3.5 14v100q0 9 3.5 14t6.5 5.5t10 0.5zM325 160v160h-100q-7 0 -10 -0.5t-6.5 -5.5t-3.5 -14v-140q0 -9 3.5 -14t6.5 -5.5t10 -0.5h80q7 0 10 0.5t6.5 5.5t3.5 14z" />
    <glyph glyph-name="increment" unicode="&#x2206;" horiz-adv-x="573" 
d="M440 700l114 -680q2 -13 -2.5 -16.5t-18.5 -3.5h-490h-10t-7 2t-3.5 6t0.5 12l113 680q2 13 7.5 16.5t19.5 3.5h251q10 0 13.5 -0.5t7.5 -5t5 -14.5zM278 580l-73 -440h167l-74 440h-20z" />
    <glyph glyph-name="product" unicode="&#x220f;" horiz-adv-x="600" 
d="M80 720h440q7 0 10 -0.5t6.5 -5.5t3.5 -14v-680q0 -9 -3.5 -14t-6.5 -5.5t-10 -0.5h-120q-7 0 -10 0.5t-6.5 5.5t-3.5 14v560h-160v-560q0 -9 -3.5 -14t-6.5 -5.5t-10 -0.5h-120q-7 0 -10 0.5t-6.5 5.5t-3.5 14v680q0 9 3.5 14t6.5 5.5t10 0.5z" />
    <glyph glyph-name="summation" unicode="&#x2211;" horiz-adv-x="540" 
d="M480 580h-280v-20l160 -133q15 -13 17.5 -17.5t2.5 -19.5v-60q0 -15 -2.5 -19.5t-17.5 -17.5l-160 -133v-20h280q7 0 10 -0.5t6.5 -5.5t3.5 -14v-100q0 -9 -3.5 -14t-6.5 -5.5t-10 -0.5h-420q-7 0 -10 0.5t-6.5 5.5t-3.5 14v160q0 15 2.5 19.5t17.5 17.5l160 133v20
l-160 133q-15 13 -17.5 17.5t-2.5 19.5v160q0 9 3.5 14t6.5 5.5t10 0.5h420q7 0 10 -0.5t6.5 -5.5t3.5 -14v-100q0 -9 -3.5 -14t-6.5 -5.5t-10 -0.5z" />
    <glyph glyph-name="minus" unicode="&#x2212;" horiz-adv-x="560" 
d="M60 430h440q7 0 10 -0.5t6.5 -5.5t3.5 -14v-100q0 -9 -3.5 -14t-6.5 -5.5t-10 -0.5h-440q-7 0 -10 0.5t-6.5 5.5t-3.5 14v100q0 9 3.5 14t6.5 5.5t10 0.5z" />
    <glyph glyph-name="uni2215" unicode="&#x2215;" horiz-adv-x="562" 
d="M424 720h85q7 0 10 -0.5t6.5 -5t-4.5 -14.5l-340 -680q-7 -14 -13 -17t-24 -3h-85q-11 0 -13.5 2.5t1.5 17.5l340 680q7 14 13 17t24 3z" />
    <glyph glyph-name="uni2219" unicode="&#x2219;" horiz-adv-x="260" 
d="M66 424q26 26 64 26t64 -26t26 -64t-26 -64t-64 -26t-64 26t-26 64t26 64z" />
    <glyph glyph-name="radical" unicode="&#x221a;" horiz-adv-x="479" 
d="M351 800h75q10 0 13.5 -0.5t6.5 -5t2 -14.5l-88 -880q-1 -13 -5.5 -16.5t-18.5 -3.5h-198q-10 0 -13.5 0.5t-6.5 5t-4 14.5l-37 370h-37q-7 0 -10 0.5t-6.5 5.5t-3.5 14v60q0 9 3.5 14t6.5 5.5t10 0.5h126q10 0 13.5 -0.5t6.5 -5t4 -14.5l37 -370h20l80 800
q1 13 5.5 16.5t18.5 3.5z" />
    <glyph glyph-name="infinity" unicode="&#x221e;" horiz-adv-x="800" 
d="M320 320v80q0 9 -3.5 14t-6.5 5.5t-10 0.5h-80q-7 0 -10 -0.5t-6.5 -5.5t-3.5 -14v-80q0 -9 3.5 -14t6.5 -5.5t10 -0.5h80q7 0 10 0.5t6.5 5.5t3.5 14zM530 560h50q45 0 58 -1q22 -2 47 -7q39 -8 54.5 -32t20.5 -80v-160q0 -63 -33 -94q-13 -12 -42 -18q-25 -5 -47 -7
q-13 -1 -58 -1h-50q-39 0 -62 5q-42 10 -58 75h-20q-11 -43 -33 -63q-9 -7 -26 -12q-21 -5 -61 -5h-50q-45 0 -58 1q-23 2 -48 7q-39 8 -54.5 32.5t-19.5 79.5v160q0 63 33 94q14 12 41 18q25 5 48 7q13 1 58 1h50q40 0 61 -5q43 -10 59 -75h20q11 43 33 63q9 8 25 12
q23 5 62 5zM600 320v80q0 9 -3.5 14t-6.5 5.5t-10 0.5h-80q-7 0 -10 -0.5t-6.5 -5.5t-3.5 -14v-80q0 -9 3.5 -14t6.5 -5.5t10 -0.5h80q7 0 10 0.5t6.5 5.5t3.5 14z" />
    <glyph glyph-name="integral" unicode="&#x222b;" horiz-adv-x="480" 
d="M320 800h120q7 0 10 -0.5t6.5 -5.5t3.5 -14v-60q0 -9 -3.5 -14t-6.5 -5.5t-10 -0.5h-120q-7 0 -10 -0.5t-6.5 -5.5t-3.5 -14v-710q0 -47 -26 -71q-8 -9 -31 -13q-25 -6 -83 -6h-120q-7 0 -10 0.5t-6.5 5.5t-3.5 14v60q0 9 3.5 14t6.5 5.5t10 0.5h120q7 0 10 0.5t6.5 5.5
t3.5 14v710q0 46 25 71q10 9 32 13q25 6 83 6z" />
    <glyph glyph-name="approxequal" unicode="&#x2248;" horiz-adv-x="560" 
d="M380 650h120q7 0 10 -0.5t6.5 -5.5t3.5 -14v-90q0 -63 -33 -94q-13 -12 -42 -18q-25 -5 -47 -7q-13 -1 -58 -1h-120q-7 0 -10 -0.5t-6.5 -5.5t-3.5 -14v-50q0 -9 -3.5 -14t-6.5 -5.5t-10 -0.5h-120q-7 0 -10 0.5t-6.5 5.5t-3.5 14v90q0 63 33 94q14 12 41 18q25 5 48 7
q13 1 58 1h120q7 0 10 0.5t6.5 5.5t3.5 14v50q0 9 3.5 14t6.5 5.5t10 0.5zM380 390h120q7 0 10 -0.5t6.5 -5.5t3.5 -14v-90q0 -63 -33 -94q-13 -12 -42 -18q-25 -5 -47 -7q-13 -1 -58 -1h-120q-7 0 -10 -0.5t-6.5 -5.5t-3.5 -14v-50q0 -9 -3.5 -14t-6.5 -5.5t-10 -0.5h-120
q-7 0 -10 0.5t-6.5 5.5t-3.5 14v90q0 63 33 94q14 12 41 18q25 5 48 7q13 1 58 1h120q7 0 10 0.5t6.5 5.5t3.5 14v50q0 9 3.5 14t6.5 5.5t10 0.5z" />
    <glyph glyph-name="notequal" unicode="&#x2260;" horiz-adv-x="560" 
d="M500 390h-138l-30 -60h168q7 0 10 -0.5t6.5 -5.5t3.5 -14v-100q0 -9 -3.5 -14t-6.5 -5.5t-10 -0.5h-238l-30 -60q-7 -14 -13 -17t-24 -3h-85q-7 0 -10 0.5t-6.5 5t4.5 14.5l30 60h-68q-7 0 -10 0.5t-6.5 5.5t-3.5 14v100q0 9 3.5 14t6.5 5.5t10 0.5h138l30 60h-168
q-7 0 -10 0.5t-6.5 5.5t-3.5 14v100q0 9 3.5 14t6.5 5.5t10 0.5h238l30 60q7 14 13 17t24 3h85q7 0 10 -0.5t6.5 -5t-4.5 -14.5l-30 -60h68q7 0 10 -0.5t6.5 -5.5t3.5 -14v-100q0 -9 -3.5 -14t-6.5 -5.5t-10 -0.5z" />
    <glyph glyph-name="lessequal" unicode="&#x2264;" horiz-adv-x="560" 
d="M60 220h440q7 0 10 -0.5t6.5 -5.5t3.5 -14v-100q0 -9 -3.5 -14t-6.5 -5.5t-10 -0.5h-440q-7 0 -10 0.5t-6.5 5.5t-3.5 14v100q0 9 3.5 14t6.5 5.5t10 0.5zM500 510l-300 -50v-20l300 -50q14 -2 17 -6.5t3 -18.5v-100q0 -7 -0.5 -10t-5.5 -5.5t-14 -1.5l-440 73
q-14 3 -17 7.5t-3 17.5v208q0 9 1 12.5t5 7t14 5.5l440 73q14 0 17 -3t3 -14v-100q0 -19 -8 -23q-5 -1 -12 -2z" />
    <glyph glyph-name="greaterequal" unicode="&#x2265;" horiz-adv-x="560" 
d="M60 220h440q7 0 10 -0.5t6.5 -5.5t3.5 -14v-100q0 -9 -3.5 -14t-6.5 -5.5t-10 -0.5h-440q-7 0 -10 0.5t-6.5 5.5t-3.5 14v100q0 9 3.5 14t6.5 5.5t10 0.5zM360 460l-300 50q-14 2 -17 6.5t-3 18.5v100q0 7 0.5 10t5.5 5.5t14 1.5l440 -73q14 -3 17 -7.5t3 -17.5v-208
q0 -9 -1 -12.5t-5 -7t-14 -5.5l-440 -73q-14 0 -17 3t-3 14v100q0 19 8 23q5 1 12 2l300 50v20z" />
    <glyph glyph-name="lozenge" unicode="&#x25ca;" horiz-adv-x="475" 
d="M347 700l93 -280q15 -45 15 -60t-15 -60l-93 -280q-5 -13 -10.5 -16.5t-19.5 -3.5h-159h-8t-6.5 1t-6.5 3t-4.5 6t-4.5 10l-93 280q-15 45 -15 60t15 60l93 280q5 13 10.5 16.5t19.5 3.5h159h8t6.5 -1t6.5 -3t4.5 -6t4.5 -10zM228 100h20l86 260l-86 260h-20l-87 -260z
" />
    <glyph glyph-name="star1" unicode="&#xfb01;" horiz-adv-x="529" 
d="M481 415l-118 -86l45 -139q5 -15 -2 -20t-20 4l-118 86l-118 -86q-13 -9 -20 -4t-3 20l46 139l-119 86q-13 9 -10 17.5t19 8.5h146l45 139q5 15 14 15t14 -15l45 -139h146q16 0 18.5 -8.5t-10.5 -17.5z" />
    <glyph glyph-name="star2" unicode="&#xfb02;" horiz-adv-x="740" 
d="M137 593q97 97 233 97t233 -97t97 -233t-97 -233t-233 -97t-233 97t-97 233t97 233zM465 329l118 86q13 9 10.5 17.5t-18.5 8.5h-146l-45 139q-5 15 -14 15t-14 -15l-45 -139h-146q-16 0 -19 -8.5t10 -17.5l119 -86l-46 -139q-4 -15 3 -20t20 4l118 86l118 -86
q13 -9 20 -4t2 20z" />
    <glyph glyph-name="NULL" horiz-adv-x="0" 
 />
    <glyph glyph-name="CR" horiz-adv-x="333" 
 />
    </font>
</defs>
</svg>
